<?xml version="1.0" standalone="no"?>
<!DOCTYPE svg PUBLIC "-//W3C//DTD SVG 20010904//EN"
 "http://www.w3.org/TR/2001/REC-SVG-20010904/DTD/svg10.dtd">
<svg version="1.0" xmlns="http://www.w3.org/2000/svg"
 width="778.000000pt" height="774.000000pt" viewBox="0 0 778.000000 774.000000"
 preserveAspectRatio="xMidYMid meet">
<metadata>
Created by potrace 1.13, written by Peter Selinger 2001-2015
</metadata>
<g transform="translate(0.000000,774.000000) scale(0.100000,-0.100000)"
fill="#46cdcf" stroke="none">
<path d="M4395 7570 c-4 -6 -3 -16 3 -22 6 -6 12 -6 17 2 4 6 3 16 -3 22 -6 6
-12 6 -17 -2z"/>
<path d="M4200 7560 c0 -5 5 -10 10 -10 6 0 10 5 10 10 0 6 -4 10 -10 10 -5 0
-10 -4 -10 -10z"/>
<path d="M3372 7549 c2 -6 8 -10 13 -10 5 0 11 4 13 10 2 6 -4 11 -13 11 -9 0
-15 -5 -13 -11z"/>
<path d="M3676 7491 c-4 -5 -2 -12 3 -15 5 -4 12 -2 15 3 4 5 2 12 -3 15 -5 4
-12 2 -15 -3z"/>
<path d="M3897 7493 c-4 -3 -7 -12 -7 -20 0 -17 26 -17 33 1 8 21 -11 35 -26
19z"/>
<path d="M4095 7490 c-4 -7 -3 -16 3 -22 14 -14 45 -2 40 15 -6 16 -34 21 -43
7z"/>
<path d="M4276 7463 c-13 -14 -5 -33 14 -33 11 0 20 6 20 14 0 15 -24 28 -34
19z"/>
<path d="M3276 7435 c-6 -17 16 -31 33 -21 13 9 2 36 -14 36 -7 0 -16 -7 -19
-15z"/>
<path d="M3442 7413 c4 -21 33 -25 33 -3 0 8 -8 16 -18 18 -14 3 -18 -1 -15
-15z"/>
<path d="M3035 7410 c-3 -6 1 -13 10 -16 19 -8 30 0 20 15 -8 14 -22 14 -30 1z"/>
<path d="M4872 7409 c2 -6 8 -10 13 -10 5 0 11 4 13 10 2 6 -4 11 -13 11 -9 0
-15 -5 -13 -11z"/>
<path d="M4544 7399 c-10 -17 13 -36 27 -22 12 12 4 33 -11 33 -5 0 -12 -5
-16 -11z"/>
<path d="M4975 7400 c-4 -6 -3 -16 3 -22 6 -6 12 -6 17 2 4 6 3 16 -3 22 -6 6
-12 6 -17 -2z"/>
<path d="M3627 7383 c-10 -9 -8 -43 2 -43 5 0 14 7 21 15 17 21 -4 48 -23 28z"/>
<path d="M4191 7376 c-16 -19 -7 -46 14 -46 22 0 30 29 13 46 -13 13 -16 13
-27 0z"/>
<path d="M3710 7361 c0 -15 6 -21 21 -21 25 0 22 33 -4 38 -12 2 -17 -3 -17
-17z"/>
<path d="M4657 7374 c-9 -10 2 -24 19 -24 8 0 14 7 14 15 0 15 -21 21 -33 9z"/>
<path d="M4782 7368 c7 -19 38 -22 38 -4 0 10 -9 16 -21 16 -12 0 -19 -5 -17
-12z"/>
<path d="M2834 7349 c-8 -14 11 -33 25 -25 6 4 11 14 11 22 0 16 -26 19 -36 3z"/>
<path d="M3354 7345 c-4 -9 -2 -21 4 -27 15 -15 44 -1 40 19 -4 23 -36 29 -44
8z"/>
<path d="M3487 7354 c-4 -4 -7 -16 -7 -26 0 -14 6 -19 23 -16 14 2 22 10 22
23 0 20 -25 32 -38 19z"/>
<path d="M3976 7351 c-4 -5 -2 -12 3 -15 5 -4 12 -2 15 3 4 5 2 12 -3 15 -5 4
-12 2 -15 -3z"/>
<path d="M4120 7350 c0 -5 5 -10 11 -10 5 0 7 5 4 10 -3 6 -8 10 -11 10 -2 0
-4 -4 -4 -10z"/>
<path d="M3254 7335 c-9 -23 14 -45 26 -25 5 8 8 19 7 24 -6 17 -27 18 -33 1z"/>
<path d="M3835 7340 c-4 -7 -3 -16 3 -22 14 -14 47 -6 47 12 0 18 -40 26 -50
10z"/>
<path d="M4453 7343 c-15 -5 -18 -53 -4 -53 20 0 41 13 41 25 0 17 -22 33 -37
28z"/>
<path d="M2565 7329 c-10 -15 1 -23 20 -15 9 3 13 10 10 16 -8 13 -22 13 -30
-1z"/>
<path d="M4932 7331 c4 -13 18 -16 19 -4 0 4 -5 9 -11 12 -7 2 -11 -2 -8 -8z"/>
<path d="M2926 7311 c-3 -5 0 -14 8 -20 10 -8 16 -8 25 2 6 8 8 17 4 20 -9 10
-31 9 -37 -2z"/>
<path d="M3134 7307 c-3 -9 -3 -25 0 -34 6 -15 8 -15 24 0 15 16 15 18 0 34
-16 15 -18 15 -24 0z"/>
<path d="M4301 7301 c-12 -21 -5 -31 20 -31 24 0 33 18 19 35 -17 20 -27 19
-39 -4z"/>
<path d="M4554 7305 c-4 -8 -3 -22 0 -30 4 -12 10 -14 25 -5 12 6 18 17 15 24
-8 21 -34 28 -40 11z"/>
<path d="M5031 7296 c-14 -17 -7 -36 14 -36 22 0 29 20 13 36 -13 13 -16 13
-27 0z"/>
<path d="M5352 7271 c2 -7 7 -12 11 -12 12 1 9 15 -3 20 -7 2 -11 -2 -8 -8z"/>
<path d="M4655 7260 c-8 -13 13 -40 31 -40 17 0 18 22 2 38 -15 15 -25 15 -33
2z"/>
<path d="M3015 7250 c-7 -12 12 -40 27 -40 13 0 6 43 -9 47 -6 2 -14 -1 -18
-7z"/>
<path d="M3422 7248 c-17 -17 -15 -47 4 -55 23 -9 51 23 38 44 -14 22 -27 26
-42 11z"/>
<path d="M4004 7245 c-8 -20 4 -35 26 -35 25 0 35 17 20 35 -16 19 -39 19 -46
0z"/>
<path d="M2493 7224 c-7 -19 11 -39 26 -30 16 10 13 33 -4 40 -9 3 -18 -1 -22
-10z"/>
<path d="M3545 7220 c-17 -18 -17 -22 -4 -36 28 -27 73 12 48 42 -15 19 -23
18 -44 -6z"/>
<path d="M3670 7225 c-11 -13 -11 -19 3 -32 21 -21 49 -9 45 19 -4 28 -30 35
-48 13z"/>
<path d="M3770 7221 c-7 -15 -6 -23 6 -35 19 -20 19 -20 39 0 15 15 15 18 -1
35 -22 24 -31 24 -44 0z"/>
<path d="M3885 7230 c-9 -14 4 -50 18 -50 22 0 39 17 35 36 -4 21 -42 31 -53
14z"/>
<path d="M4120 7225 c-9 -11 -10 -19 -3 -26 14 -14 43 0 43 22 0 23 -23 25
-40 4z"/>
<path d="M5153 7224 c-8 -21 13 -42 28 -27 13 13 5 43 -11 43 -6 0 -13 -7 -17
-16z"/>
<path d="M2634 7215 c-8 -21 3 -47 19 -43 6 3 13 14 15 25 4 24 -26 40 -34 18z"/>
<path d="M4767 7224 c-16 -16 -6 -34 19 -34 19 0 25 5 22 17 -3 19 -29 29 -41
17z"/>
<path d="M4250 7205 c-10 -12 -11 -21 -4 -33 15 -22 27 -24 49 -8 16 12 18 18
9 33 -15 24 -38 27 -54 8z"/>
<path d="M4357 7204 c-10 -10 -9 -42 2 -48 18 -11 42 6 39 28 -3 21 -28 33
-41 20z"/>
<path d="M4907 7204 c-15 -15 -7 -45 11 -42 9 2 17 12 17 22 0 20 -16 31 -28
20z"/>
<path d="M3192 7178 c2 -12 10 -23 18 -23 22 0 19 39 -3 43 -15 3 -18 -1 -15
-20z"/>
<path d="M3294 7185 c-9 -23 3 -45 24 -45 28 0 43 20 31 42 -12 22 -47 24 -55
3z"/>
<path d="M4452 7178 c-16 -16 -15 -33 2 -47 18 -15 46 -3 46 20 0 24 -33 42
-48 27z"/>
<path d="M5271 7181 c-15 -10 -8 -41 9 -41 15 0 25 29 14 40 -5 5 -15 5 -23 1z"/>
<path d="M2756 7171 c-4 -5 -2 -12 3 -15 5 -4 12 -2 15 3 4 5 2 12 -3 15 -5 4
-12 2 -15 -3z"/>
<path d="M3054 7165 c-9 -22 22 -53 37 -38 15 15 7 47 -14 51 -9 2 -20 -4 -23
-13z"/>
<path d="M5595 7170 c-4 -6 -3 -16 3 -22 6 -6 12 -6 17 2 4 6 3 16 -3 22 -6 6
-12 6 -17 -2z"/>
<path d="M4586 7148 c-17 -23 -6 -48 20 -48 24 0 36 37 18 54 -20 20 -20 20
-38 -6z"/>
<path d="M4706 7141 c-20 -22 -14 -41 13 -41 24 0 45 25 37 45 -8 21 -29 19
-50 -4z"/>
<path d="M5007 7153 c-15 -14 -7 -43 12 -43 24 0 33 13 25 34 -6 16 -25 21
-37 9z"/>
<path d="M2947 7136 c-8 -20 16 -39 30 -25 14 14 6 39 -12 39 -7 0 -15 -6 -18
-14z"/>
<path d="M2350 7126 c0 -9 7 -16 16 -16 17 0 14 22 -4 28 -7 2 -12 -3 -12 -12z"/>
<path d="M3645 7120 c-22 -24 -11 -55 20 -55 26 0 43 31 29 52 -16 25 -28 26
-49 3z"/>
<path d="M3737 7133 c-13 -12 -7 -54 9 -60 8 -3 22 1 31 9 12 12 13 20 4 37
-12 21 -31 27 -44 14z"/>
<path d="M3855 7124 c-21 -21 -15 -48 11 -52 30 -4 48 21 34 47 -13 25 -23 26
-45 5z"/>
<path d="M3963 7133 c-16 -6 -17 -35 -1 -51 17 -17 26 -15 38 9 9 15 8 24 -1
35 -12 15 -16 16 -36 7z"/>
<path d="M2862 7108 c-16 -16 -15 -33 4 -48 22 -19 54 12 38 37 -14 22 -27 26
-42 11z"/>
<path d="M3387 7113 c-12 -12 -7 -50 8 -63 17 -14 43 -7 51 15 11 28 -39 68
-59 48z"/>
<path d="M3517 7102 c-20 -22 -21 -36 -4 -50 32 -26 75 26 45 56 -16 16 -22
15 -41 -6z"/>
<path d="M4066 7105 c-9 -9 -16 -20 -16 -24 0 -13 24 -31 42 -31 28 0 34 29
11 52 -19 18 -21 18 -37 3z"/>
<path d="M4187 7109 c-22 -13 -22 -48 -1 -56 20 -8 48 8 52 30 4 21 -29 38
-51 26z"/>
<path d="M5137 7114 c-10 -10 -9 -42 2 -48 18 -11 42 6 39 28 -3 21 -28 33
-41 20z"/>
<path d="M5374 7109 c-10 -17 23 -46 37 -32 7 7 9 19 6 27 -7 18 -33 21 -43 5z"/>
<path d="M2552 7098 c-8 -8 -9 -15 -1 -25 15 -17 51 1 43 22 -7 18 -26 19 -42
3z"/>
<path d="M4808 7099 c-34 -19 -9 -59 36 -59 22 0 22 56 0 64 -19 7 -15 8 -36
-5z"/>
<path d="M4912 7088 c-17 -17 -15 -48 4 -55 8 -3 23 2 32 11 15 15 15 18 -4
36 -15 16 -22 18 -32 8z"/>
<path d="M3286 7077 c-23 -17 -13 -57 13 -57 29 0 44 25 31 49 -13 25 -20 26
-44 8z"/>
<path d="M4290 7075 c-18 -21 -5 -45 24 -45 30 0 51 31 34 48 -16 16 -43 15
-58 -3z"/>
<path d="M4396 7083 c-11 -12 -6 -50 8 -62 11 -9 20 -10 35 -1 22 11 25 19 13
36 -10 16 -48 34 -56 27z"/>
<path d="M2413 7064 c-8 -21 13 -42 28 -27 13 13 5 43 -11 43 -6 0 -13 -7 -17
-16z"/>
<path d="M5815 7070 c-4 -6 -3 -16 3 -22 6 -6 12 -6 17 2 4 6 3 16 -3 22 -6 6
-12 6 -17 -2z"/>
<path d="M3175 7050 c-17 -19 -17 -22 -3 -37 30 -29 74 10 48 42 -16 20 -23
19 -45 -5z"/>
<path d="M4504 7045 c-8 -34 7 -49 41 -41 21 5 26 12 23 34 -2 21 -9 28 -30
30 -22 3 -29 -2 -34 -23z"/>
<path d="M5240 7055 c-11 -13 -11 -19 3 -32 21 -21 49 -9 45 19 -4 28 -30 35
-48 13z"/>
<path d="M2724 7035 c-4 -9 -2 -21 3 -26 14 -14 45 1 41 20 -4 22 -37 26 -44
6z"/>
<path d="M2313 7033 c-7 -3 -13 -11 -13 -18 0 -15 19 -24 38 -18 6 3 12 11 12
18 0 15 -19 24 -37 18z"/>
<path d="M2656 7033 c-12 -12 -6 -33 9 -33 8 0 15 6 15 14 0 17 -14 28 -24 19z"/>
<path d="M3062 7028 c-17 -17 -15 -48 4 -55 9 -3 24 3 37 15 17 17 18 23 7 36
-15 19 -32 20 -48 4z"/>
<path d="M4644 7014 c-17 -25 -17 -27 0 -40 28 -20 58 0 54 34 -4 37 -32 40
-54 6z"/>
<path d="M5376 7024 c-4 -10 -2 -22 3 -27 14 -14 43 0 39 20 -4 24 -34 28 -42
7z"/>
<path d="M5004 7005 c-8 -20 4 -35 26 -35 25 0 35 17 20 35 -16 19 -39 19 -46
0z"/>
<path d="M5130 7005 c-10 -12 -10 -21 -1 -42 11 -25 12 -25 32 -7 23 20 22 57
-2 62 -9 1 -22 -4 -29 -13z"/>
<path d="M5616 7013 c-12 -12 -6 -33 9 -33 8 0 15 6 15 14 0 17 -14 28 -24 19z"/>
<path d="M2960 6990 c-16 -16 -18 -24 -10 -40 13 -24 23 -25 44 -4 20 19 20
38 2 53 -12 10 -19 8 -36 -9z"/>
<path d="M4750 6996 c-27 -33 18 -72 48 -42 13 13 14 20 6 34 -15 23 -38 26
-54 8z"/>
<path d="M2540 6979 c-15 -27 -6 -49 19 -49 22 0 39 39 26 59 -10 18 -33 13
-45 -10z"/>
<path d="M2017 6974 c-9 -9 4 -34 18 -34 14 0 27 25 18 34 -4 3 -12 6 -18 6
-6 0 -14 -3 -18 -6z"/>
<path d="M2867 6973 c-12 -11 -7 -40 9 -53 21 -18 49 9 39 39 -6 20 -34 28
-48 14z"/>
<path d="M4840 6960 c-13 -24 -5 -60 14 -60 25 0 48 26 44 51 -4 32 -42 38
-58 9z"/>
<path d="M5446 6965 c-8 -22 1 -35 25 -35 15 0 20 6 17 22 -4 27 -33 36 -42
13z"/>
<path d="M5224 6955 c-8 -21 2 -45 19 -45 8 0 20 7 27 15 10 12 10 18 0 30 -7
8 -19 15 -27 15 -7 0 -16 -7 -19 -15z"/>
<path d="M5732 6948 c-7 -7 -12 -17 -12 -24 0 -19 27 -24 41 -8 17 21 -10 51
-29 32z"/>
<path d="M5900 6935 c0 -8 7 -15 16 -15 14 0 14 3 4 15 -7 8 -14 15 -16 15 -2
0 -4 -7 -4 -15z"/>
<path d="M2212 6928 c6 -18 28 -21 28 -4 0 9 -7 16 -16 16 -9 0 -14 -5 -12
-12z"/>
<path d="M2394 6925 c-4 -9 -2 -21 4 -27 15 -15 44 -1 40 19 -4 23 -36 29 -44
8z"/>
<path d="M2757 6933 c-13 -13 -7 -42 12 -52 26 -15 60 21 41 44 -13 15 -42 20
-53 8z"/>
<path d="M4972 6918 c-19 -19 -14 -37 14 -50 31 -14 47 3 34 36 -9 25 -31 31
-48 14z"/>
<path d="M1883 6904 c-8 -21 19 -38 30 -18 9 16 1 34 -14 34 -5 0 -12 -7 -16
-16z"/>
<path d="M2666 6907 c-26 -19 -13 -57 20 -57 28 0 42 25 27 48 -13 22 -26 24
-47 9z"/>
<path d="M6015 6910 c-3 -6 1 -13 10 -16 19 -8 30 0 20 15 -8 14 -22 14 -30 1z"/>
<path d="M2320 6885 c-14 -17 -7 -45 13 -45 24 0 51 26 44 44 -8 20 -40 21
-57 1z"/>
<path d="M5085 6884 c-36 -36 8 -73 46 -38 18 16 18 18 3 36 -21 22 -28 22
-49 2z"/>
<path d="M2095 6880 c-4 -7 -3 -16 3 -22 14 -14 45 -2 40 15 -6 16 -34 21 -43
7z"/>
<path d="M2542 6868 c-16 -16 -15 -43 3 -58 13 -10 19 -9 36 6 11 10 19 27 17
38 -3 24 -37 33 -56 14z"/>
<path d="M5332 6853 c2 -21 9 -29 27 -31 13 -2 27 2 32 9 12 20 -9 49 -37 49
-22 0 -25 -4 -22 -27z"/>
<path d="M5905 6870 c-10 -16 16 -43 28 -31 11 11 2 41 -12 41 -5 0 -13 -5
-16 -10z"/>
<path d="M6141 6854 c0 -11 3 -14 6 -6 3 7 2 16 -1 19 -3 4 -6 -2 -5 -13z"/>
<path d="M1816 6852 c-2 -4 -1 -14 4 -22 7 -11 12 -12 21 -3 6 6 8 16 5 22 -8
13 -23 14 -30 3z"/>
<path d="M5163 6844 c-8 -22 9 -49 33 -49 30 0 27 59 -4 63 -14 2 -25 -3 -29
-14z"/>
<path d="M5441 6841 c-10 -17 -7 -23 14 -37 31 -20 48 -9 43 27 -4 32 -42 38
-57 10z"/>
<path d="M1972 6834 c4 -21 22 -23 26 -1 2 10 -3 17 -13 17 -10 0 -15 -6 -13
-16z"/>
<path d="M1576 6831 c-4 -5 -2 -12 3 -15 5 -4 12 -2 15 3 4 5 2 12 -3 15 -5 4
-12 2 -15 -3z"/>
<path d="M2221 6827 c-13 -17 -5 -47 14 -47 18 0 47 30 42 44 -5 17 -42 19
-56 3z"/>
<path d="M2426 6825 c-12 -12 -13 -21 -6 -36 13 -23 33 -25 50 -4 29 35 -12
72 -44 40z"/>
<path d="M5276 6794 c-19 -19 -20 -36 -4 -52 19 -19 38 -14 48 14 7 19 7 31
-1 40 -15 18 -24 18 -43 -2z"/>
<path d="M5682 6793 c2 -10 10 -18 18 -18 22 0 18 29 -3 33 -14 3 -18 -1 -15
-15z"/>
<path d="M5780 6784 c0 -8 5 -12 10 -9 6 3 10 10 10 16 0 5 -4 9 -10 9 -5 0
-10 -7 -10 -16z"/>
<path d="M5567 6783 c-13 -13 -7 -32 14 -44 14 -7 25 -7 31 -1 6 6 6 17 -1 31
-12 21 -31 27 -44 14z"/>
<path d="M1722 6763 c2 -10 10 -18 18 -18 8 0 16 8 18 18 2 12 -3 17 -18 17
-15 0 -20 -5 -18 -17z"/>
<path d="M2067 6773 c-10 -15 10 -35 29 -31 26 5 24 32 -3 36 -11 2 -23 -1
-26 -5z"/>
<path d="M2322 6768 c-17 -17 -15 -36 7 -47 24 -13 55 8 49 35 -4 22 -38 30
-56 12z"/>
<path d="M1906 6757 c-16 -12 -17 -14 -1 -27 14 -11 18 -11 31 2 13 12 13 16
1 26 -10 9 -18 9 -31 -1z"/>
<path d="M5351 6741 c-16 -30 -3 -53 28 -49 22 2 26 8 26 33 0 23 -5 31 -22
33 -14 2 -26 -4 -32 -17z"/>
<path d="M6016 6751 c-3 -4 3 -16 13 -25 21 -19 37 -7 27 19 -6 16 -32 20 -40
6z"/>
<path d="M5660 6716 c-7 -9 -10 -23 -6 -31 11 -29 60 -10 54 21 -4 24 -31 29
-48 10z"/>
<path d="M2014 6706 c-9 -24 3 -46 26 -46 17 0 21 5 18 27 -3 31 -34 44 -44
19z"/>
<path d="M2232 6683 c2 -20 8 -28 23 -28 31 0 28 49 -3 53 -20 3 -23 0 -20
-25z"/>
<path d="M5884 6699 c-10 -17 13 -36 27 -22 12 12 4 33 -11 33 -5 0 -12 -5
-16 -11z"/>
<path d="M1797 6694 c-16 -16 -7 -44 14 -44 15 0 20 5 17 22 -3 22 -19 33 -31
22z"/>
<path d="M5462 6678 c-17 -17 -15 -32 8 -53 20 -18 21 -18 43 3 17 18 19 26
11 40 -14 21 -45 27 -62 10z"/>
<path d="M1909 6664 c-16 -20 0 -49 27 -49 27 0 31 41 6 54 -15 8 -23 7 -33
-5z"/>
<path d="M5737 6664 c-13 -13 -7 -42 10 -48 21 -8 36 6 31 30 -3 19 -29 30
-41 18z"/>
<path d="M2130 6645 c-10 -12 -10 -18 0 -30 7 -8 18 -15 25 -15 7 0 18 7 25
15 10 12 10 18 0 30 -7 8 -18 15 -25 15 -7 0 -18 -7 -25 -15z"/>
<path d="M6115 6650 c-3 -5 -1 -10 4 -10 6 0 11 5 11 10 0 6 -2 10 -4 10 -3 0
-8 -4 -11 -10z"/>
<path d="M1690 6625 c-10 -11 -10 -19 -2 -27 15 -15 44 -2 40 19 -4 23 -22 27
-38 8z"/>
<path d="M5578 6629 c-22 -12 -23 -55 -2 -63 38 -14 71 33 42 62 -14 14 -18
14 -40 1z"/>
<path d="M5987 6616 c-8 -19 20 -43 34 -29 12 12 1 43 -16 43 -7 0 -15 -6 -18
-14z"/>
<path d="M6174 6605 c-7 -18 3 -35 21 -35 21 0 28 19 15 35 -16 19 -29 19 -36
0z"/>
<path d="M2044 6585 c-10 -24 12 -42 34 -29 24 16 21 38 -6 42 -13 2 -25 -3
-28 -13z"/>
<path d="M5649 6569 c-20 -20 -20 -22 -3 -40 9 -10 23 -19 30 -19 17 0 32 29
27 51 -7 27 -31 31 -54 8z"/>
<path d="M5835 6570 c-7 -23 10 -50 31 -50 21 0 38 38 23 56 -17 21 -47 17
-54 -6z"/>
<path d="M6410 6574 c0 -9 5 -14 12 -12 18 6 21 28 4 28 -9 0 -16 -7 -16 -16z"/>
<path d="M1577 6573 c-13 -12 -7 -23 13 -23 11 0 20 7 20 15 0 15 -21 21 -33
8z"/>
<path d="M1813 6564 c-3 -8 -1 -20 5 -26 16 -16 42 -2 42 22 0 24 -38 28 -47
4z"/>
<path d="M1937 6554 c-12 -12 -8 -41 9 -54 22 -19 54 12 38 38 -12 19 -36 27
-47 16z"/>
<path d="M6063 6539 c-17 -17 -4 -39 22 -39 23 0 40 24 29 41 -7 13 -38 11
-51 -2z"/>
<path d="M1713 6524 c-3 -8 -1 -20 5 -26 15 -15 43 -2 36 16 -8 21 -34 28 -41
10z"/>
<path d="M5757 6502 c-23 -25 -21 -41 6 -51 38 -15 64 28 35 57 -16 16 -22 15
-41 -6z"/>
<path d="M5929 6504 c-13 -16 -4 -44 17 -51 19 -6 36 15 30 35 -9 27 -32 34
-47 16z"/>
<path d="M6264 6509 c-10 -16 23 -46 36 -33 6 6 8 18 4 27 -7 19 -29 22 -40 6z"/>
<path d="M6186 6491 c-7 -10 22 -37 30 -28 9 8 -3 37 -15 37 -5 0 -12 -4 -15
-9z"/>
<path d="M1490 6475 c-10 -12 -9 -16 3 -21 20 -7 37 3 37 22 0 18 -24 18 -40
-1z"/>
<path d="M1842 6478 c-17 -17 -15 -36 7 -47 25 -14 50 13 35 37 -14 21 -27 25
-42 10z"/>
<path d="M1641 6456 c-15 -17 -3 -48 17 -44 8 2 20 11 26 21 8 14 8 20 -4 27
-20 13 -26 12 -39 -4z"/>
<path d="M6393 6444 c-8 -21 13 -42 28 -27 13 13 5 43 -11 43 -6 0 -13 -7 -17
-16z"/>
<path d="M5850 6435 c-16 -19 -3 -55 20 -55 23 0 42 32 34 54 -8 20 -38 21
-54 1z"/>
<path d="M6027 6442 c-23 -5 -19 -40 5 -56 13 -8 21 -7 33 5 27 27 2 60 -38
51z"/>
<path d="M1297 6434 c-8 -8 1 -24 14 -24 5 0 9 7 9 15 0 15 -12 20 -23 9z"/>
<path d="M1745 6410 c-9 -14 3 -47 20 -53 21 -9 41 21 28 41 -12 20 -39 27
-48 12z"/>
<path d="M6237 6403 c-11 -10 -8 -41 4 -49 6 -3 18 1 27 9 13 13 13 19 2 31
-14 17 -23 20 -33 9z"/>
<path d="M1416 6391 c-4 -5 -2 -12 3 -15 5 -4 12 -2 15 3 4 5 2 12 -3 15 -5 4
-12 2 -15 -3z"/>
<path d="M1537 6373 c-11 -10 -8 -51 4 -59 18 -10 42 21 34 45 -6 21 -25 28
-38 14z"/>
<path d="M5942 6361 c-8 -4 -12 -19 -10 -32 4 -29 45 -34 61 -7 19 30 -19 60
-51 39z"/>
<path d="M6132 6348 c-18 -18 -15 -36 9 -43 25 -8 42 6 37 31 -4 23 -29 29
-46 12z"/>
<path d="M1663 6314 c-3 -8 2 -23 11 -32 15 -15 17 -15 32 0 21 21 11 48 -16
48 -11 0 -23 -7 -27 -16z"/>
<path d="M6006 6299 c-19 -27 -4 -52 28 -47 16 2 21 10 21 33 0 37 -27 45 -49
14z"/>
<path d="M6340 6294 c-11 -12 -10 -18 3 -32 16 -15 18 -15 33 0 19 18 12 48
-9 48 -8 0 -20 -7 -27 -16z"/>
<path d="M1016 6292 c-3 -6 -1 -14 5 -17 15 -10 25 3 12 16 -7 7 -13 7 -17 1z"/>
<path d="M6204 6285 c-4 -9 -2 -21 4 -27 15 -15 44 -1 40 19 -4 23 -36 29 -44
8z"/>
<path d="M1454 6267 c-7 -20 3 -37 21 -37 23 0 26 16 5 35 -18 16 -20 16 -26
2z"/>
<path d="M1590 6265 c-6 -8 -9 -23 -5 -35 7 -23 40 -27 49 -5 13 34 -23 66
-44 40z"/>
<path d="M1146 6254 c-4 -9 -4 -19 -2 -22 10 -9 36 8 36 23 0 20 -26 19 -34
-1z"/>
<path d="M1250 6250 c0 -5 5 -10 10 -10 6 0 10 5 10 10 0 6 -4 10 -10 10 -5 0
-10 -4 -10 -10z"/>
<path d="M6414 6226 c-9 -24 4 -48 23 -44 12 2 18 12 18 28 0 29 -32 41 -41
16z"/>
<path d="M6546 6232 c-9 -14 12 -35 28 -29 23 9 20 37 -3 37 -11 0 -22 -4 -25
-8z"/>
<path d="M6115 6206 c-21 -15 -15 -43 11 -53 24 -9 46 24 33 48 -12 23 -19 23
-44 5z"/>
<path d="M6283 6204 c-4 -11 1 -22 12 -31 26 -18 40 -12 40 18 0 30 -41 40
-52 13z"/>
<path d="M1374 6185 c-4 -9 -2 -21 4 -27 15 -15 44 -1 40 19 -4 23 -36 29 -44
8z"/>
<path d="M1514 6186 c-9 -24 0 -51 18 -54 20 -4 40 30 32 52 -8 20 -43 21 -50
2z"/>
<path d="M6660 6156 c0 -9 5 -16 10 -16 6 0 10 4 10 9 0 6 -4 13 -10 16 -5 3
-10 -1 -10 -9z"/>
<path d="M6529 6144 c-11 -14 -10 -18 6 -30 16 -12 21 -12 34 0 12 12 12 18 1
30 -16 20 -24 20 -41 0z"/>
<path d="M1154 6126 c-4 -10 -2 -22 4 -28 8 -8 13 -7 18 6 4 10 2 22 -4 28 -8
8 -13 7 -18 -6z"/>
<path d="M6186 6125 c-22 -23 -20 -34 10 -47 23 -11 28 -10 40 7 8 11 13 26
12 35 -4 21 -42 24 -62 5z"/>
<path d="M1290 6115 c-14 -16 -5 -35 16 -35 8 0 14 2 14 4 0 2 3 11 6 19 7 20
-22 29 -36 12z"/>
<path d="M6371 6117 c-8 -10 -7 -18 2 -31 12 -16 14 -16 26 -2 14 16 9 46 -7
46 -5 0 -15 -6 -21 -13z"/>
<path d="M1425 6100 c-9 -14 13 -50 30 -50 21 0 37 34 23 48 -15 15 -45 16
-53 2z"/>
<path d="M6695 6070 c-7 -12 2 -30 16 -30 12 0 12 27 0 35 -5 3 -12 1 -16 -5z"/>
<path d="M6260 6056 c-27 -33 18 -72 48 -42 13 13 14 20 6 34 -15 23 -38 26
-54 8z"/>
<path d="M6855 6050 c-4 -6 -3 -16 3 -22 6 -6 12 -6 17 2 4 6 3 16 -3 22 -6 6
-12 6 -17 -2z"/>
<path d="M1074 6035 c-3 -8 -3 -19 1 -25 10 -16 45 7 39 25 -8 19 -33 19 -40
0z"/>
<path d="M6595 6040 c-4 -7 -3 -16 3 -22 14 -14 45 -2 40 15 -6 16 -34 21 -43
7z"/>
<path d="M1217 6022 c-15 -16 -15 -21 -3 -37 12 -17 16 -17 30 -5 18 14 18 51
0 57 -6 2 -18 -5 -27 -15z"/>
<path d="M1364 6008 c-18 -19 -18 -20 0 -34 23 -16 46 -3 46 26 0 27 -26 31
-46 8z"/>
<path d="M6443 6004 c-3 -8 1 -22 9 -30 12 -12 17 -12 33 -1 23 17 14 47 -15
47 -11 0 -23 -7 -27 -16z"/>
<path d="M6344 5966 c-15 -12 -17 -18 -8 -33 14 -23 53 -23 67 -1 8 12 7 21
-2 32 -17 20 -32 20 -57 2z"/>
<path d="M877 5953 c-4 -3 -7 -12 -7 -20 0 -17 26 -17 33 1 8 21 -11 35 -26
19z"/>
<path d="M987 5954 c-9 -10 2 -24 19 -24 8 0 14 7 14 15 0 15 -21 21 -33 9z"/>
<path d="M1134 5945 c-4 -9 -2 -21 4 -27 15 -15 44 -1 40 19 -4 23 -36 29 -44
8z"/>
<path d="M6506 5945 c-21 -22 -20 -32 5 -46 29 -15 59 12 43 38 -15 24 -29 26
-48 8z"/>
<path d="M6774 5946 c-4 -9 -2 -22 5 -29 8 -8 14 -8 23 1 10 10 8 16 -5 29
-15 15 -17 15 -23 -1z"/>
<path d="M1292 5928 c-16 -16 -15 -33 3 -48 20 -17 47 5 43 34 -4 24 -28 32
-46 14z"/>
<path d="M6405 5890 c-18 -20 -18 -21 3 -42 18 -18 23 -19 37 -8 20 16 16 64
-6 68 -8 1 -24 -7 -34 -18z"/>
<path d="M6996 5875 c4 -8 7 -15 9 -15 2 0 5 7 9 15 3 9 0 15 -9 15 -9 0 -12
-6 -9 -15z"/>
<path d="M6872 5864 c4 -21 22 -23 26 -1 2 10 -3 17 -13 17 -10 0 -15 -6 -13
-16z"/>
<path d="M960 5850 c0 -5 7 -10 15 -10 8 0 15 5 15 10 0 6 -7 10 -15 10 -8 0
-15 -4 -15 -10z"/>
<path d="M6566 5852 c-3 -5 1 -17 8 -27 16 -22 49 -13 44 12 -3 19 -42 30 -52
15z"/>
<path d="M1080 5835 c-15 -18 -6 -45 13 -45 8 0 20 7 27 15 10 12 10 18 0 30
-16 19 -24 19 -40 0z"/>
<path d="M1214 5825 c-7 -18 12 -45 32 -45 16 0 33 30 27 48 -7 17 -52 15 -59
-3z"/>
<path d="M6461 5781 c-8 -14 -6 -22 8 -35 22 -20 26 -20 45 0 12 12 13 20 6
35 -14 24 -46 25 -59 0z"/>
<path d="M6906 5771 c-7 -11 18 -33 27 -24 4 3 7 12 7 20 0 15 -26 18 -34 4z"/>
<path d="M7196 5771 c-4 -5 -2 -12 3 -15 5 -4 12 -2 15 3 4 5 2 12 -3 15 -5 4
-12 2 -15 -3z"/>
<path d="M751 5756 c-12 -14 -5 -26 16 -26 15 0 18 26 4 34 -5 3 -14 0 -20 -8z"/>
<path d="M6680 5755 c-16 -19 -5 -47 17 -43 11 2 18 12 18 27 0 29 -17 37 -35
16z"/>
<path d="M7056 5761 c-4 -7 -5 -15 -2 -18 9 -9 19 4 14 18 -4 11 -6 11 -12 0z"/>
<path d="M907 5754 c-14 -15 -6 -34 14 -34 14 0 19 5 17 17 -3 18 -20 27 -31
17z"/>
<path d="M6793 5744 c-7 -19 11 -39 26 -30 16 10 13 33 -4 40 -9 3 -18 -1 -22
-10z"/>
<path d="M1015 5741 c-3 -5 -1 -12 5 -16 5 -3 10 1 10 9 0 18 -6 21 -15 7z"/>
<path d="M1145 5729 c-9 -27 14 -44 34 -24 16 16 8 45 -13 45 -8 0 -18 -10
-21 -21z"/>
<path d="M6531 5696 c-27 -32 25 -78 53 -47 21 23 20 38 -3 51 -26 13 -36 13
-50 -4z"/>
<path d="M812 5654 c4 -21 22 -23 26 -1 2 10 -3 17 -13 17 -10 0 -15 -6 -13
-16z"/>
<path d="M1074 5655 c-7 -17 12 -45 31 -45 18 0 27 30 14 46 -15 18 -38 18
-45 -1z"/>
<path d="M6691 5657 c-17 -21 -3 -49 23 -45 15 2 21 10 21 28 0 28 -26 38 -44
17z"/>
<path d="M6853 5645 c-3 -9 -3 -18 0 -22 10 -10 37 6 37 22 0 20 -29 20 -37 0z"/>
<path d="M7005 5649 c-10 -15 1 -23 20 -15 9 3 13 10 10 16 -8 13 -22 13 -30
-1z"/>
<path d="M7155 5650 c-4 -6 -3 -16 3 -22 6 -6 12 -6 17 2 4 6 3 16 -3 22 -6 6
-12 6 -17 -2z"/>
<path d="M936 5624 c-9 -22 17 -49 39 -40 10 3 15 15 13 28 -4 29 -42 37 -52
12z"/>
<path d="M6593 5604 c-9 -24 10 -49 37 -49 31 0 48 28 31 49 -17 21 -60 21
-68 0z"/>
<path d="M714 5586 c-4 -10 -2 -22 4 -28 8 -8 13 -7 18 6 4 10 2 22 -4 28 -8
8 -13 7 -18 -6z"/>
<path d="M6932 5588 c-16 -16 -15 -33 3 -48 12 -10 18 -10 30 0 20 17 19 37
-3 49 -13 7 -23 6 -30 -1z"/>
<path d="M1026 5567 c-26 -19 -17 -52 14 -52 18 0 26 6 28 21 4 30 -20 47 -42
31z"/>
<path d="M878 5563 c-21 -5 -23 -26 -5 -42 11 -8 18 -6 31 8 10 11 15 25 11
30 -6 11 -9 12 -37 4z"/>
<path d="M6785 5557 c-23 -17 -14 -47 15 -47 26 0 37 27 18 46 -12 12 -17 12
-33 1z"/>
<path d="M6662 5518 c-17 -17 -15 -32 7 -52 17 -16 20 -16 35 -1 20 21 20 28
-2 48 -22 20 -25 20 -40 5z"/>
<path d="M7083 5484 c-8 -21 13 -42 28 -27 13 13 5 43 -11 43 -6 0 -13 -7 -17
-16z"/>
<path d="M814 5466 c-11 -45 25 -65 46 -25 9 15 8 24 -1 35 -18 21 -38 17 -45
-10z"/>
<path d="M963 5483 c-20 -7 -15 -41 6 -52 27 -15 47 10 31 38 -11 21 -16 23
-37 14z"/>
<path d="M573 5465 c-3 -9 -3 -18 0 -21 9 -9 27 6 27 22 0 19 -19 18 -27 -1z"/>
<path d="M6836 5465 c-3 -8 2 -22 11 -30 14 -15 18 -15 31 -1 8 8 12 22 9 30
-8 20 -43 21 -51 1z"/>
<path d="M717 5456 c-8 -20 20 -43 35 -28 14 14 3 42 -16 42 -7 0 -16 -6 -19
-14z"/>
<path d="M6954 5435 c-7 -17 12 -45 31 -45 17 0 25 36 12 49 -16 16 -37 14
-43 -4z"/>
<path d="M6716 5421 c-14 -15 -15 -24 -6 -40 13 -25 23 -26 44 -5 19 19 20 36
4 52 -16 16 -22 15 -42 -7z"/>
<path d="M7240 5405 c0 -9 5 -15 11 -13 6 2 11 8 11 13 0 5 -5 11 -11 13 -6 2
-11 -4 -11 -13z"/>
<path d="M927 5379 c-20 -12 -23 -45 -4 -52 17 -6 47 11 47 27 0 22 -23 36
-43 25z"/>
<path d="M7045 5356 c-21 -15 -14 -46 9 -46 23 0 39 35 22 49 -9 8 -18 7 -31
-3z"/>
<path d="M666 5344 c-4 -10 -2 -22 3 -27 14 -14 43 0 39 20 -4 24 -34 28 -42
7z"/>
<path d="M6901 5342 c-11 -20 3 -42 25 -42 15 0 28 35 19 50 -10 16 -33 12
-44 -8z"/>
<path d="M540 5335 c-10 -12 -9 -16 3 -21 20 -7 37 3 37 22 0 18 -24 18 -40
-1z"/>
<path d="M765 5334 c-11 -12 -12 -20 -4 -35 14 -28 43 -20 47 12 4 32 -21 45
-43 23z"/>
<path d="M380 5320 c0 -5 4 -10 9 -10 6 0 13 5 16 10 3 6 -1 10 -9 10 -9 0
-16 -4 -16 -10z"/>
<path d="M7320 5315 c0 -8 7 -15 16 -15 14 0 14 3 4 15 -7 8 -14 15 -16 15 -2
0 -4 -7 -4 -15z"/>
<path d="M6763 5304 c-15 -39 38 -67 60 -32 8 12 7 21 -2 32 -17 21 -50 20
-58 0z"/>
<path d="M7176 5313 c-12 -12 -6 -43 9 -43 8 0 15 9 15 19 0 21 -13 34 -24 24z"/>
<path d="M854 5285 c-4 -10 1 -25 14 -38 18 -17 23 -18 37 -7 9 7 15 23 13 34
-4 27 -55 36 -64 11z"/>
<path d="M600 5250 c-18 -11 -4 -42 17 -38 10 2 19 10 21 19 4 19 -19 31 -38
19z"/>
<path d="M6934 5225 c-7 -17 12 -45 31 -45 7 0 18 7 25 15 10 12 10 18 0 30
-16 19 -49 19 -56 0z"/>
<path d="M7077 5233 c-15 -14 -7 -43 12 -43 26 0 36 17 21 35 -14 16 -23 19
-33 8z"/>
<path d="M707 5216 c-9 -22 18 -40 33 -22 6 9 9 20 5 26 -9 15 -32 12 -38 -4z"/>
<path d="M6810 5215 c-16 -19 2 -65 25 -65 23 0 41 46 25 65 -7 8 -18 15 -25
15 -7 0 -18 -7 -25 -15z"/>
<path d="M7190 5206 c0 -21 21 -31 30 -15 5 7 6 17 4 21 -9 14 -34 9 -34 -6z"/>
<path d="M823 5173 c-18 -7 -16 -38 2 -53 20 -17 47 5 43 34 -3 21 -22 29 -45
19z"/>
<path d="M2118 5094 c-27 -20 -56 -53 -68 -78 -19 -40 -26 -45 -89 -65 -76
-24 -125 -64 -198 -163 -44 -58 -117 -204 -160 -318 -84 -221 -102 -275 -122
-365 -5 -22 -16 -67 -24 -100 -8 -33 -20 -91 -27 -130 -6 -38 -18 -100 -26
-137 -34 -163 -52 -455 -33 -576 12 -86 49 -198 83 -256 48 -83 228 -224 312
-245 21 -5 57 -15 79 -20 77 -20 130 -14 206 24 38 20 78 44 88 54 10 10 38
32 63 49 25 17 60 50 78 72 30 38 31 40 10 40 -29 0 -23 30 9 46 31 16 78 -5
109 -49 37 -54 234 -242 292 -279 56 -36 126 -62 142 -52 24 15 -13 58 -130
152 -54 43 -155 167 -181 223 -12 24 -32 57 -46 73 -28 33 -34 90 -10 100 19
7 20 26 1 26 -23 0 -29 20 -13 38 8 9 18 28 22 40 5 17 12 22 26 19 16 -4 19
0 19 29 0 43 24 91 49 99 10 3 24 19 31 35 7 16 18 34 26 41 8 7 11 21 7 40
-3 16 0 35 7 44 17 20 50 87 50 100 0 7 18 26 39 43 33 27 41 40 47 79 4 32
16 58 34 78 16 17 31 47 34 70 4 22 9 48 12 57 4 13 1 16 -9 12 -25 -9 -30 16
-8 40 12 12 21 35 21 52 0 16 9 42 20 59 14 22 16 32 8 42 -8 10 -8 20 -1 36
15 30 5 297 -16 423 -21 134 -112 287 -222 376 -55 44 -209 115 -303 139 -39
10 -98 19 -131 19 -53 -1 -65 -5 -107 -36z m395 -156 c54 -13 113 -71 148
-144 67 -145 89 -412 49 -609 -12 -55 -23 -118 -26 -140 -3 -22 -12 -54 -20
-72 -8 -17 -14 -39 -14 -50 0 -10 -7 -31 -15 -47 -8 -15 -15 -36 -15 -45 0 -9
-4 -21 -9 -26 -5 -6 -21 -39 -36 -75 -38 -93 -174 -359 -202 -397 -22 -28 -27
-31 -44 -20 -11 7 -24 28 -29 47 -5 19 -21 60 -36 90 -28 56 -40 95 -53 165
-4 22 -15 54 -24 72 -9 18 -17 51 -17 73 0 23 -5 50 -11 61 -5 11 -12 50 -15
87 -7 102 -12 119 -36 118 -31 -1 -34 22 -4 30 28 7 36 24 11 24 -8 0 -15 9
-15 20 0 11 7 20 15 20 18 0 19 12 3 28 -9 9 -9 15 0 24 20 20 15 65 -9 71
-26 7 -24 54 3 49 25 -4 29 9 29 94 0 66 -3 79 -22 100 l-23 25 22 6 c19 5 22
12 22 58 0 36 4 55 14 58 7 3 16 20 19 39 3 18 15 61 27 96 l22 62 44 0 c54 0
67 20 35 54 -27 29 -27 54 2 66 25 10 152 3 210 -12z m-576 -412 c-2 -51 -7
-98 -10 -103 -11 -18 -9 -279 3 -393 6 -63 23 -158 37 -210 14 -52 29 -111 33
-130 21 -91 43 -158 69 -209 16 -31 35 -74 41 -96 7 -22 18 -47 25 -55 7 -8
29 -49 50 -90 20 -41 41 -80 47 -87 25 -31 -87 -160 -254 -294 -42 -34 -153
-69 -216 -69 -44 0 -54 4 -89 39 -50 50 -66 91 -88 216 -9 55 -21 124 -27 152
-5 29 -7 57 -3 63 3 5 8 49 10 97 3 49 11 129 19 178 9 50 21 142 27 205 6 63
15 123 21 134 21 40 57 166 52 181 -3 8 6 35 20 59 26 44 49 117 68 211 5 27
18 61 28 76 11 14 26 47 35 74 22 63 73 145 91 145 12 0 14 -17 11 -94z"/>
<path d="M6862 5118 c-17 -17 -15 -32 7 -52 18 -17 20 -17 40 3 17 17 19 25
11 41 -12 22 -40 26 -58 8z"/>
<path d="M680 5105 c-11 -13 -11 -19 3 -32 21 -21 49 -9 45 19 -4 28 -30 35
-48 13z"/>
<path d="M6994 5105 c-4 -9 -2 -21 4 -27 15 -15 44 -1 40 19 -4 23 -36 29 -44
8z"/>
<path d="M544 5096 c-8 -21 13 -46 32 -39 20 8 13 47 -9 51 -9 2 -20 -4 -23
-12z"/>
<path d="M759 5064 c-16 -20 0 -49 27 -49 22 0 31 30 14 50 -16 19 -24 19 -41
-1z"/>
<path d="M7040 5035 c-10 -13 -10 -19 5 -35 28 -31 71 4 44 36 -15 18 -33 18
-49 -1z"/>
<path d="M504 5029 c-10 -17 13 -36 27 -22 12 12 4 33 -11 33 -5 0 -12 -5 -16
-11z"/>
<path d="M627 5033 c-12 -11 -8 -43 6 -43 22 0 40 18 34 34 -6 16 -28 21 -40
9z"/>
<path d="M7182 5018 c2 -12 11 -24 21 -26 14 -3 18 1 15 20 -2 12 -11 24 -21
26 -14 3 -18 -1 -15 -20z"/>
<path d="M7430 5030 c0 -5 5 -10 10 -10 6 0 10 5 10 10 0 6 -4 10 -10 10 -5 0
-10 -4 -10 -10z"/>
<path d="M6913 4984 c-4 -11 1 -22 12 -31 16 -11 21 -11 33 1 8 8 12 22 9 30
-8 21 -46 21 -54 0z"/>
<path d="M234 4979 c-8 -14 11 -33 25 -25 11 7 4 36 -9 36 -5 0 -12 -5 -16
-11z"/>
<path d="M383 4964 c-3 -8 -1 -20 5 -26 16 -16 42 -2 42 22 0 24 -38 28 -47 4z"/>
<path d="M715 4950 c-8 -25 1 -40 24 -40 28 0 46 26 31 45 -18 21 -48 19 -55
-5z"/>
<path d="M7330 4926 c0 -9 7 -16 16 -16 9 0 14 5 12 12 -6 18 -28 21 -28 4z"/>
<path d="M473 4904 c-6 -16 15 -37 29 -28 4 3 8 14 8 25 0 23 -28 26 -37 3z"/>
<path d="M587 4914 c-9 -10 12 -34 30 -34 19 0 12 34 -8 38 -8 1 -18 0 -22 -4z"/>
<path d="M7066 4911 c-9 -14 4 -41 19 -41 15 0 28 27 19 41 -3 5 -11 9 -19 9
-8 0 -16 -4 -19 -9z"/>
<path d="M7174 4895 c-7 -18 3 -35 21 -35 15 0 28 27 19 41 -8 14 -34 11 -40
-6z"/>
<path d="M350 4881 c-12 -24 10 -47 28 -29 16 16 15 35 -3 42 -8 3 -19 -3 -25
-13z"/>
<path d="M6952 4873 c4 -33 37 -43 57 -19 20 24 6 46 -29 46 -28 0 -31 -3 -28
-27z"/>
<path d="M685 4844 c-9 -9 -14 -23 -11 -31 3 -8 6 -17 6 -19 0 -12 49 -2 54
12 10 25 7 33 -13 44 -15 7 -24 6 -36 -6z"/>
<path d="M7355 4849 c-10 -15 1 -23 20 -15 9 3 13 10 10 16 -8 13 -22 13 -30
-1z"/>
<path d="M190 4815 c0 -9 5 -15 11 -13 6 2 11 8 11 13 0 5 -5 11 -11 13 -6 2
-11 -4 -11 -13z"/>
<path d="M451 4801 c-19 -12 -6 -43 16 -39 10 2 18 12 18 22 0 22 -14 29 -34
17z"/>
<path d="M7092 4798 c-26 -26 -2 -64 30 -47 10 5 18 16 18 24 0 21 -34 37 -48
23z"/>
<path d="M542 4783 c-13 -24 -4 -43 18 -43 21 0 40 28 33 48 -7 18 -41 15 -51
-5z"/>
<path d="M6977 4793 c-11 -10 -8 -51 3 -58 17 -10 49 5 56 27 9 28 -37 53 -59
31z"/>
<path d="M306 4761 c-14 -16 -15 -20 -2 -30 19 -16 36 -6 36 19 0 27 -15 32
-34 11z"/>
<path d="M7226 4763 c-7 -17 9 -33 32 -33 19 0 27 31 11 41 -21 13 -36 11 -43
-8z"/>
<path d="M641 4742 c-8 -15 -6 -23 9 -37 27 -24 52 -12 48 22 -4 35 -41 44
-57 15z"/>
<path d="M7357 4734 c-9 -10 2 -24 19 -24 8 0 14 7 14 15 0 15 -21 21 -33 9z"/>
<path d="M7018 4713 c-24 -6 -31 -34 -13 -52 20 -21 50 -3 50 29 0 25 -9 30
-37 23z"/>
<path d="M7124 4685 c-14 -36 21 -60 45 -31 9 11 8 18 -4 30 -20 20 -34 20
-41 1z"/>
<path d="M532 4668 c-16 -16 -15 -35 3 -42 19 -7 46 20 39 39 -7 18 -26 19
-42 3z"/>
<path d="M4245 4666 c-30 -13 -85 -81 -85 -105 0 -14 -26 -63 -52 -100 -10
-13 -18 -36 -18 -52 0 -15 -5 -31 -11 -35 -17 -10 -41 -72 -55 -144 -15 -79
-7 -97 59 -129 53 -26 101 -27 125 -3 10 10 24 47 32 83 7 35 16 69 20 74 4 6
11 26 15 45 4 19 13 49 20 65 8 17 18 46 24 65 5 19 19 62 30 94 32 91 29 108
-24 134 -25 12 -47 22 -48 22 -1 -1 -16 -7 -32 -14z"/>
<path d="M7271 4657 c-13 -16 -5 -27 21 -27 11 0 18 7 18 20 0 23 -22 27 -39
7z"/>
<path d="M293 4644 c-7 -19 11 -39 26 -30 16 10 13 33 -4 40 -9 3 -18 -1 -22
-10z"/>
<path d="M380 4641 c0 -27 19 -36 37 -18 18 18 9 37 -18 37 -12 0 -19 -7 -19
-19z"/>
<path d="M630 4625 c-10 -12 -10 -18 0 -30 27 -33 67 -10 48 28 -11 21 -31 22
-48 2z"/>
<path d="M7395 4609 c-10 -15 1 -23 20 -15 9 3 13 10 10 16 -8 13 -22 13 -30
-1z"/>
<path d="M7147 4597 c-16 -11 -16 -14 -2 -35 20 -27 31 -28 45 -1 9 15 8 24
-1 35 -14 17 -20 17 -42 1z"/>
<path d="M180 4590 c0 -5 7 -10 16 -10 8 0 12 5 9 10 -3 6 -10 10 -16 10 -5 0
-9 -4 -9 -10z"/>
<path d="M7033 4584 c-4 -11 1 -22 12 -31 16 -11 21 -11 33 1 8 8 12 22 9 30
-8 21 -46 21 -54 0z"/>
<path d="M502 4564 c-25 -18 -28 -37 -7 -54 21 -18 55 -3 55 24 0 35 -22 49
-48 30z"/>
<path d="M599 4524 c-15 -18 -2 -47 24 -52 22 -5 42 35 26 54 -15 18 -33 18
-50 -2z"/>
<path d="M7294 4529 c-10 -17 23 -46 37 -32 7 7 9 19 6 27 -7 18 -33 21 -43 5z"/>
<path d="M380 4515 c-11 -13 -11 -19 3 -32 21 -21 49 -9 45 19 -4 28 -30 35
-48 13z"/>
<path d="M255 4511 c-3 -5 2 -17 11 -26 19 -19 40 -6 31 19 -7 17 -32 21 -42
7z"/>
<path d="M7423 4504 c-8 -21 13 -42 28 -27 13 13 5 43 -11 43 -6 0 -13 -7 -17
-16z"/>
<path d="M460 4465 c-11 -13 -11 -19 3 -32 21 -21 49 -9 45 19 -4 28 -30 35
-48 13z"/>
<path d="M7213 4473 c-17 -6 -17 -38 0 -52 10 -8 17 -7 25 1 26 26 7 62 -25
51z"/>
<path d="M7060 4455 c-16 -19 3 -45 32 -45 27 0 35 30 13 46 -24 18 -30 17
-45 -1z"/>
<path d="M371 4436 c-14 -17 -7 -36 14 -36 22 0 29 20 13 36 -13 13 -16 13
-27 0z"/>
<path d="M578 4429 c-37 -21 -9 -77 32 -64 22 7 27 44 8 63 -14 14 -18 14 -40
1z"/>
<path d="M7325 4426 c-11 -8 -16 -19 -12 -30 9 -22 41 -17 45 8 6 27 -11 38
-33 22z"/>
<path d="M5643 4408 c-24 -32 -163 -441 -163 -479 0 -11 -9 -37 -19 -57 -16
-32 -27 -40 -71 -51 -28 -7 -84 -16 -123 -20 -65 -5 -72 -8 -75 -28 -5 -36 91
-132 139 -139 67 -11 67 -6 9 -234 -77 -305 -59 -453 65 -554 91 -75 122 -75
207 -3 35 29 70 67 78 84 8 17 27 41 43 53 18 14 27 31 27 49 0 20 12 38 40
64 32 28 40 42 40 70 0 23 7 39 20 48 19 13 19 16 4 64 -9 28 -18 56 -20 63
-5 19 -32 14 -44 -8 -6 -11 -16 -20 -24 -20 -7 0 -25 -17 -41 -37 -16 -21 -43
-51 -60 -68 -17 -16 -58 -64 -92 -106 -40 -49 -74 -81 -94 -88 l-32 -11 8 82
c4 45 13 95 22 111 8 16 12 36 8 45 -3 8 10 72 29 141 19 69 37 154 41 187 5
49 12 67 33 86 35 31 108 55 207 68 44 5 114 17 155 26 41 8 122 22 180 29
139 17 184 34 188 68 5 43 -51 95 -117 107 -61 11 -203 1 -341 -26 -47 -9
-111 -18 -142 -21 -69 -6 -72 1 -33 75 14 26 25 53 25 60 0 14 2 19 58 128 50
97 43 134 -41 217 -39 38 -76 48 -94 25z"/>
<path d="M80 4365 c0 -8 7 -15 15 -15 8 0 15 7 15 15 0 8 -7 15 -15 15 -8 0
-15 -7 -15 -15z"/>
<path d="M202 4363 c4 -21 33 -25 33 -3 0 8 -8 16 -18 18 -14 3 -18 -1 -15
-15z"/>
<path d="M7453 4364 c-9 -23 11 -38 26 -20 13 16 7 36 -10 36 -5 0 -12 -7 -16
-16z"/>
<path d="M444 4355 c-9 -23 3 -45 25 -45 23 0 35 28 20 46 -15 18 -38 18 -45
-1z"/>
<path d="M7190 4354 c-18 -20 6 -50 26 -33 8 6 14 17 14 24 0 19 -27 26 -40 9z"/>
<path d="M7077 4346 c-3 -8 3 -22 14 -32 18 -16 21 -16 36 -1 13 13 14 19 3
31 -16 20 -46 21 -53 2z"/>
<path d="M350 4295 c0 -22 4 -26 23 -23 14 2 22 10 22 23 0 13 -8 21 -22 23
-19 3 -23 -1 -23 -23z"/>
<path d="M566 4307 c-26 -19 -17 -51 15 -55 29 -3 44 18 34 49 -7 22 -24 24
-49 6z"/>
<path d="M7336 4313 c-10 -10 -7 -41 4 -48 15 -9 40 14 34 30 -6 16 -29 26
-38 18z"/>
<path d="M214 4256 c-9 -24 3 -47 21 -40 18 7 16 45 -2 52 -7 2 -16 -3 -19
-12z"/>
<path d="M7096 4254 c-20 -19 -20 -25 -2 -50 12 -15 18 -17 33 -8 23 14 28 41
13 59 -16 19 -25 19 -44 -1z"/>
<path d="M7243 4244 c-7 -18 17 -38 31 -24 11 11 1 40 -14 40 -6 0 -13 -7 -17
-16z"/>
<path d="M117 4234 c-8 -8 1 -24 14 -24 5 0 9 7 9 15 0 15 -12 20 -23 9z"/>
<path d="M440 4215 c-15 -18 -6 -45 13 -45 20 0 40 27 33 45 -7 19 -30 19 -46
0z"/>
<path d="M294 4205 c-7 -17 12 -45 31 -45 18 0 27 30 14 46 -15 18 -38 18 -45
-1z"/>
<path d="M547 4194 c-15 -16 -7 -53 14 -59 27 -9 42 6 37 36 -3 24 -36 38 -51
23z"/>
<path d="M7350 4171 c0 -15 6 -21 21 -21 14 0 19 5 17 17 -5 26 -38 29 -38 4z"/>
<path d="M7097 4134 c-14 -14 -7 -53 12 -63 26 -14 54 8 49 40 -2 17 -10 25
-28 27 -14 2 -29 0 -33 -4z"/>
<path d="M7210 4130 c-20 -12 -1 -45 26 -45 22 0 32 34 12 46 -17 11 -20 11
-38 -1z"/>
<path d="M95 4111 c-8 -15 3 -31 21 -31 9 0 14 7 12 17 -4 20 -24 28 -33 14z"/>
<path d="M442 4078 c2 -15 10 -23 23 -23 30 0 27 39 -3 43 -20 3 -23 0 -20
-20z"/>
<path d="M527 4063 c-13 -12 -7 -40 13 -58 16 -15 22 -15 35 -5 18 15 19 42 3
58 -13 13 -41 16 -51 5z"/>
<path d="M7394 4047 c-8 -22 11 -46 26 -31 7 7 5 17 -4 30 -14 18 -15 18 -22
1z"/>
<path d="M297 4043 c-10 -9 -8 -43 2 -43 5 0 14 7 21 15 17 21 -4 48 -23 28z"/>
<path d="M190 4006 c-15 -19 -5 -36 21 -36 22 0 25 22 5 39 -10 9 -16 8 -26
-3z"/>
<path d="M7117 4014 c-13 -14 -7 -43 12 -53 26 -14 50 13 34 37 -11 19 -35 27
-46 16z"/>
<path d="M7264 3985 c-4 -9 -2 -21 4 -27 15 -15 44 -1 40 19 -4 23 -36 29 -44
8z"/>
<path d="M430 3965 c-18 -21 -5 -45 25 -45 14 0 28 7 31 15 7 17 -12 45 -31
45 -7 0 -18 -7 -25 -15z"/>
<path d="M305 3929 c-5 -14 -2 -25 6 -30 21 -13 34 -5 34 22 0 31 -31 38 -40
8z"/>
<path d="M522 3933 c-13 -26 -4 -43 23 -43 25 0 46 26 38 48 -7 18 -51 15 -61
-5z"/>
<path d="M75 3930 c-11 -17 5 -32 21 -19 7 6 11 15 8 20 -7 12 -21 11 -29 -1z"/>
<path d="M4063 3913 c-34 -7 -40 -24 -33 -93 7 -68 0 -226 -20 -440 -6 -69
-11 -215 -11 -325 2 -229 -4 -216 99 -248 55 -18 59 -18 101 -1 l43 17 -5 67
c-4 36 -10 77 -15 91 -12 33 -8 369 7 499 21 193 24 321 9 365 -22 61 -85 86
-175 68z"/>
<path d="M7117 3914 c-12 -12 -8 -41 8 -54 20 -17 47 5 43 34 -3 21 -37 34
-51 20z"/>
<path d="M7346 3912 c-2 -4 -1 -14 4 -22 7 -11 12 -12 21 -3 6 6 8 16 5 22 -8
13 -23 14 -30 3z"/>
<path d="M190 3896 c-14 -18 -6 -50 13 -44 15 6 22 37 10 49 -6 6 -15 4 -23
-5z"/>
<path d="M7247 3903 c-11 -10 -8 -41 4 -48 14 -10 49 24 42 41 -5 14 -35 19
-46 7z"/>
<path d="M434 3866 c-9 -22 4 -36 32 -36 21 0 25 4 22 23 -4 26 -45 37 -54 13z"/>
<path d="M7596 3861 c-4 -7 -5 -15 -2 -18 9 -9 19 4 14 18 -4 11 -6 11 -12 0z"/>
<path d="M3640 3824 c-6 -14 -10 -37 -10 -52 0 -22 -40 -95 -61 -112 -13 -10
-49 -75 -49 -89 0 -7 -13 -30 -30 -51 -16 -20 -34 -48 -40 -61 -5 -13 -14 -31
-19 -39 -5 -8 -17 -33 -27 -55 -11 -22 -33 -58 -50 -80 -17 -22 -34 -50 -38
-61 -4 -12 -15 -29 -26 -39 -11 -10 -20 -24 -20 -31 0 -14 -64 -104 -82 -115
-6 -4 -19 -4 -29 -2 -14 4 -19 14 -19 44 0 21 4 49 10 64 7 17 6 41 0 72 -10
42 -8 49 14 84 19 28 26 52 27 96 1 44 7 67 26 95 29 42 40 92 35 156 -4 51
-52 106 -103 117 -40 9 -48 0 -83 -95 -16 -41 -32 -84 -36 -95 -26 -65 -41
-129 -46 -195 -2 -41 -10 -112 -16 -157 -16 -120 7 -220 76 -323 96 -143 192
-166 266 -64 14 20 35 48 48 64 12 15 22 34 22 42 0 8 25 54 56 101 70 107 89
113 100 30 8 -64 30 -103 87 -153 33 -28 42 -32 64 -24 41 14 49 36 36 96 -12
58 0 256 17 289 6 10 10 38 10 63 0 25 5 48 10 51 6 3 10 18 10 33 0 15 7 48
15 75 44 137 44 141 35 189 -12 62 -52 120 -95 141 -50 24 -74 22 -85 -9z"/>
<path d="M535 3830 c-12 -20 6 -51 28 -48 31 4 31 52 0 56 -11 2 -24 -2 -28
-8z"/>
<path d="M57 3804 c-8 -8 1 -24 14 -24 5 0 9 7 9 15 0 15 -12 20 -23 9z"/>
<path d="M304 3795 c-4 -9 -2 -21 3 -26 14 -14 45 1 41 20 -4 22 -37 26 -44 6z"/>
<path d="M7134 3786 c-8 -20 -1 -49 12 -53 17 -6 46 26 42 46 -4 21 -46 27
-54 7z"/>
<path d="M7376 3792 c-9 -15 12 -35 29 -28 14 5 15 9 5 21 -14 17 -26 19 -34
7z"/>
<path d="M440 3775 c-10 -13 -10 -19 5 -35 10 -11 24 -20 31 -20 15 0 29 43
19 59 -9 16 -41 13 -55 -4z"/>
<path d="M4780 3767 c-14 -8 -35 -20 -47 -27 -18 -12 -29 -11 -76 5 -51 17
-57 17 -80 2 -22 -14 -137 -201 -137 -223 0 -5 -15 -34 -33 -64 -70 -118 -96
-354 -49 -450 41 -84 125 -173 192 -203 65 -30 136 -27 197 8 167 98 423 458
423 596 0 23 -9 73 -20 111 -37 123 -169 238 -290 252 -37 4 -64 1 -80 -7z
m220 -167 c33 -17 40 -26 40 -49 0 -63 -71 -200 -178 -341 -46 -61 -159 -180
-171 -180 -6 0 -33 -13 -60 -29 -59 -35 -111 -47 -139 -32 -18 10 -20 19 -17
73 6 94 14 135 46 233 36 109 43 124 92 198 48 73 79 94 113 78 33 -15 54 -14
73 3 27 24 115 65 139 66 12 0 41 -9 62 -20z"/>
<path d="M7250 3754 c-11 -12 -11 -18 1 -30 13 -12 18 -12 34 0 16 12 17 16 6
30 -17 20 -25 20 -41 0z"/>
<path d="M7484 3749 c-10 -17 13 -36 27 -22 12 12 4 33 -11 33 -5 0 -12 -5
-16 -11z"/>
<path d="M212 3733 c4 -21 33 -25 33 -3 0 8 -8 16 -18 18 -14 3 -18 -1 -15
-15z"/>
<path d="M534 3726 c-10 -26 1 -51 23 -54 28 -4 50 32 32 54 -15 18 -48 18
-55 0z"/>
<path d="M330 3689 c-10 -17 -9 -23 1 -30 18 -11 51 9 47 29 -5 25 -35 26 -48
1z"/>
<path d="M7124 3665 c-8 -21 2 -45 19 -45 20 0 40 27 33 45 -7 19 -45 20 -52
0z"/>
<path d="M7332 3648 c2 -15 10 -23 23 -23 30 0 27 39 -3 43 -20 3 -23 0 -20
-20z"/>
<path d="M413 3644 c-3 -8 2 -23 11 -32 14 -15 18 -15 31 -1 9 9 13 23 9 32
-8 21 -43 22 -51 1z"/>
<path d="M7257 3654 c-14 -15 -6 -34 14 -34 14 0 19 5 17 17 -3 18 -20 27 -31
17z"/>
<path d="M154 3639 c-8 -14 11 -33 25 -25 11 7 4 36 -9 36 -5 0 -12 -5 -16
-11z"/>
<path d="M539 3609 c-12 -23 -4 -35 25 -41 22 -4 42 23 33 46 -9 23 -44 20
-58 -5z"/>
<path d="M290 3595 c0 -18 24 -30 39 -21 16 10 1 36 -20 36 -10 0 -19 -7 -19
-15z"/>
<path d="M7472 3583 c2 -10 10 -18 18 -18 8 0 16 8 18 18 2 12 -3 17 -18 17
-15 0 -20 -5 -18 -17z"/>
<path d="M7122 3568 c-24 -24 -9 -54 21 -42 21 8 30 36 15 46 -17 10 -22 10
-36 -4z"/>
<path d="M430 3535 c-16 -19 -5 -47 17 -43 11 2 18 12 18 27 0 29 -17 37 -35
16z"/>
<path d="M7205 3524 c-19 -19 -19 -19 1 -39 19 -18 44 -4 44 25 0 24 -26 32
-45 14z"/>
<path d="M7336 3523 c-3 -3 -6 -15 -6 -25 0 -22 35 -25 44 -3 5 15 -26 39 -38
28z"/>
<path d="M180 3500 c0 -15 5 -20 18 -18 9 2 17 10 17 18 0 8 -8 16 -17 18 -13
2 -18 -3 -18 -18z"/>
<path d="M540 3505 c-21 -25 -8 -50 28 -53 28 -3 32 0 32 20 0 42 -36 62 -60
33z"/>
<path d="M7105 3471 c-3 -6 -1 -20 5 -31 9 -17 14 -18 31 -9 11 5 19 18 17 27
-4 19 -43 29 -53 13z"/>
<path d="M115 3460 c3 -5 8 -10 11 -10 2 0 4 5 4 10 0 6 -5 10 -11 10 -5 0 -7
-4 -4 -10z"/>
<path d="M7440 3455 c0 -8 7 -15 15 -15 8 0 15 7 15 15 0 8 -7 15 -15 15 -8 0
-15 -7 -15 -15z"/>
<path d="M314 3446 c-4 -10 -2 -22 4 -28 8 -8 13 -7 18 6 4 10 2 22 -4 28 -8
8 -13 7 -18 -6z"/>
<path d="M452 3418 c-16 -16 -15 -33 4 -48 22 -19 54 12 38 37 -14 22 -27 26
-42 11z"/>
<path d="M7245 3411 c-7 -12 12 -24 25 -16 11 7 4 25 -10 25 -5 0 -11 -4 -15
-9z"/>
<path d="M553 3399 c-18 -18 3 -49 33 -49 22 0 25 4 22 28 -3 30 -34 42 -55
21z"/>
<path d="M7635 3400 c3 -5 8 -10 11 -10 2 0 4 5 4 10 0 6 -5 10 -11 10 -5 0
-7 -4 -4 -10z"/>
<path d="M350 3355 c-20 -24 4 -45 26 -24 13 14 13 17 1 27 -11 10 -17 9 -27
-3z"/>
<path d="M7084 3346 c-7 -19 14 -58 28 -54 19 7 32 34 25 52 -8 20 -46 21 -53
2z"/>
<path d="M7450 3334 c-9 -10 -10 -18 -2 -26 12 -12 32 -2 32 17 0 21 -16 26
-30 9z"/>
<path d="M7300 3311 c0 -21 26 -36 36 -20 9 15 -3 39 -21 39 -8 0 -15 -9 -15
-19z"/>
<path d="M7177 3296 c-3 -8 1 -22 8 -33 13 -17 15 -17 31 -1 14 14 15 20 4 32
-16 20 -36 20 -43 2z"/>
<path d="M473 3283 c-7 -2 -13 -13 -13 -24 0 -13 7 -19 24 -19 27 0 40 22 23
39 -12 12 -15 12 -34 4z"/>
<path d="M574 3275 c-10 -25 4 -45 31 -45 30 0 43 24 25 45 -16 19 -49 19 -56
0z"/>
<path d="M7070 3239 c-16 -29 -5 -49 25 -49 20 0 25 5 25 25 0 14 -8 29 -20
35 -15 8 -21 6 -30 -11z"/>
<path d="M7568 3243 c7 -3 16 -2 19 1 4 3 -2 6 -13 5 -11 0 -14 -3 -6 -6z"/>
<path d="M364 3225 c-7 -18 12 -45 32 -45 17 0 18 32 2 48 -16 16 -27 15 -34
-3z"/>
<path d="M7380 3195 c0 -8 7 -15 15 -15 8 0 15 7 15 15 0 8 -7 15 -15 15 -8 0
-15 -7 -15 -15z"/>
<path d="M7160 3184 c-11 -12 -10 -18 3 -32 16 -15 18 -15 33 0 19 18 12 48
-9 48 -8 0 -20 -7 -27 -16z"/>
<path d="M237 3174 c-4 -4 -7 -16 -7 -26 0 -20 25 -25 36 -7 8 13 -19 43 -29
33z"/>
<path d="M484 3166 c-8 -21 3 -36 27 -36 15 0 20 6 17 22 -4 27 -35 37 -44 14z"/>
<path d="M601 3167 c-18 -23 -2 -49 28 -45 20 2 26 8 26 28 0 29 -34 40 -54
17z"/>
<path d="M7282 3143 c2 -10 10 -18 18 -18 8 0 16 8 18 18 2 12 -3 17 -18 17
-15 0 -20 -5 -18 -17z"/>
<path d="M7067 3143 c-11 -10 -8 -41 4 -48 5 -4 19 1 30 11 19 17 19 19 3 31
-20 15 -28 16 -37 6z"/>
<path d="M7456 3112 c-3 -6 -1 -14 5 -17 15 -10 25 3 12 16 -7 7 -13 7 -17 1z"/>
<path d="M399 3079 c-9 -17 -8 -25 6 -38 15 -15 17 -15 30 3 10 13 11 24 4 37
-13 25 -26 24 -40 -2z"/>
<path d="M491 3061 c-12 -21 -5 -31 20 -31 24 0 33 18 19 35 -17 20 -27 19
-39 -4z"/>
<path d="M612 3043 c2 -22 9 -29 29 -31 18 -2 29 3 33 14 9 23 -11 44 -41 44
-21 0 -24 -4 -21 -27z"/>
<path d="M7145 3050 c-10 -17 20 -44 40 -36 9 3 15 14 13 23 -4 21 -43 30 -53
13z"/>
<path d="M7020 3025 c-17 -21 -5 -45 24 -45 31 0 40 23 17 44 -22 20 -25 20
-41 1z"/>
<path d="M7396 3011 c-4 -5 -2 -12 3 -15 5 -4 12 -2 15 3 4 5 2 12 -3 15 -5 4
-12 2 -15 -3z"/>
<path d="M400 2985 c0 -9 5 -15 11 -13 6 2 11 8 11 13 0 5 -5 11 -11 13 -6 2
-11 -4 -11 -13z"/>
<path d="M7274 2966 c-8 -21 3 -36 27 -36 15 0 20 6 17 22 -4 27 -35 37 -44
14z"/>
<path d="M542 2948 c-17 -17 -15 -45 3 -52 23 -9 47 22 35 45 -12 22 -21 24
-38 7z"/>
<path d="M650 2945 c-14 -17 -7 -45 12 -45 26 0 40 17 33 39 -7 25 -27 27 -45
6z"/>
<path d="M7114 2945 c-4 -9 -2 -21 4 -27 15 -15 44 -1 40 19 -4 23 -36 29 -44
8z"/>
<path d="M6980 2875 c0 -31 26 -43 47 -22 21 21 9 47 -22 47 -20 0 -25 -5 -25
-25z"/>
<path d="M7083 2854 c-6 -16 15 -37 29 -28 4 3 8 14 8 25 0 23 -28 26 -37 3z"/>
<path d="M690 2845 c-10 -12 -10 -18 0 -30 17 -20 56 -19 64 1 14 36 -39 59
-64 29z"/>
<path d="M425 2829 c-9 -28 14 -44 34 -24 12 11 12 17 1 29 -17 22 -27 20 -35
-5z"/>
<path d="M573 2833 c-18 -6 -16 -40 1 -46 22 -9 38 16 23 35 -6 9 -18 14 -24
11z"/>
<path d="M7237 2834 c-9 -10 2 -24 19 -24 8 0 14 7 14 15 0 15 -21 21 -33 9z"/>
<path d="M6950 2777 c0 -26 27 -44 43 -28 15 15 3 46 -21 49 -18 3 -22 -1 -22
-21z"/>
<path d="M7077 2754 c-4 -4 -7 -16 -7 -26 0 -14 6 -19 23 -16 14 2 22 10 22
23 0 20 -25 32 -38 19z"/>
<path d="M749 2729 c-14 -28 1 -44 35 -35 28 7 33 25 14 44 -18 18 -36 15 -49
-9z"/>
<path d="M483 2724 c-8 -21 13 -42 28 -27 13 13 5 43 -11 43 -6 0 -13 -7 -17
-16z"/>
<path d="M637 2723 c-10 -10 -8 -51 2 -58 10 -5 41 20 41 34 0 9 -22 31 -30
31 -4 0 -10 -3 -13 -7z"/>
<path d="M7214 2709 c-8 -14 11 -33 25 -25 6 4 11 14 11 22 0 16 -26 19 -36 3z"/>
<path d="M6915 2669 c-14 -42 44 -63 59 -22 4 9 1 22 -5 29 -17 21 -47 17 -54
-7z"/>
<path d="M783 2644 c-3 -8 2 -23 11 -32 14 -15 18 -15 31 -1 9 9 13 23 9 32
-8 21 -43 22 -51 1z"/>
<path d="M392 2631 c4 -13 18 -16 19 -4 0 4 -5 9 -11 12 -7 2 -11 -2 -8 -8z"/>
<path d="M661 2631 c-16 -10 -7 -47 14 -54 22 -9 38 18 25 42 -12 23 -18 25
-39 12z"/>
<path d="M7274 2619 c-8 -14 11 -33 25 -25 6 4 11 11 11 16 0 13 -29 20 -36 9z"/>
<path d="M7046 2611 c-3 -5 0 -13 7 -19 15 -13 42 1 33 17 -9 13 -33 15 -40 2z"/>
<path d="M510 2595 c0 -8 7 -15 15 -15 8 0 15 7 15 15 0 8 -7 15 -15 15 -8 0
-15 -7 -15 -15z"/>
<path d="M451 2571 c-10 -7 -10 -10 -1 -16 6 -4 16 -3 22 3 13 13 -4 23 -21
13z"/>
<path d="M6882 2568 c-16 -16 -15 -33 2 -47 18 -15 46 -3 46 20 0 24 -33 42
-48 27z"/>
<path d="M805 2544 c-19 -20 -19 -29 1 -49 16 -15 18 -15 36 2 20 20 16 48 -7
57 -8 3 -21 -2 -30 -10z"/>
<path d="M7090 2515 c0 -18 5 -25 19 -25 26 0 36 17 21 35 -19 23 -40 18 -40
-10z"/>
<path d="M6977 2523 c-10 -9 -8 -43 2 -43 5 0 14 6 20 14 8 10 8 16 -2 25 -8
6 -17 8 -20 4z"/>
<path d="M536 2511 c-8 -13 20 -45 32 -37 20 12 14 46 -7 46 -11 0 -22 -4 -25
-9z"/>
<path d="M686 2494 c-9 -22 17 -49 39 -40 10 3 15 15 13 28 -4 29 -42 37 -52
12z"/>
<path d="M6834 2465 c-8 -20 4 -35 26 -35 25 0 35 17 20 35 -16 19 -39 19 -46
0z"/>
<path d="M840 2435 c-7 -8 -10 -22 -6 -30 7 -20 55 -20 62 0 7 17 -12 45 -31
45 -7 0 -18 -7 -25 -15z"/>
<path d="M435 2430 c-7 -12 2 -30 16 -30 5 0 9 9 9 20 0 21 -15 27 -25 10z"/>
<path d="M583 2414 c-7 -18 17 -38 31 -24 11 11 1 40 -14 40 -6 0 -13 -7 -17
-16z"/>
<path d="M6961 2416 c-16 -19 -7 -46 14 -46 22 0 30 29 13 46 -13 13 -16 13
-27 0z"/>
<path d="M7071 2396 c-13 -15 -4 -26 21 -26 21 0 24 25 4 33 -8 3 -19 0 -25
-7z"/>
<path d="M7224 2399 c-10 -17 13 -36 27 -22 12 12 4 33 -11 33 -5 0 -12 -5
-16 -11z"/>
<path d="M735 2390 c-8 -14 3 -30 21 -30 8 0 14 9 14 20 0 21 -24 28 -35 10z"/>
<path d="M6796 2374 c-8 -20 11 -44 34 -44 23 0 34 28 19 46 -16 19 -45 18
-53 -2z"/>
<path d="M886 2345 c-22 -23 -20 -34 9 -47 21 -10 29 -9 43 5 13 13 14 21 6
35 -15 23 -38 26 -58 7z"/>
<path d="M677 2313 c-11 -10 -8 -41 4 -49 16 -9 43 21 36 40 -7 16 -28 21 -40
9z"/>
<path d="M772 2303 c-13 -24 -4 -43 19 -43 23 0 26 32 5 49 -12 10 -17 9 -24
-6z"/>
<path d="M6860 2290 c-14 -26 -1 -44 26 -38 13 2 19 12 19 28 0 32 -30 38 -45
10z"/>
<path d="M562 2289 c2 -6 8 -10 13 -10 5 0 11 4 13 10 2 6 -4 11 -13 11 -9 0
-15 -5 -13 -11z"/>
<path d="M6737 2294 c-11 -11 -8 -52 3 -59 6 -3 19 -3 31 0 28 9 23 59 -6 63
-12 2 -24 0 -28 -4z"/>
<path d="M7106 2271 c-3 -4 0 -16 7 -25 12 -16 14 -16 26 -2 7 8 10 20 6 26
-8 12 -32 13 -39 1z"/>
<path d="M7021 2254 c0 -11 3 -14 6 -6 3 7 2 16 -1 19 -3 4 -6 -2 -5 -13z"/>
<path d="M941 2242 c-8 -15 -7 -23 4 -32 23 -19 50 -8 50 20 0 32 -39 41 -54
12z"/>
<path d="M823 2214 c-3 -8 2 -23 11 -32 15 -15 17 -15 33 0 13 14 14 20 3 32
-16 20 -39 20 -47 0z"/>
<path d="M475 2190 c-4 -6 -3 -16 3 -22 6 -6 12 -6 17 2 4 6 3 16 -3 22 -6 6
-12 6 -17 -2z"/>
<path d="M6694 2185 c-8 -19 13 -45 36 -45 23 0 34 28 19 46 -15 19 -48 18
-55 -1z"/>
<path d="M726 2175 c-3 -9 1 -18 10 -22 19 -7 28 2 21 22 -8 19 -23 19 -31 0z"/>
<path d="M6827 2183 c-12 -12 -7 -31 9 -37 21 -8 45 11 37 30 -5 14 -34 19
-46 7z"/>
<path d="M6940 2171 c0 -21 26 -36 36 -20 9 15 -3 39 -21 39 -8 0 -15 -9 -15
-19z"/>
<path d="M1007 2174 c-4 -4 -7 -16 -7 -26 0 -13 7 -18 26 -18 21 0 25 4 22 22
-3 23 -27 35 -41 22z"/>
<path d="M893 2133 c-7 -3 -13 -13 -13 -24 0 -13 7 -19 24 -19 14 0 27 4 30 9
8 12 -26 39 -41 34z"/>
<path d="M1066 2095 c-22 -16 -18 -48 7 -53 21 -4 47 15 47 34 0 22 -33 34
-54 19z"/>
<path d="M6754 2096 c-9 -24 4 -48 23 -44 12 2 18 12 18 28 0 29 -32 41 -41
16z"/>
<path d="M670 2085 c0 -8 7 -15 15 -15 8 0 15 7 15 15 0 8 -7 15 -15 15 -8 0
-15 -7 -15 -15z"/>
<path d="M6625 2069 c-8 -23 9 -41 35 -36 20 3 26 37 8 48 -22 14 -36 10 -43
-12z"/>
<path d="M782 2058 c2 -15 11 -24 26 -26 24 -4 30 16 10 36 -20 20 -40 14 -36
-10z"/>
<path d="M6894 2066 c-9 -24 4 -48 23 -44 12 2 18 12 18 28 0 29 -32 41 -41
16z"/>
<path d="M924 2026 c-3 -8 -4 -23 -2 -33 5 -25 51 -25 56 0 7 36 -42 65 -54
33z"/>
<path d="M1116 2015 c-17 -18 -12 -41 14 -55 27 -14 56 21 40 49 -13 25 -33
27 -54 6z"/>
<path d="M635 2011 c-6 -11 9 -23 19 -14 9 9 7 23 -3 23 -6 0 -12 -4 -16 -9z"/>
<path d="M6684 2005 c-9 -23 3 -45 26 -45 25 0 37 25 20 45 -16 19 -39 19 -46
0z"/>
<path d="M6834 1985 c-7 -18 3 -35 21 -35 21 0 28 19 15 35 -16 19 -29 19 -36
0z"/>
<path d="M6573 1979 c-16 -16 -5 -39 17 -39 25 0 35 18 20 35 -15 18 -22 19
-37 4z"/>
<path d="M822 1948 c-7 -7 -12 -17 -12 -24 0 -19 32 -26 48 -10 13 12 13 18 2
30 -15 19 -22 20 -38 4z"/>
<path d="M7115 1950 c-11 -17 5 -32 21 -19 7 6 11 15 8 20 -7 12 -21 11 -29
-1z"/>
<path d="M997 1943 c-13 -12 -7 -44 8 -50 20 -7 55 24 48 43 -5 14 -44 19 -56
7z"/>
<path d="M716 1931 c-10 -16 5 -41 25 -41 21 0 25 20 7 38 -14 14 -25 15 -32
3z"/>
<path d="M6962 1931 c2 -7 7 -12 11 -12 12 1 9 15 -3 20 -7 2 -11 -2 -8 -8z"/>
<path d="M1181 1902 c-14 -27 8 -55 40 -50 19 2 24 9 24 33 0 25 -4 31 -27 33
-18 2 -30 -3 -37 -16z"/>
<path d="M6760 1885 c-13 -16 -6 -35 15 -35 16 0 38 34 28 44 -11 10 -30 7
-43 -9z"/>
<path d="M6637 1883 c-11 -10 -8 -41 4 -49 16 -9 43 21 36 40 -7 16 -28 21
-40 9z"/>
<path d="M6497 1874 c-12 -12 -8 -41 9 -54 22 -19 54 12 38 38 -12 19 -36 27
-47 16z"/>
<path d="M930 1854 c-18 -20 6 -50 26 -33 8 6 14 17 14 24 0 19 -27 26 -40 9z"/>
<path d="M7030 1844 c0 -9 5 -14 12 -12 18 6 21 28 4 28 -9 0 -16 -7 -16 -16z"/>
<path d="M1040 1835 c-16 -19 -6 -45 18 -45 29 0 48 26 32 45 -16 19 -34 19
-50 0z"/>
<path d="M6883 1815 c-3 -9 -3 -18 0 -21 9 -9 27 6 27 22 0 19 -19 18 -27 -1z"/>
<path d="M1230 1795 c-14 -17 -4 -55 15 -55 14 0 45 26 45 39 0 11 -23 31 -36
31 -6 0 -17 -7 -24 -15z"/>
<path d="M6430 1776 c0 -21 5 -26 26 -26 21 0 25 4 22 23 -2 14 -11 23 -25 25
-19 3 -23 -1 -23 -22z"/>
<path d="M973 1754 c-8 -21 19 -46 40 -38 21 8 22 40 1 48 -25 9 -34 7 -41
-10z"/>
<path d="M6580 1756 c0 -10 9 -16 21 -16 24 0 21 23 -4 28 -10 2 -17 -3 -17
-12z"/>
<path d="M1131 1746 c-16 -19 -7 -46 14 -46 22 0 30 29 13 46 -13 13 -16 13
-27 0z"/>
<path d="M855 1730 c-11 -17 5 -32 21 -19 7 6 11 15 8 20 -7 12 -21 11 -29 -1z"/>
<path d="M1338 1729 c-10 -5 -18 -21 -18 -34 0 -20 5 -25 25 -25 29 0 47 28
34 53 -11 19 -17 20 -41 6z"/>
<path d="M702 1713 c2 -10 10 -18 18 -18 22 0 18 29 -3 33 -14 3 -18 -1 -15
-15z"/>
<path d="M6354 1705 c-8 -21 3 -45 20 -45 22 0 28 17 16 40 -13 24 -28 26 -36
5z"/>
<path d="M6486 1711 c-3 -4 0 -16 7 -26 13 -16 14 -16 30 0 10 9 15 21 12 26
-8 11 -42 12 -49 0z"/>
<path d="M6777 1714 c-8 -8 1 -24 14 -24 5 0 9 7 9 15 0 15 -12 20 -23 9z"/>
<path d="M6670 1681 c0 -6 5 -13 10 -16 6 -3 10 1 10 9 0 9 -4 16 -10 16 -5 0
-10 -4 -10 -9z"/>
<path d="M6961 1674 c0 -11 3 -14 6 -6 3 7 2 16 -1 19 -3 4 -6 -2 -5 -13z"/>
<path d="M1067 1674 c-12 -12 -8 -42 6 -47 21 -8 39 8 35 29 -3 19 -29 30 -41
18z"/>
<path d="M1206 1664 c-8 -21 11 -44 35 -44 19 0 35 33 24 50 -10 16 -52 12
-59 -6z"/>
<path d="M923 1644 c-8 -21 13 -42 28 -27 13 13 5 43 -11 43 -6 0 -13 -7 -17
-16z"/>
<path d="M1389 1639 c-9 -17 -8 -24 4 -36 12 -12 19 -13 36 -4 25 14 28 46 5
55 -25 10 -33 7 -45 -15z"/>
<path d="M6291 1637 c-20 -20 -13 -47 13 -47 28 0 39 11 30 33 -8 21 -29 28
-43 14z"/>
<path d="M6416 1643 c-10 -10 -7 -51 4 -58 13 -8 40 13 40 31 0 15 -34 36 -44
27z"/>
<path d="M834 1599 c-9 -16 12 -33 31 -25 14 5 15 9 5 21 -15 18 -26 19 -36 4z"/>
<path d="M6564 1575 c-4 -9 -2 -21 4 -27 15 -15 44 -1 40 19 -4 23 -36 29 -44
8z"/>
<path d="M1012 1568 c-20 -20 -14 -38 13 -38 27 0 33 21 12 39 -10 8 -17 7
-25 -1z"/>
<path d="M1140 1564 c-11 -13 -10 -18 7 -35 19 -19 21 -19 37 -4 16 16 16 19
0 36 -21 23 -28 24 -44 3z"/>
<path d="M1287 1567 c-8 -21 8 -39 29 -35 27 5 25 42 -2 46 -12 2 -24 -3 -27
-11z"/>
<path d="M6210 1565 c-14 -17 -7 -43 15 -52 26 -10 40 12 27 42 -13 29 -24 31
-42 10z"/>
<path d="M1477 1563 c-14 -13 -6 -53 11 -62 22 -11 42 3 42 29 0 29 -36 51
-53 33z"/>
<path d="M6341 1536 c-9 -11 -8 -17 5 -31 19 -19 38 -7 32 21 -4 23 -22 28
-37 10z"/>
<path d="M6657 1536 c-3 -8 0 -17 8 -19 15 -7 25 1 25 20 0 17 -26 17 -33 -1z"/>
<path d="M1350 1506 c-18 -22 -5 -48 22 -44 17 2 23 10 23 28 0 29 -26 38 -45
16z"/>
<path d="M6451 1481 c-15 -27 9 -46 34 -27 16 12 17 16 6 30 -18 21 -28 20
-40 -3z"/>
<path d="M736 1475 c4 -8 8 -15 10 -15 2 0 4 7 4 15 0 8 -4 15 -10 15 -5 0 -7
-7 -4 -15z"/>
<path d="M1552 1478 c-16 -16 -15 -33 2 -47 10 -9 19 -7 37 8 20 16 21 21 10
35 -16 19 -33 20 -49 4z"/>
<path d="M1079 1444 c-9 -11 -9 -18 -1 -26 14 -14 42 -3 42 16 0 20 -27 27
-41 10z"/>
<path d="M1231 1442 c-17 -32 21 -56 47 -30 9 9 8 16 -5 30 -20 23 -30 23 -42
0z"/>
<path d="M6124 1445 c-7 -18 12 -45 31 -45 18 0 24 21 13 43 -11 21 -37 22
-44 2z"/>
<path d="M6294 1445 c-9 -23 3 -45 26 -45 25 0 37 25 20 45 -16 19 -39 19 -46
0z"/>
<path d="M6616 1443 c-11 -11 -6 -23 9 -23 8 0 15 4 15 9 0 13 -16 22 -24 14z"/>
<path d="M935 1431 c-8 -15 3 -31 21 -31 9 0 14 7 12 17 -4 20 -24 28 -33 14z"/>
<path d="M6402 1431 c-20 -12 -10 -46 13 -46 14 0 20 7 20 24 0 27 -13 35 -33
22z"/>
<path d="M1452 1418 c-31 -31 0 -69 35 -43 14 11 16 18 7 31 -14 23 -27 27
-42 12z"/>
<path d="M1610 1379 c-13 -23 1 -49 26 -49 21 0 38 38 23 56 -16 20 -36 17
-49 -7z"/>
<path d="M6052 1383 c-5 -10 -7 -24 -5 -30 7 -18 40 -16 47 3 8 22 8 22 -14
34 -15 8 -21 7 -28 -7z"/>
<path d="M1310 1352 c0 -24 8 -32 26 -25 22 8 17 43 -6 43 -13 0 -20 -7 -20
-18z"/>
<path d="M1700 1345 c-15 -19 -4 -52 21 -60 38 -12 65 35 37 63 -16 16 -43 15
-58 -3z"/>
<path d="M6196 1345 c-12 -13 -13 -21 -6 -36 9 -16 15 -17 31 -8 13 6 19 18
17 31 -4 28 -22 33 -42 13z"/>
<path d="M1155 1330 c-3 -6 1 -13 10 -16 19 -8 30 0 20 15 -8 14 -22 14 -30 1z"/>
<path d="M6515 1330 c-11 -17 5 -32 21 -19 7 6 11 15 8 20 -7 12 -21 11 -29
-1z"/>
<path d="M6636 1331 c-4 -5 -2 -12 3 -15 5 -4 12 -2 15 3 4 5 2 12 -3 15 -5 4
-12 2 -15 -3z"/>
<path d="M1496 1313 c-4 -9 0 -23 9 -32 13 -14 17 -14 31 1 9 9 14 24 11 32
-8 21 -43 20 -51 -1z"/>
<path d="M5973 1314 c-3 -8 -1 -20 5 -26 16 -16 42 -2 42 22 0 24 -38 28 -47
4z"/>
<path d="M1383 1295 c-3 -9 -3 -18 0 -21 9 -9 27 6 27 22 0 19 -19 18 -27 -1z"/>
<path d="M6091 1297 c-15 -15 -14 -32 2 -46 19 -15 50 8 42 31 -9 22 -30 29
-44 15z"/>
<path d="M6335 1289 c-10 -15 3 -25 16 -12 7 7 7 13 1 17 -6 3 -14 1 -17 -5z"/>
<path d="M1796 1274 c-12 -12 -13 -20 -6 -35 13 -23 29 -24 55 -5 19 14 19 15
1 35 -23 25 -30 26 -50 5z"/>
<path d="M1070 1255 c0 -9 5 -15 11 -13 6 2 11 8 11 13 0 5 -5 11 -11 13 -6 2
-11 -4 -11 -13z"/>
<path d="M1260 1250 c0 -11 6 -20 13 -20 19 0 27 10 20 26 -8 21 -33 17 -33
-6z"/>
<path d="M6416 1251 c-4 -5 -2 -12 3 -15 5 -4 12 -2 15 3 4 5 2 12 -3 15 -5 4
-12 2 -15 -3z"/>
<path d="M1595 1240 c-12 -20 4 -60 24 -60 28 0 47 28 34 48 -12 20 -48 28
-58 12z"/>
<path d="M5870 1236 c-18 -22 -5 -48 22 -44 17 2 23 10 23 28 0 29 -26 38 -45
16z"/>
<path d="M6226 1213 c-4 -9 -1 -23 7 -30 12 -12 16 -12 26 1 16 19 8 46 -13
46 -7 0 -17 -8 -20 -17z"/>
<path d="M6536 1211 c-4 -5 -2 -12 3 -15 5 -4 12 -2 15 3 4 5 2 12 -3 15 -5 4
-12 2 -15 -3z"/>
<path d="M1453 1194 c-3 -8 -1 -20 5 -26 16 -16 42 -2 42 22 0 24 -38 28 -47
4z"/>
<path d="M1890 1180 c-8 -15 -6 -24 10 -40 23 -23 52 -15 64 16 15 40 -54 62
-74 24z"/>
<path d="M6026 1184 c-8 -21 1 -34 24 -34 25 0 35 17 20 35 -16 20 -36 19 -44
-1z"/>
<path d="M5782 1178 c-29 -29 9 -69 42 -45 15 11 15 14 1 35 -18 25 -26 27
-43 10z"/>
<path d="M6151 1180 c-17 -10 -7 -40 13 -40 7 0 16 6 19 14 8 19 -15 37 -32
26z"/>
<path d="M6311 1176 c-8 -10 -8 -16 2 -24 17 -14 42 2 34 22 -8 20 -21 20 -36
2z"/>
<path d="M1713 1173 c-18 -6 -16 -38 2 -53 20 -16 45 -6 45 19 0 22 -27 41
-47 34z"/>
<path d="M5934 1126 c-8 -22 2 -46 21 -46 19 0 20 34 0 50 -12 10 -16 9 -21
-4z"/>
<path d="M1140 1114 c0 -9 7 -14 17 -12 25 5 28 28 4 28 -12 0 -21 -6 -21 -16z"/>
<path d="M1344 1119 c-3 -6 -2 -15 4 -21 13 -13 32 -2 32 18 0 16 -26 19 -36
3z"/>
<path d="M1534 1115 c-4 -9 -2 -21 4 -27 15 -15 44 -1 40 19 -4 23 -36 29 -44
8z"/>
<path d="M1973 1114 c-8 -22 10 -49 32 -49 22 0 40 27 32 49 -8 21 -56 21 -64
0z"/>
<path d="M1794 1105 c-7 -17 12 -45 31 -45 7 0 18 7 25 15 10 12 10 18 0 30
-16 19 -49 19 -56 0z"/>
<path d="M5693 1103 c-18 -7 -16 -38 3 -53 12 -11 18 -10 32 4 25 25 -2 63
-35 49z"/>
<path d="M6040 1085 c-15 -18 -6 -45 15 -45 16 0 36 39 28 53 -7 12 -30 8 -43
-8z"/>
<path d="M6290 1080 c0 -11 7 -20 15 -20 8 0 15 9 15 20 0 11 -7 20 -15 20 -8
0 -15 -9 -15 -20z"/>
<path d="M1460 1066 c0 -7 6 -19 14 -25 12 -10 17 -8 25 7 6 11 7 22 4 26 -12
11 -43 6 -43 -8z"/>
<path d="M1880 1049 c-13 -24 2 -49 31 -49 22 0 35 36 19 55 -17 21 -37 19
-50 -6z"/>
<path d="M2071 1046 c-26 -31 14 -71 45 -45 21 17 14 53 -12 57 -11 2 -26 -4
-33 -12z"/>
<path d="M5841 1042 c-8 -15 -7 -23 4 -32 19 -15 57 5 53 28 -5 25 -44 27 -57
4z"/>
<path d="M1654 1035 c-8 -19 3 -35 26 -35 19 0 30 17 23 38 -6 17 -42 15 -49
-3z"/>
<path d="M5612 1041 c-23 -14 -10 -46 18 -46 20 0 25 5 25 25 0 26 -20 36 -43
21z"/>
<path d="M6157 1023 c-4 -3 -7 -12 -7 -20 0 -15 26 -18 34 -4 7 11 -18 33 -27
24z"/>
<path d="M1554 1005 c-8 -21 10 -39 30 -32 22 9 20 24 -4 37 -16 9 -22 8 -26
-5z"/>
<path d="M5730 990 c-19 -36 14 -56 40 -25 10 12 10 18 0 30 -17 20 -27 19
-40 -5z"/>
<path d="M1741 986 c-16 -19 -6 -36 20 -36 15 0 20 6 17 22 -4 27 -21 33 -37
14z"/>
<path d="M2172 988 c-15 -15 -15 -41 0 -56 15 -15 48 3 48 26 0 17 -18 42 -30
42 -3 0 -11 -5 -18 -12z"/>
<path d="M5504 975 c-8 -19 3 -35 26 -35 22 0 33 23 17 39 -15 15 -37 14 -43
-4z"/>
<path d="M2000 966 c0 -7 7 -19 15 -26 19 -16 41 1 32 24 -8 20 -47 21 -47 2z"/>
<path d="M5934 969 c-9 -15 12 -33 30 -26 9 4 16 13 16 22 0 17 -35 21 -46 4z"/>
<path d="M2262 938 c-35 -35 4 -82 48 -58 34 18 20 70 -20 70 -9 0 -21 -5 -28
-12z"/>
<path d="M1435 930 c-8 -13 4 -32 16 -25 12 8 12 35 0 35 -6 0 -13 -4 -16 -10z"/>
<path d="M5381 927 c-24 -29 17 -70 46 -46 8 7 13 22 11 33 -4 25 -40 33 -57
13z"/>
<path d="M5815 931 c-8 -15 3 -31 21 -31 9 0 14 7 12 17 -4 20 -24 28 -33 14z"/>
<path d="M5637 924 c-10 -10 -9 -42 2 -48 18 -11 42 6 39 28 -3 21 -28 33 -41
20z"/>
<path d="M1876 911 c-8 -13 3 -38 19 -45 22 -8 40 21 25 39 -14 17 -36 20 -44
6z"/>
<path d="M6060 905 c0 -8 7 -15 15 -15 8 0 15 7 15 15 0 8 -7 15 -15 15 -8 0
-15 -7 -15 -15z"/>
<path d="M2092 888 c-16 -16 -15 -33 2 -47 18 -15 44 -4 52 21 10 32 -30 50
-54 26z"/>
<path d="M2356 884 c-12 -12 -13 -20 -6 -35 12 -22 30 -25 48 -7 18 18 15 36
-7 48 -15 7 -23 6 -35 -6z"/>
<path d="M5300 885 c-14 -17 -4 -55 14 -55 25 0 39 27 26 49 -13 25 -23 26
-40 6z"/>
<path d="M6140 881 c-5 -11 -6 -22 -2 -25 14 -8 46 20 38 32 -11 17 -24 15
-36 -7z"/>
<path d="M2190 865 c-16 -19 -6 -45 18 -45 31 0 46 25 27 44 -20 20 -29 20
-45 1z"/>
<path d="M5540 865 c-10 -12 -10 -18 0 -30 21 -25 42 -18 38 12 -4 32 -20 40
-38 18z"/>
<path d="M5724 855 c-7 -18 3 -35 21 -35 15 0 24 19 18 38 -6 17 -32 15 -39
-3z"/>
<path d="M2465 844 c-15 -15 -15 -18 1 -35 20 -23 37 -24 53 -5 9 11 10 20 1
35 -13 25 -33 27 -55 5z"/>
<path d="M1994 835 c-3 -8 -3 -19 1 -25 9 -14 35 6 35 26 0 19 -29 18 -36 -1z"/>
<path d="M1743 824 c-8 -21 13 -42 28 -27 13 13 5 43 -11 43 -6 0 -13 -7 -17
-16z"/>
<path d="M5197 827 c-9 -25 16 -50 42 -42 32 10 25 49 -10 53 -16 2 -29 -3
-32 -11z"/>
<path d="M2281 817 c-8 -10 -7 -18 2 -29 27 -34 67 -26 67 13 0 28 -49 39 -69
16z"/>
<path d="M5425 817 c-23 -17 -14 -47 15 -47 26 0 37 27 18 46 -12 12 -17 12
-33 1z"/>
<path d="M5955 821 c-9 -16 3 -31 26 -31 14 0 19 6 17 17 -4 20 -33 29 -43 14z"/>
<path d="M1632 789 c2 -6 8 -10 13 -10 5 0 11 4 13 10 2 6 -4 11 -13 11 -9 0
-15 -5 -13 -11z"/>
<path d="M2100 785 c-11 -13 -11 -19 3 -33 20 -19 41 -5 35 24 -4 24 -22 28
-38 9z"/>
<path d="M5106 787 c-23 -17 -17 -52 8 -52 29 0 44 31 25 50 -12 13 -18 13
-33 2z"/>
<path d="M1835 780 c-10 -17 12 -37 25 -24 8 8 6 15 -4 23 -10 9 -16 9 -21 1z"/>
<path d="M2554 775 c-15 -39 30 -62 57 -29 11 14 10 18 -6 30 -25 18 -44 18
-51 -1z"/>
<path d="M6101 774 c0 -11 3 -14 6 -6 3 7 2 16 -1 19 -3 4 -6 -2 -5 -13z"/>
<path d="M5637 773 c-14 -13 -6 -33 13 -33 13 0 20 7 20 20 0 19 -20 27 -33
13z"/>
<path d="M2384 755 c-7 -17 12 -45 31 -45 7 0 18 7 25 15 10 12 10 18 0 30
-16 19 -49 19 -56 0z"/>
<path d="M5835 760 c-3 -5 -4 -14 0 -20 8 -13 35 -1 35 16 0 16 -26 19 -35 4z"/>
<path d="M2675 744 c-19 -19 -16 -43 7 -57 20 -13 48 6 48 34 0 28 -35 43 -55
23z"/>
<path d="M5000 740 c-8 -16 -6 -21 11 -31 17 -9 25 -8 37 5 13 12 13 18 2 30
-17 22 -37 20 -50 -4z"/>
<path d="M5327 753 c-13 -12 -7 -41 10 -47 9 -4 23 0 31 8 13 12 13 18 2 30
-13 17 -32 21 -43 9z"/>
<path d="M5515 740 c-8 -13 4 -32 16 -25 12 8 12 35 0 35 -6 0 -13 -4 -16 -10z"/>
<path d="M2216 723 c-10 -26 23 -48 43 -29 12 12 12 18 1 30 -17 21 -36 20
-44 -1z"/>
<path d="M5764 729 c-7 -12 15 -31 28 -23 4 3 8 12 8 20 0 17 -26 19 -36 3z"/>
<path d="M2775 710 c-9 -15 3 -47 22 -54 21 -9 45 13 41 38 -3 23 -51 35 -63
16z"/>
<path d="M4896 707 c-26 -19 -17 -51 17 -55 32 -4 44 16 27 47 -13 24 -20 26
-44 8z"/>
<path d="M5226 701 c-14 -15 -14 -20 -3 -30 17 -13 47 -5 47 14 0 7 -6 18 -13
24 -11 8 -18 6 -31 -8z"/>
<path d="M1894 699 c-9 -15 11 -33 30 -26 9 4 13 13 10 22 -7 17 -30 20 -40 4z"/>
<path d="M2490 685 c-15 -18 -6 -45 13 -45 20 0 40 27 33 45 -7 19 -30 19 -46
0z"/>
<path d="M2894 685 c-7 -17 12 -45 30 -45 23 0 36 22 25 42 -12 22 -47 24 -55
3z"/>
<path d="M5450 679 c-8 -15 -7 -21 4 -25 19 -7 36 3 36 21 0 22 -29 26 -40 4z"/>
<path d="M5875 689 c-10 -15 3 -25 16 -12 7 7 7 13 1 17 -6 3 -14 1 -17 -5z"/>
<path d="M4770 665 c-11 -13 -11 -19 2 -32 22 -22 60 -8 56 20 -4 27 -40 34
-58 12z"/>
<path d="M2080 650 c0 -13 7 -20 18 -20 24 0 32 8 25 26 -8 22 -43 17 -43 -6z"/>
<path d="M2613 663 c-18 -6 -16 -28 2 -43 12 -10 18 -10 30 0 8 7 15 16 15 21
0 12 -33 27 -47 22z"/>
<path d="M2990 649 c-14 -24 2 -49 31 -49 20 0 36 40 24 59 -11 18 -44 12 -55
-10z"/>
<path d="M5120 640 c-8 -15 -6 -21 9 -29 23 -13 45 8 35 33 -8 22 -31 20 -44
-4z"/>
<path d="M4677 635 c-9 -22 3 -46 22 -43 10 2 16 13 16 28 0 28 -29 40 -38 15z"/>
<path d="M2392 631 c-18 -11 -11 -45 10 -49 18 -3 43 32 33 48 -8 12 -25 13
-43 1z"/>
<path d="M3105 619 c-10 -30 18 -58 40 -39 22 18 15 54 -12 58 -15 2 -23 -3
-28 -19z"/>
<path d="M5315 631 c-7 -12 12 -24 25 -16 11 7 4 25 -10 25 -5 0 -11 -4 -15
-9z"/>
<path d="M4590 615 c-18 -21 -5 -47 22 -43 26 3 37 36 16 49 -18 12 -24 11
-38 -6z"/>
<path d="M5004 615 c-18 -13 -18 -15 -2 -31 19 -19 38 -11 38 16 0 26 -14 32
-36 15z"/>
<path d="M2270 604 c0 -17 22 -14 28 4 2 7 -3 12 -12 12 -9 0 -16 -7 -16 -16z"/>
<path d="M2810 595 c-18 -21 -5 -47 22 -43 26 3 37 36 16 49 -18 12 -24 11
-38 -6z"/>
<path d="M4905 596 c-11 -8 -16 -19 -12 -30 9 -22 41 -17 45 8 6 27 -11 38
-33 22z"/>
<path d="M2715 589 c-4 -5 1 -19 11 -30 16 -17 19 -18 32 -5 13 12 13 18 2 30
-14 18 -36 21 -45 5z"/>
<path d="M3214 586 c-11 -28 1 -51 25 -51 32 0 49 28 32 49 -17 20 -50 21 -57
2z"/>
<path d="M4471 581 c-8 -14 -6 -23 10 -37 20 -18 21 -18 35 0 9 13 10 24 3 37
-13 24 -35 24 -48 0z"/>
<path d="M2164 579 c-8 -14 11 -33 25 -25 11 7 4 36 -9 36 -5 0 -12 -5 -16
-11z"/>
<path d="M3340 572 c-29 -23 -21 -52 14 -52 30 0 45 35 24 57 -13 12 -18 11
-38 -5z"/>
<path d="M4775 576 c-21 -15 -15 -43 11 -53 24 -9 44 17 33 45 -10 26 -18 27
-44 8z"/>
<path d="M4363 573 c-15 -6 -17 -49 -3 -58 18 -11 51 15 48 38 -3 22 -22 30
-45 20z"/>
<path d="M2495 560 c-9 -15 4 -50 19 -50 8 0 19 7 26 15 10 12 10 18 0 30 -14
17 -36 20 -45 5z"/>
<path d="M2950 555 c-10 -12 -10 -18 0 -30 17 -20 37 -19 48 3 19 37 -21 60
-48 27z"/>
<path d="M3433 544 c-8 -22 10 -49 33 -49 22 0 31 30 14 50 -16 20 -39 19 -47
-1z"/>
<path d="M3542 548 c-18 -18 -14 -46 7 -58 34 -18 67 30 39 58 -7 7 -17 12
-23 12 -6 0 -16 -5 -23 -12z"/>
<path d="M4237 553 c-12 -11 -7 -40 8 -53 23 -19 59 15 44 41 -10 19 -39 25
-52 12z"/>
<path d="M5194 545 c-3 -8 -3 -19 1 -25 11 -17 35 -11 35 9 0 23 -29 36 -36
16z"/>
<path d="M5370 546 c0 -10 9 -16 21 -16 24 0 21 23 -4 28 -10 2 -17 -3 -17
-12z"/>
<path d="M3682 541 c-21 -13 -11 -55 14 -59 30 -4 48 21 34 47 -11 22 -27 26
-48 12z"/>
<path d="M3792 538 c-29 -29 3 -83 33 -58 8 7 15 21 15 31 0 24 -33 42 -48 27z"/>
<path d="M3891 522 c-6 -11 -6 -24 0 -35 12 -21 23 -22 43 -1 12 12 13 20 6
35 -13 24 -36 25 -49 1z"/>
<path d="M4006 524 c-9 -9 -15 -23 -12 -31 3 -8 6 -17 6 -19 0 -14 31 -1 41
17 9 17 8 24 -4 36 -12 13 -16 12 -31 -3z"/>
<path d="M4110 520 c0 -27 34 -44 50 -25 18 21 5 45 -25 45 -18 0 -25 -5 -25
-20z"/>
<path d="M5665 530 c-3 -5 1 -10 10 -10 9 0 13 5 10 10 -3 6 -8 10 -10 10 -2
0 -7 -4 -10 -10z"/>
<path d="M3041 516 c-17 -20 15 -52 35 -35 19 15 18 35 -2 43 -21 8 -20 8 -33
-8z"/>
<path d="M4660 515 c-15 -18 -5 -35 21 -35 24 0 37 29 18 41 -19 12 -25 11
-39 -6z"/>
<path d="M3143 504 c-3 -8 2 -23 11 -32 15 -15 17 -15 32 0 21 21 11 48 -16
48 -11 0 -23 -7 -27 -16z"/>
<path d="M2600 500 c0 -5 5 -10 10 -10 6 0 10 5 10 10 0 6 -4 10 -10 10 -5 0
-10 -4 -10 -10z"/>
<path d="M4547 482 c-16 -18 -16 -20 1 -35 16 -15 21 -15 38 -3 15 12 17 19 8
32 -15 26 -28 27 -47 6z"/>
<path d="M5011 481 c-12 -21 -5 -31 20 -31 24 0 33 18 19 35 -17 20 -27 19
-39 -4z"/>
<path d="M2095 480 c-4 -6 -3 -16 3 -22 6 -6 12 -6 17 2 4 6 3 16 -3 22 -6 6
-12 6 -17 -2z"/>
<path d="M2353 474 c-5 -14 11 -33 28 -34 18 0 16 31 -2 40 -15 9 -21 7 -26
-6z"/>
<path d="M3260 474 c-11 -12 -10 -18 3 -32 16 -15 18 -15 33 0 19 18 12 48 -9
48 -8 0 -20 -7 -27 -16z"/>
<path d="M4424 476 c-16 -12 -16 -16 -4 -30 17 -21 54 -17 58 6 5 25 -31 41
-54 24z"/>
<path d="M4874 475 c-7 -18 3 -35 21 -35 15 0 24 19 18 38 -6 17 -32 15 -39
-3z"/>
<path d="M2734 465 c-7 -18 3 -35 21 -35 21 0 28 19 15 35 -16 19 -29 19 -36
0z"/>
<path d="M5535 469 c-10 -15 3 -25 16 -12 7 7 7 13 1 17 -6 3 -14 1 -17 -5z"/>
<path d="M3391 456 c-13 -16 -4 -46 14 -46 19 0 38 28 31 45 -7 19 -30 19 -45
1z"/>
<path d="M4306 453 c-4 -9 0 -23 9 -32 13 -14 17 -14 31 1 9 9 14 24 11 32 -8
21 -43 20 -51 -1z"/>
<path d="M1980 444 c0 -8 5 -12 10 -9 6 4 8 11 5 16 -9 14 -15 11 -15 -7z"/>
<path d="M3617 453 c-13 -12 -7 -53 7 -53 20 0 39 27 32 45 -6 15 -28 20 -39
8z"/>
<path d="M2844 439 c-8 -14 11 -33 25 -25 16 10 13 36 -3 36 -8 0 -18 -5 -22
-11z"/>
<path d="M2485 431 c-8 -15 3 -31 21 -31 9 0 14 7 12 17 -4 20 -24 28 -33 14z"/>
<path d="M2973 433 c-16 -6 -17 -39 -2 -49 6 -3 17 0 25 8 12 11 12 17 2 30
-7 9 -19 14 -25 11z"/>
<path d="M3726 425 c-12 -12 -13 -21 -6 -36 13 -23 33 -25 51 -3 9 11 10 20 3
32 -15 23 -29 25 -48 7z"/>
<path d="M4093 424 c-8 -21 13 -42 28 -27 13 13 5 43 -11 43 -6 0 -13 -7 -17
-16z"/>
<path d="M4732 428 c-7 -7 -12 -18 -12 -25 0 -18 29 -16 37 3 8 21 -10 37 -25
22z"/>
<path d="M5150 426 c0 -8 4 -17 8 -20 13 -8 35 11 28 23 -10 16 -36 14 -36 -3z"/>
<path d="M3503 423 c-18 -7 -16 -42 3 -50 22 -8 37 11 29 36 -6 21 -11 23 -32
14z"/>
<path d="M3881 416 c-9 -11 -8 -18 5 -31 15 -15 19 -15 32 -1 17 17 10 46 -11
46 -8 0 -20 -6 -26 -14z"/>
<path d="M4212 418 c-13 -13 2 -38 23 -38 18 0 26 25 12 39 -14 14 -20 14 -35
-1z"/>
<path d="M3973 413 c-18 -6 -16 -38 3 -53 12 -11 18 -10 32 3 15 16 15 18 -3
36 -11 10 -26 17 -32 14z"/>
<path d="M4617 414 c-16 -16 -7 -44 14 -44 15 0 20 5 17 22 -3 22 -19 33 -31
22z"/>
<path d="M3091 396 c-12 -14 -5 -26 16 -26 15 0 18 26 4 34 -5 3 -14 0 -20 -8z"/>
<path d="M2615 390 c-3 -5 1 -10 10 -10 9 0 13 5 10 10 -3 6 -8 10 -10 10 -2
0 -7 -4 -10 -10z"/>
<path d="M4520 375 c-10 -11 -10 -19 -2 -27 15 -15 44 -2 40 19 -4 23 -22 27
-38 8z"/>
<path d="M4972 368 c-7 -7 -12 -16 -12 -20 0 -12 28 -10 36 3 10 17 -10 31
-24 17z"/>
<path d="M5420 354 c0 -17 22 -14 28 4 2 7 -3 12 -12 12 -9 0 -16 -7 -16 -16z"/>
<path d="M2750 335 c0 -18 24 -30 40 -20 8 5 8 11 -1 21 -15 19 -39 18 -39 -1z"/>
<path d="M3194 325 c-4 -9 -2 -21 4 -27 15 -15 44 -1 40 19 -4 23 -36 29 -44
8z"/>
<path d="M4136 332 c-3 -5 0 -17 7 -26 15 -21 49 -11 45 13 -3 18 -43 28 -52
13z"/>
<path d="M3327 315 c-8 -18 11 -31 25 -17 11 11 3 32 -12 32 -4 0 -10 -7 -13
-15z"/>
<path d="M3547 316 c-3 -8 1 -20 9 -27 12 -10 18 -9 31 3 8 9 12 21 9 27 -10
16 -43 14 -49 -3z"/>
<path d="M4404 315 c-4 -9 -2 -21 4 -27 15 -15 44 -1 40 19 -4 23 -36 29 -44
8z"/>
<path d="M4013 304 c-8 -20 8 -36 26 -25 15 10 8 41 -9 41 -6 0 -13 -7 -17
-16z"/>
<path d="M2896 301 c-4 -7 -5 -15 -2 -18 9 -9 19 4 14 18 -4 11 -6 11 -12 0z"/>
<path d="M3707 304 c-13 -13 -7 -24 14 -24 11 0 19 5 17 12 -5 14 -22 21 -31
12z"/>
<path d="M3926 297 c-11 -8 -15 -19 -10 -30 8 -23 38 -18 42 7 5 26 -11 38
-32 23z"/>
<path d="M4272 297 c-14 -16 -6 -27 20 -27 13 0 18 6 16 17 -4 22 -22 27 -36
10z"/>
<path d="M3795 280 c-4 -6 -3 -16 3 -22 6 -6 12 -6 17 2 4 6 3 16 -3 22 -6 6
-12 6 -17 -2z"/>
<path d="M3037 274 c-9 -10 12 -34 30 -34 19 0 12 34 -8 38 -8 1 -18 0 -22 -4z"/>
<path d="M4748 243 c7 -3 16 -2 19 1 4 3 -2 6 -13 5 -11 0 -14 -3 -6 -6z"/>
<path d="M4567 234 c-13 -13 -7 -24 14 -24 11 0 19 5 17 12 -5 14 -22 21 -31
12z"/>
<path d="M3142 218 c6 -18 28 -21 28 -4 0 9 -7 16 -16 16 -9 0 -14 -5 -12 -12z"/>
<path d="M2936 211 c-3 -5 0 -14 8 -20 10 -8 16 -8 25 2 6 8 8 17 4 20 -9 10
-31 9 -37 -2z"/>
<path d="M3447 214 c-8 -8 1 -24 14 -24 5 0 9 7 9 15 0 15 -12 20 -23 9z"/>
<path d="M3710 201 c0 -12 6 -21 16 -21 9 0 14 7 12 17 -5 25 -28 28 -28 4z"/>
<path d="M3974 205 c-4 -10 -1 -21 7 -26 20 -12 34 -5 34 17 0 24 -33 31 -41
9z"/>
<path d="M3575 190 c-8 -12 20 -24 35 -15 6 3 8 11 5 16 -8 12 -32 12 -40 -1z"/>
<path d="M4237 194 c-9 -10 2 -24 19 -24 8 0 14 7 14 15 0 15 -21 21 -33 9z"/>
<path d="M3180 120 c0 -5 5 -10 10 -10 6 0 10 5 10 10 0 6 -4 10 -10 10 -5 0
-10 -4 -10 -10z"/>
<path d="M3295 110 c-3 -6 1 -13 10 -16 19 -8 30 0 20 15 -8 14 -22 14 -30 1z"/>
<path d="M3820 100 c0 -5 7 -10 15 -10 8 0 15 5 15 10 0 6 -7 10 -15 10 -8 0
-15 -4 -15 -10z"/>
<path d="M3556 93 c-9 -9 -7 -33 3 -33 12 0 22 28 12 34 -5 3 -11 3 -15 -1z"/>
<path d="M4480 70 c0 -5 5 -10 11 -10 5 0 7 5 4 10 -3 6 -8 10 -11 10 -2 0 -4
-4 -4 -10z"/>
</g>
</svg>
