<?xml version="1.0" standalone="no"?>
<!DOCTYPE svg PUBLIC "-//W3C//DTD SVG 20010904//EN"
 "http://www.w3.org/TR/2001/REC-SVG-20010904/DTD/svg10.dtd">
<svg version="1.0" xmlns="http://www.w3.org/2000/svg"
 width="786.000000pt" height="786.000000pt" viewBox="0 0 786.000000 786.000000"
 preserveAspectRatio="xMidYMid meet">
<metadata>
Created by potrace 1.13, written by Peter Selinger 2001-2015
</metadata>
<g transform="translate(0.000000,786.000000) scale(0.100000,-0.100000)"
fill="#000000" stroke="none">
<path d="M4475 7629 c-4 -6 -3 -15 3 -21 6 -6 11 -4 15 6 7 18 -9 31 -18 15z"/>
<path d="M3455 7620 c-4 -6 -3 -16 3 -22 6 -6 12 -6 17 2 4 6 3 16 -3 22 -6 6
-12 6 -17 -2z"/>
<path d="M4280 7619 c0 -5 5 -7 10 -4 6 3 10 8 10 11 0 2 -4 4 -10 4 -5 0 -10
-5 -10 -11z"/>
<path d="M3756 7551 c-4 -5 -2 -12 3 -15 5 -4 12 -2 15 3 4 5 2 12 -3 15 -5 4
-12 2 -15 -3z"/>
<path d="M3977 7553 c-4 -3 -7 -12 -7 -20 0 -17 26 -17 33 1 8 21 -11 35 -26
19z"/>
<path d="M4175 7550 c-4 -7 -3 -16 3 -22 14 -14 45 -2 40 15 -6 16 -34 21 -43
7z"/>
<path d="M4357 7523 c-14 -13 -6 -33 13 -33 11 0 20 4 20 9 0 13 -26 32 -33
24z"/>
<path d="M3354 7499 c-9 -15 11 -33 30 -26 9 4 13 13 10 22 -7 17 -30 20 -40
4z"/>
<path d="M3522 7473 c2 -10 10 -18 18 -18 8 0 16 8 18 18 2 12 -3 17 -18 17
-15 0 -20 -5 -18 -17z"/>
<path d="M4955 7480 c-10 -16 7 -31 23 -21 10 6 10 10 -2 20 -10 9 -16 9 -21
1z"/>
<path d="M3115 7470 c-3 -5 -4 -14 0 -20 8 -13 35 -1 35 16 0 16 -26 19 -35 4z"/>
<path d="M4627 7464 c-14 -14 -7 -35 11 -32 9 2 17 10 17 17 0 16 -18 25 -28
15z"/>
<path d="M5055 7460 c-4 -6 -3 -16 3 -22 6 -6 12 -6 17 2 4 6 3 16 -3 22 -6 6
-12 6 -17 -2z"/>
<path d="M3702 7437 c-7 -8 -7 -18 -2 -27 8 -13 11 -13 26 2 9 9 13 21 10 27
-9 15 -21 14 -34 -2z"/>
<path d="M3792 7423 c5 -26 38 -29 38 -4 0 15 -6 21 -21 21 -14 0 -19 -5 -17
-17z"/>
<path d="M4264 7425 c-4 -9 -2 -21 4 -27 15 -15 44 -1 40 19 -4 23 -36 29 -44
8z"/>
<path d="M4735 7430 c-8 -12 20 -24 35 -15 6 3 8 11 5 16 -8 12 -32 12 -40 -1z"/>
<path d="M4860 7425 c0 -8 9 -15 20 -15 11 0 20 7 20 15 0 8 -9 15 -20 15 -11
0 -20 -7 -20 -15z"/>
<path d="M2914 7409 c-8 -14 11 -33 25 -25 16 10 13 36 -3 36 -8 0 -18 -5 -22
-11z"/>
<path d="M3434 7405 c-4 -9 -2 -21 4 -27 15 -15 44 -1 40 19 -4 23 -36 29 -44
8z"/>
<path d="M3560 7395 c0 -22 4 -26 23 -23 14 2 22 10 22 23 0 13 -8 21 -22 23
-19 3 -23 -1 -23 -23z"/>
<path d="M3922 7412 c-17 -12 -4 -42 18 -42 25 0 35 18 20 35 -14 17 -20 18
-38 7z"/>
<path d="M4056 7411 c-4 -5 -2 -12 3 -15 5 -4 12 -2 15 3 4 5 2 12 -3 15 -5 4
-12 2 -15 -3z"/>
<path d="M3341 7401 c-8 -6 -11 -16 -7 -27 6 -16 8 -16 23 -1 20 19 6 41 -16
28z"/>
<path d="M4533 7403 c-7 -3 -13 -16 -13 -29 0 -28 34 -34 44 -7 8 19 -13 43
-31 36z"/>
<path d="M2645 7389 c-10 -15 1 -23 20 -15 9 3 13 10 10 16 -8 13 -22 13 -30
-1z"/>
<path d="M5012 7389 c2 -6 8 -10 13 -10 5 0 11 4 13 10 2 6 -4 11 -13 11 -9 0
-15 -5 -13 -11z"/>
<path d="M3004 7369 c-9 -16 18 -30 33 -17 7 6 10 14 7 19 -7 13 -31 11 -40
-2z"/>
<path d="M3216 7373 c-3 -4 -6 -15 -6 -25 0 -24 33 -21 38 3 3 17 -21 33 -32
22z"/>
<path d="M4380 7365 c-15 -18 -5 -35 20 -35 23 0 32 13 24 34 -8 20 -28 21
-44 1z"/>
<path d="M4634 7365 c-3 -8 -3 -22 0 -30 4 -13 10 -14 26 -5 11 6 20 15 20 20
0 5 -9 14 -20 20 -16 9 -22 8 -26 -5z"/>
<path d="M5105 7350 c-4 -7 -3 -16 3 -22 14 -14 45 -2 40 15 -6 16 -34 21 -43
7z"/>
<path d="M5436 7331 c-4 -5 -2 -12 3 -15 5 -4 12 -2 15 3 4 5 2 12 -3 15 -5 4
-12 2 -15 -3z"/>
<path d="M4735 7320 c-8 -13 13 -40 31 -40 19 0 18 36 -2 44 -21 8 -22 8 -29
-4z"/>
<path d="M3093 7304 c-7 -18 11 -39 26 -30 17 11 13 46 -4 46 -9 0 -18 -7 -22
-16z"/>
<path d="M3502 7311 c-21 -13 -11 -55 15 -59 26 -4 41 31 23 53 -14 17 -20 18
-38 6z"/>
<path d="M4083 7304 c-8 -22 11 -37 36 -29 25 8 28 30 5 39 -25 9 -34 7 -41
-10z"/>
<path d="M2574 7286 c-9 -24 12 -44 28 -28 10 10 8 16 -5 29 -15 15 -17 15
-23 -1z"/>
<path d="M3625 7280 c-17 -18 -17 -22 -4 -36 28 -27 73 12 48 42 -15 19 -23
18 -44 -6z"/>
<path d="M3751 7283 c-12 -24 1 -46 25 -41 13 2 19 12 19 28 0 30 -30 39 -44
13z"/>
<path d="M3851 7282 c-6 -11 -6 -24 0 -35 12 -21 23 -22 43 -1 12 12 13 20 6
35 -13 24 -36 25 -49 1z"/>
<path d="M3965 7290 c-9 -15 4 -50 19 -50 20 0 39 27 32 45 -6 17 -42 20 -51
5z"/>
<path d="M4196 7283 c-4 -9 -2 -21 3 -26 15 -15 41 0 41 23 0 25 -35 28 -44 3z"/>
<path d="M5233 7284 c-8 -21 13 -42 28 -27 13 13 5 43 -11 43 -6 0 -13 -7 -17
-16z"/>
<path d="M2714 7275 c-4 -8 -4 -22 0 -30 7 -20 36 -8 36 15 0 23 -29 35 -36
15z"/>
<path d="M4844 7279 c-3 -6 0 -17 7 -25 18 -17 44 -2 36 20 -7 18 -33 21 -43
5z"/>
<path d="M4338 7269 c-23 -13 -23 -36 1 -48 27 -15 60 11 45 35 -13 23 -25 26
-46 13z"/>
<path d="M4437 7263 c-11 -10 -8 -41 4 -49 16 -9 43 21 36 40 -7 16 -28 21
-40 9z"/>
<path d="M4983 7259 c-16 -16 -5 -39 19 -39 14 0 19 6 16 22 -4 25 -19 33 -35
17z"/>
<path d="M3272 7238 c2 -12 10 -23 18 -23 22 0 19 39 -3 43 -15 3 -18 -1 -15
-20z"/>
<path d="M3375 7250 c-9 -14 3 -47 19 -53 8 -3 22 3 31 13 15 16 15 22 5 35
-14 17 -46 20 -55 5z"/>
<path d="M5351 7241 c-15 -10 -8 -41 9 -41 15 0 25 29 14 40 -5 5 -15 5 -23 1z"/>
<path d="M2835 7231 c-6 -11 9 -23 19 -14 9 9 7 23 -3 23 -6 0 -12 -4 -16 -9z"/>
<path d="M3135 7230 c-11 -17 5 -51 23 -48 23 4 23 52 0 56 -9 2 -19 -2 -23
-8z"/>
<path d="M4524 7225 c-4 -9 0 -23 8 -31 20 -20 50 -7 46 20 -4 26 -45 35 -54
11z"/>
<path d="M5675 7230 c-7 -12 2 -30 16 -30 12 0 12 27 0 35 -5 3 -12 1 -16 -5z"/>
<path d="M4661 7202 c-11 -20 2 -42 25 -42 18 0 35 26 28 44 -8 22 -41 20 -53
-2z"/>
<path d="M4786 7201 c-20 -22 -14 -41 13 -41 24 0 45 25 37 45 -8 21 -29 19
-50 -4z"/>
<path d="M5081 7206 c-9 -11 -8 -18 5 -31 15 -15 18 -15 32 -1 13 12 13 18 2
30 -15 20 -24 20 -39 2z"/>
<path d="M3027 7196 c-8 -20 16 -39 30 -25 14 14 6 39 -12 39 -7 0 -15 -6 -18
-14z"/>
<path d="M2430 7186 c0 -9 7 -16 16 -16 9 0 14 5 12 12 -6 18 -28 21 -28 4z"/>
<path d="M3814 7186 c-10 -26 1 -51 22 -54 26 -4 38 22 24 49 -13 22 -38 25
-46 5z"/>
<path d="M3930 7179 c-15 -27 -6 -49 19 -49 26 0 43 30 30 53 -13 23 -36 21
-49 -4z"/>
<path d="M4033 7184 c-7 -18 6 -45 25 -52 18 -6 36 37 21 54 -15 19 -38 18
-46 -2z"/>
<path d="M3722 7178 c-17 -17 -15 -36 7 -47 24 -13 55 8 49 35 -4 22 -38 30
-56 12z"/>
<path d="M2934 7165 c-9 -23 3 -45 26 -45 29 0 38 30 15 46 -24 18 -34 18 -41
-1z"/>
<path d="M3470 7170 c-20 -13 -1 -65 24 -65 31 0 43 30 22 54 -21 24 -25 24
-46 11z"/>
<path d="M3597 7162 c-20 -22 -21 -36 -4 -50 32 -26 75 26 45 56 -16 16 -22
15 -41 -6z"/>
<path d="M4146 7165 c-20 -20 -5 -55 23 -55 28 0 35 30 13 53 -18 17 -20 17
-36 2z"/>
<path d="M4266 7167 c-26 -19 -17 -51 15 -55 31 -4 44 19 29 49 -13 22 -20 24
-44 6z"/>
<path d="M5217 7173 c-11 -10 -8 -41 4 -49 16 -9 43 21 36 40 -7 16 -28 21
-40 9z"/>
<path d="M5454 7165 c-7 -18 3 -35 21 -35 21 0 28 19 15 35 -16 19 -29 19 -36
0z"/>
<path d="M2632 7158 c-8 -8 -8 -15 -1 -24 14 -17 39 -6 39 17 0 21 -20 25 -38
7z"/>
<path d="M4375 7144 c-25 -25 -15 -49 20 -49 23 0 31 5 33 22 5 31 -31 49 -53
27z"/>
<path d="M4873 7144 c-4 -11 1 -22 13 -31 27 -20 49 -12 49 17 0 20 -6 26 -28
28 -18 2 -29 -2 -34 -14z"/>
<path d="M4991 7147 c-16 -16 -14 -47 5 -54 20 -8 46 19 39 39 -9 22 -30 29
-44 15z"/>
<path d="M3365 7137 c-20 -16 -15 -44 11 -54 23 -9 51 23 38 44 -14 23 -27 26
-49 10z"/>
<path d="M4469 7129 c-13 -26 4 -49 37 -49 43 0 42 39 -1 58 -21 10 -26 8 -36
-9z"/>
<path d="M2494 7126 c-7 -19 3 -36 22 -36 10 0 14 8 12 22 -4 26 -26 36 -34
14z"/>
<path d="M5885 7131 c-7 -12 12 -24 25 -16 11 7 4 25 -10 25 -5 0 -11 -4 -15
-9z"/>
<path d="M3259 7111 c-22 -18 -23 -21 -8 -36 13 -14 21 -15 38 -6 24 13 27 33
7 50 -10 9 -19 7 -37 -8z"/>
<path d="M4585 7111 c-14 -44 26 -68 59 -35 9 8 16 17 16 19 0 2 -7 11 -16 19
-21 22 -51 20 -59 -3z"/>
<path d="M5315 7110 c-8 -26 6 -43 31 -38 13 2 19 12 19 28 0 34 -40 41 -50
10z"/>
<path d="M2807 7103 c-24 -23 12 -55 38 -33 12 10 13 16 4 26 -12 15 -31 18
-42 7z"/>
<path d="M2383 7084 c-3 -8 -1 -20 6 -27 14 -14 47 15 37 32 -10 16 -36 13
-43 -5z"/>
<path d="M2736 7093 c-12 -12 -6 -33 9 -33 8 0 15 6 15 14 0 17 -14 28 -24 19z"/>
<path d="M3142 7088 c-17 -17 -15 -45 5 -52 10 -4 24 1 37 13 16 17 17 22 6
35 -15 19 -32 20 -48 4z"/>
<path d="M4726 7078 c-21 -29 -20 -35 5 -48 27 -15 51 5 47 39 -4 34 -32 38
-52 9z"/>
<path d="M5460 7085 c-10 -11 -10 -19 -2 -27 15 -15 44 -2 40 19 -4 23 -22 27
-38 8z"/>
<path d="M5090 7075 c-16 -19 -6 -45 19 -45 26 0 33 25 12 44 -16 15 -20 15
-31 1z"/>
<path d="M5211 7066 c-15 -18 -5 -56 13 -56 19 0 38 26 34 47 -4 23 -31 28
-47 9z"/>
<path d="M5695 7070 c-7 -12 2 -30 16 -30 12 0 12 27 0 35 -5 3 -12 1 -16 -5z"/>
<path d="M4829 7054 c-16 -20 -1 -48 29 -52 25 -4 39 32 22 53 -16 19 -34 19
-51 -1z"/>
<path d="M2625 7044 c-18 -19 -16 -33 8 -48 23 -14 50 20 36 46 -12 22 -23 23
-44 2z"/>
<path d="M3034 7046 c-8 -20 -1 -49 12 -53 17 -6 46 26 42 46 -4 21 -46 27
-54 7z"/>
<path d="M2095 7030 c-8 -13 3 -30 20 -30 14 0 27 24 18 34 -10 9 -31 7 -38
-4z"/>
<path d="M2944 7026 c-7 -19 14 -58 28 -54 23 8 32 36 19 52 -17 20 -40 21
-47 2z"/>
<path d="M4926 7025 c-35 -35 -7 -77 35 -54 14 7 19 19 17 37 -4 32 -29 40
-52 17z"/>
<path d="M5307 7019 c-19 -26 -7 -49 23 -49 27 0 34 31 12 53 -19 19 -20 19
-35 -4z"/>
<path d="M5526 7025 c-8 -22 1 -35 25 -35 15 0 20 6 17 22 -4 27 -33 36 -42
13z"/>
<path d="M5809 7004 c-9 -11 -9 -18 -1 -26 14 -14 42 -3 42 16 0 20 -27 27
-41 10z"/>
<path d="M2295 7000 c-7 -12 2 -30 16 -30 12 0 12 27 0 35 -5 3 -12 1 -16 -5z"/>
<path d="M5980 6995 c0 -8 7 -15 16 -15 14 0 14 3 4 15 -7 8 -14 15 -16 15 -2
0 -4 -7 -4 -15z"/>
<path d="M2474 6985 c-4 -9 -2 -21 4 -27 15 -15 44 -1 40 19 -4 23 -36 29 -44
8z"/>
<path d="M2837 6993 c-12 -12 -7 -40 9 -54 14 -11 19 -10 35 9 10 13 15 30 12
37 -5 15 -44 21 -56 8z"/>
<path d="M5052 6978 c-18 -18 -15 -36 9 -49 17 -9 24 -8 36 4 12 12 13 19 4
36 -13 24 -31 27 -49 9z"/>
<path d="M1967 6974 c-14 -14 -7 -35 11 -32 9 2 17 10 17 17 0 16 -18 25 -28
15z"/>
<path d="M2746 6961 c-29 -32 5 -72 39 -47 12 8 15 19 11 33 -9 29 -31 35 -50
14z"/>
<path d="M6095 6971 c-7 -12 12 -24 25 -16 11 7 4 25 -10 25 -5 0 -11 -4 -15
-9z"/>
<path d="M2401 6946 c-13 -16 -5 -46 13 -46 23 0 49 27 43 44 -8 20 -40 21
-56 2z"/>
<path d="M5165 6940 c-9 -10 -15 -26 -12 -35 9 -21 40 -19 61 3 15 18 15 20
-2 35 -23 21 -25 21 -47 -3z"/>
<path d="M2174 6939 c-9 -15 11 -33 30 -26 9 4 13 13 10 22 -7 17 -30 20 -40
4z"/>
<path d="M2622 6928 c-30 -30 0 -78 38 -58 15 8 20 19 18 38 -3 30 -35 41 -56
20z"/>
<path d="M5412 6928 c-17 -17 4 -48 34 -48 29 0 42 24 24 45 -15 18 -42 19
-58 3z"/>
<path d="M5990 6924 c-9 -10 -10 -18 -2 -26 12 -12 32 -2 32 17 0 21 -16 26
-30 9z"/>
<path d="M1896 6912 c-9 -14 9 -31 23 -23 7 5 10 14 7 20 -8 13 -23 14 -30 3z"/>
<path d="M5245 6900 c-7 -23 10 -50 31 -50 20 0 34 32 23 53 -14 23 -46 21
-54 -3z"/>
<path d="M5521 6901 c-10 -17 -7 -23 14 -37 31 -20 48 -9 43 27 -4 32 -42 38
-57 10z"/>
<path d="M2052 6894 c4 -21 22 -23 26 -1 2 10 -3 17 -13 17 -10 0 -15 -6 -13
-16z"/>
<path d="M1656 6891 c-4 -5 -2 -12 3 -15 5 -4 12 -2 15 3 4 5 2 12 -3 15 -5 4
-12 2 -15 -3z"/>
<path d="M2304 6886 c-17 -13 -18 -16 -3 -31 17 -17 44 -12 53 12 13 32 -16
43 -50 19z"/>
<path d="M2507 6894 c-13 -13 -7 -52 9 -58 22 -9 46 13 42 38 -3 21 -37 34
-51 20z"/>
<path d="M5363 6859 c-30 -11 -32 -54 -3 -62 22 -6 50 16 50 37 0 22 -23 34
-47 25z"/>
<path d="M5762 6853 c4 -21 33 -25 33 -3 0 8 -8 16 -18 18 -14 3 -18 -1 -15
-15z"/>
<path d="M5857 6854 c-11 -11 3 -24 18 -18 8 4 12 10 9 15 -6 11 -18 12 -27 3z"/>
<path d="M1807 6839 c-10 -6 -15 -14 -12 -20 10 -14 45 -11 45 5 0 21 -12 26
-33 15z"/>
<path d="M2154 6835 c-8 -21 10 -39 30 -32 22 9 20 24 -4 37 -16 9 -22 8 -26
-5z"/>
<path d="M5643 6834 c-9 -23 25 -48 43 -33 10 8 11 16 3 30 -12 23 -37 25 -46
3z"/>
<path d="M2401 6826 c-9 -11 -10 -20 -1 -35 6 -12 14 -21 18 -21 19 0 44 28
40 46 -4 24 -40 30 -57 10z"/>
<path d="M1983 6814 c-8 -20 17 -36 34 -22 10 8 10 14 2 24 -15 18 -28 18 -36
-2z"/>
<path d="M5431 6801 c-16 -30 -3 -53 28 -49 22 2 26 8 26 33 0 23 -5 31 -22
33 -14 2 -26 -4 -32 -17z"/>
<path d="M6100 6801 c0 -15 6 -21 21 -21 25 0 22 33 -4 38 -12 2 -17 -3 -17
-17z"/>
<path d="M5740 6776 c-18 -22 -5 -48 22 -44 17 2 23 10 23 28 0 29 -26 38 -45
16z"/>
<path d="M6288 6783 c7 -3 16 -2 19 1 4 3 -2 6 -13 5 -11 0 -14 -3 -6 -6z"/>
<path d="M2094 6765 c-9 -23 3 -45 26 -45 25 0 28 45 4 54 -22 8 -24 8 -30 -9z"/>
<path d="M2310 6745 c0 -29 25 -44 43 -26 14 14 -2 44 -27 49 -11 3 -16 -4
-16 -23z"/>
<path d="M5964 6759 c-10 -17 13 -36 27 -22 12 12 4 33 -11 33 -5 0 -12 -5
-16 -11z"/>
<path d="M1877 6754 c-16 -16 -7 -44 14 -44 15 0 20 5 17 22 -3 22 -19 33 -31
22z"/>
<path d="M5548 6739 c-22 -12 -23 -33 -2 -53 22 -23 43 -20 56 9 18 41 -14 68
-54 44z"/>
<path d="M1989 6724 c-16 -20 0 -49 27 -49 27 0 31 41 6 54 -15 8 -23 7 -33
-5z"/>
<path d="M5817 6724 c-13 -13 -7 -42 10 -48 21 -8 36 6 31 30 -3 19 -29 30
-41 18z"/>
<path d="M2207 6708 c-6 -18 11 -48 27 -48 8 0 19 7 26 15 10 12 10 18 0 30
-15 18 -47 20 -53 3z"/>
<path d="M6195 6710 c-3 -5 -1 -10 4 -10 6 0 11 5 11 10 0 6 -2 10 -4 10 -3 0
-8 -4 -11 -10z"/>
<path d="M1770 6680 c-9 -16 -8 -22 4 -26 21 -8 36 3 36 27 0 25 -26 25 -40
-1z"/>
<path d="M5664 6692 c-6 -4 -16 -17 -23 -29 -10 -19 -8 -24 9 -33 40 -22 80
26 48 58 -14 14 -19 14 -34 4z"/>
<path d="M6067 6676 c-8 -19 20 -43 34 -29 12 12 1 43 -16 43 -7 0 -15 -6 -18
-14z"/>
<path d="M6260 6670 c-18 -11 -4 -42 17 -38 10 2 19 10 21 19 4 19 -19 31 -38
19z"/>
<path d="M2130 6655 c-16 -19 -6 -45 19 -45 25 0 34 26 15 45 -19 18 -19 18
-34 0z"/>
<path d="M1665 6636 c-15 -11 -17 -18 -9 -26 8 -8 14 -7 23 4 20 24 9 39 -14
22z"/>
<path d="M1895 6629 c-8 -25 7 -44 29 -36 21 8 21 43 0 51 -22 8 -22 8 -29
-15z"/>
<path d="M5744 6640 c-30 -12 -36 -35 -14 -55 23 -21 45 -15 53 14 7 29 -13
51 -39 41z"/>
<path d="M5923 6643 c-17 -6 -16 -38 1 -52 11 -9 20 -10 35 -1 24 12 25 15 11
41 -11 19 -23 22 -47 12z"/>
<path d="M6496 6643 c-11 -11 -6 -23 9 -23 8 0 15 4 15 9 0 13 -16 22 -24 14z"/>
<path d="M2017 6614 c-12 -12 -8 -41 9 -54 22 -19 54 12 38 38 -12 19 -36 27
-47 16z"/>
<path d="M6141 6597 c-9 -12 -8 -18 4 -31 20 -20 58 -4 53 22 -4 22 -41 27
-57 9z"/>
<path d="M1793 6584 c-3 -8 -1 -20 5 -26 15 -15 43 -2 36 16 -8 21 -34 28 -41
10z"/>
<path d="M5835 6560 c-23 -25 -13 -50 20 -50 30 0 41 20 25 49 -13 26 -22 26
-45 1z"/>
<path d="M6012 6568 c-16 -16 -15 -33 4 -48 12 -11 18 -10 32 3 15 16 15 18
-4 37 -15 16 -22 18 -32 8z"/>
<path d="M6346 6571 c-3 -4 0 -15 7 -24 15 -21 40 -7 31 16 -7 18 -29 23 -38
8z"/>
<path d="M6270 6541 c0 -12 6 -21 16 -21 9 0 14 7 12 17 -5 25 -28 28 -28 4z"/>
<path d="M1570 6535 c-10 -12 -9 -16 3 -21 20 -7 37 3 37 22 0 18 -24 18 -40
-1z"/>
<path d="M1922 6538 c-17 -17 -15 -36 6 -46 23 -12 42 -4 42 17 0 16 -18 41
-30 41 -3 0 -11 -5 -18 -12z"/>
<path d="M1721 6511 c-16 -28 13 -51 36 -28 18 18 11 47 -11 47 -9 0 -20 -9
-25 -19z"/>
<path d="M6473 6504 c-8 -21 13 -42 28 -27 13 13 5 43 -11 43 -6 0 -13 -7 -17
-16z"/>
<path d="M5929 6494 c-15 -18 -2 -47 24 -52 22 -5 42 35 26 54 -15 18 -33 18
-50 -2z"/>
<path d="M6107 6499 c-23 -14 -21 -46 3 -54 23 -7 50 10 50 31 0 20 -32 34
-53 23z"/>
<path d="M1376 6492 c-3 -6 -1 -14 5 -17 15 -10 25 3 12 16 -7 7 -13 7 -17 1z"/>
<path d="M1831 6471 c-19 -12 -4 -51 20 -51 25 0 35 25 19 45 -14 17 -20 18
-39 6z"/>
<path d="M6317 6463 c-11 -10 -8 -41 4 -49 6 -3 18 1 27 9 13 13 13 19 2 31
-14 17 -23 20 -33 9z"/>
<path d="M1496 6451 c-4 -5 -2 -12 3 -15 5 -4 12 -2 15 3 4 5 2 12 -3 15 -5 4
-12 2 -15 -3z"/>
<path d="M1617 6433 c-10 -9 -9 -51 2 -57 17 -11 44 20 37 42 -7 21 -26 29
-39 15z"/>
<path d="M6022 6418 c-15 -15 -16 -45 -1 -53 18 -12 59 4 59 23 0 20 -18 42
-35 42 -6 0 -16 -5 -23 -12z"/>
<path d="M6215 6406 c-19 -14 -19 -16 -3 -32 22 -22 50 -11 46 18 -4 27 -19
32 -43 14z"/>
<path d="M1743 6374 c-3 -8 2 -23 11 -32 15 -15 17 -15 33 0 13 14 14 20 3 32
-16 20 -39 20 -47 0z"/>
<path d="M6092 6371 c-8 -4 -12 -19 -10 -32 2 -18 9 -24 28 -24 21 0 25 5 25
30 0 31 -19 42 -43 26z"/>
<path d="M6423 6363 c-18 -7 -16 -28 3 -43 12 -11 18 -10 31 3 28 27 4 56 -34
40z"/>
<path d="M1096 6351 c-4 -5 -2 -12 3 -15 5 -4 12 -2 15 3 4 5 2 12 -3 15 -5 4
-12 2 -15 -3z"/>
<path d="M6284 6345 c-4 -9 -2 -21 3 -26 14 -14 45 1 41 20 -4 22 -37 26 -44
6z"/>
<path d="M1670 6325 c-15 -18 -7 -43 15 -52 22 -8 38 11 31 35 -9 26 -31 34
-46 17z"/>
<path d="M1227 6315 c-7 -16 8 -29 23 -20 15 9 12 35 -4 35 -8 0 -16 -7 -19
-15z"/>
<path d="M1341 6314 c0 -11 3 -14 6 -6 3 7 2 16 -1 19 -3 4 -6 -2 -5 -13z"/>
<path d="M1530 6315 c0 -20 36 -39 43 -22 7 20 -4 37 -24 37 -10 0 -19 -7 -19
-15z"/>
<path d="M6631 6296 c-8 -10 -7 -17 3 -26 17 -13 36 -6 36 15 0 19 -27 26 -39
11z"/>
<path d="M6775 6300 c3 -5 8 -10 11 -10 2 0 4 5 4 10 0 6 -5 10 -11 10 -5 0
-7 -4 -4 -10z"/>
<path d="M6494 6285 c-8 -21 3 -45 20 -45 16 0 31 34 21 50 -9 15 -35 12 -41
-5z"/>
<path d="M6194 6266 c-15 -12 -17 -18 -8 -33 16 -26 41 -27 54 -3 9 16 8 25
-1 36 -14 18 -20 18 -45 0z"/>
<path d="M6363 6264 c-6 -16 19 -44 39 -44 15 0 20 30 8 45 -16 20 -39 19 -47
-1z"/>
<path d="M1453 6244 c-3 -8 -1 -20 5 -26 16 -16 42 -2 42 22 0 24 -38 28 -47
4z"/>
<path d="M1594 6246 c-17 -43 25 -75 46 -36 9 16 8 25 -1 36 -15 18 -38 18
-45 0z"/>
<path d="M6610 6205 c-15 -18 -5 -35 20 -35 10 0 22 5 25 10 7 11 -12 40 -25
40 -4 0 -13 -7 -20 -15z"/>
<path d="M6740 6210 c0 -5 5 -10 11 -10 5 0 7 5 4 10 -3 6 -8 10 -11 10 -2 0
-4 -4 -4 -10z"/>
<path d="M1234 6186 c-4 -10 -2 -22 4 -28 8 -8 13 -7 18 6 4 10 2 22 -4 28 -8
8 -13 7 -18 -6z"/>
<path d="M6264 6179 c-18 -20 -18 -21 1 -35 26 -19 42 -18 55 7 25 45 -20 68
-56 28z"/>
<path d="M6447 6176 c-3 -8 0 -22 7 -31 12 -16 13 -16 30 0 13 13 14 20 5 31
-15 18 -35 18 -42 0z"/>
<path d="M1360 6166 c0 -16 27 -29 41 -20 19 11 9 34 -16 34 -15 0 -25 -6 -25
-14z"/>
<path d="M1511 6157 c-15 -19 10 -53 33 -44 23 9 32 37 15 48 -20 12 -35 11
-48 -4z"/>
<path d="M6342 6118 c-16 -16 -15 -33 3 -48 21 -18 55 -3 55 25 0 32 -35 46
-58 23z"/>
<path d="M6772 6118 c6 -18 28 -21 28 -4 0 9 -7 16 -16 16 -9 0 -14 -5 -12
-12z"/>
<path d="M6935 6110 c-4 -6 -3 -16 3 -22 6 -6 12 -6 17 2 4 6 3 16 -3 22 -6 6
-12 6 -17 -2z"/>
<path d="M1154 6095 c-3 -8 -3 -19 0 -24 10 -16 36 -1 36 20 0 22 -28 26 -36
4z"/>
<path d="M6672 6093 c4 -22 43 -25 43 -3 0 8 -11 16 -23 18 -19 3 -23 0 -20
-15z"/>
<path d="M1297 6094 c-11 -11 -8 -52 3 -59 17 -10 41 16 38 39 -3 21 -28 33
-41 20z"/>
<path d="M1451 6077 c-15 -15 -14 -44 3 -50 17 -7 36 11 36 34 0 21 -24 31
-39 16z"/>
<path d="M6532 6078 c-26 -26 -2 -64 30 -47 10 5 18 16 18 24 0 21 -34 37 -48
23z"/>
<path d="M6424 6026 c-15 -12 -17 -18 -8 -33 6 -10 21 -18 34 -18 13 0 28 8
34 18 9 15 7 21 -8 33 -11 8 -23 14 -26 14 -3 0 -15 -6 -26 -14z"/>
<path d="M954 6005 c-3 -8 -3 -19 1 -25 9 -14 35 6 35 26 0 19 -29 18 -36 -1z"/>
<path d="M1066 6011 c-7 -11 18 -33 27 -24 4 3 7 12 7 20 0 15 -26 18 -34 4z"/>
<path d="M1214 6005 c-4 -9 -2 -21 4 -27 15 -15 44 -1 40 19 -4 23 -36 29 -44
8z"/>
<path d="M6586 6004 c-19 -19 -17 -33 7 -48 13 -8 21 -6 34 7 13 13 15 21 7
34 -15 24 -29 26 -48 7z"/>
<path d="M6854 6006 c-4 -9 -2 -22 5 -29 8 -8 14 -8 23 1 10 10 8 16 -5 29
-15 15 -17 15 -23 -1z"/>
<path d="M1372 5988 c-16 -16 -15 -33 3 -48 23 -19 59 15 44 41 -11 22 -30 24
-47 7z"/>
<path d="M6489 5951 l-24 -20 23 -23 23 -23 19 23 c15 18 17 28 10 43 -13 24
-22 24 -51 0z"/>
<path d="M7075 5949 c-10 -15 3 -25 16 -12 7 7 7 13 1 17 -6 3 -14 1 -17 -5z"/>
<path d="M6952 5924 c4 -21 22 -23 26 -1 2 10 -3 17 -13 17 -10 0 -15 -6 -13
-16z"/>
<path d="M6654 5915 c-9 -21 3 -45 21 -45 21 0 30 27 15 45 -16 19 -29 19 -36
0z"/>
<path d="M1040 5910 c0 -5 7 -10 15 -10 8 0 15 5 15 10 0 6 -7 10 -15 10 -8 0
-15 -4 -15 -10z"/>
<path d="M1163 5903 c-18 -7 -16 -42 3 -50 8 -3 23 1 31 10 13 13 14 19 3 31
-13 17 -17 18 -37 9z"/>
<path d="M1305 5894 c-18 -19 -16 -33 9 -48 13 -9 20 -7 32 8 19 26 18 33 -5
46 -15 7 -24 6 -36 -6z"/>
<path d="M6545 5843 c-16 -16 -16 -18 5 -35 29 -23 37 -23 50 3 22 39 -23 65
-55 32z"/>
<path d="M6986 5831 c-7 -11 18 -33 27 -24 4 3 7 12 7 20 0 15 -26 18 -34 4z"/>
<path d="M7276 5831 c-4 -5 -2 -12 3 -15 5 -4 12 -2 15 3 4 5 2 12 -3 15 -5 4
-12 2 -15 -3z"/>
<path d="M6765 5816 c-23 -16 -13 -46 15 -46 15 0 20 7 20 24 0 31 -12 39 -35
22z"/>
<path d="M7136 5821 c-4 -7 -5 -15 -2 -18 9 -9 19 4 14 18 -4 11 -6 11 -12 0z"/>
<path d="M826 5811 c-7 -11 18 -33 27 -24 4 3 7 12 7 20 0 15 -26 18 -34 4z"/>
<path d="M983 5804 c-7 -18 17 -38 31 -24 11 11 1 40 -14 40 -6 0 -13 -7 -17
-16z"/>
<path d="M6873 5804 c-7 -19 11 -39 26 -30 16 10 13 33 -4 40 -9 3 -18 -1 -22
-10z"/>
<path d="M1095 5801 c-3 -5 -1 -12 5 -16 5 -3 10 1 10 9 0 18 -6 21 -15 7z"/>
<path d="M1225 5789 c-10 -29 14 -43 37 -22 14 12 15 19 7 30 -17 19 -37 16
-44 -8z"/>
<path d="M6609 5754 c-17 -21 0 -49 31 -49 31 0 48 28 31 49 -8 9 -21 16 -31
16 -10 0 -23 -7 -31 -16z"/>
<path d="M892 5714 c4 -21 22 -23 26 -1 2 10 -3 17 -13 17 -10 0 -15 -6 -13
-16z"/>
<path d="M1155 5720 c-3 -6 -3 -19 0 -30 7 -23 43 -27 51 -5 12 29 -35 61 -51
35z"/>
<path d="M6770 5715 c-11 -13 -11 -19 3 -32 21 -21 49 -9 45 19 -4 28 -30 35
-48 13z"/>
<path d="M6933 5705 c-3 -9 -3 -18 0 -22 10 -10 37 6 37 22 0 20 -29 20 -37 0z"/>
<path d="M7084 5709 c-8 -14 18 -31 30 -19 9 9 0 30 -14 30 -5 0 -12 -5 -16
-11z"/>
<path d="M7235 5710 c-4 -6 -3 -16 3 -22 6 -6 12 -6 17 2 4 6 3 16 -3 22 -6 6
-12 6 -17 -2z"/>
<path d="M1015 5690 c-8 -13 13 -50 29 -50 8 0 19 7 26 15 10 12 10 18 0 30
-14 17 -46 20 -55 5z"/>
<path d="M6675 5660 c-13 -40 38 -68 64 -36 9 11 10 20 1 35 -14 28 -56 28
-65 1z"/>
<path d="M794 5646 c-4 -10 -2 -22 4 -28 8 -8 13 -7 18 6 4 10 2 22 -4 28 -8
8 -13 7 -18 -6z"/>
<path d="M7009 5638 c-8 -16 -8 -24 3 -34 19 -19 52 3 43 28 -10 26 -34 29
-46 6z"/>
<path d="M1102 5628 c-18 -18 -15 -46 6 -57 33 -18 58 29 30 57 -7 7 -15 12
-18 12 -3 0 -11 -5 -18 -12z"/>
<path d="M953 5623 c-17 -6 -16 -40 1 -46 17 -7 45 23 39 41 -5 12 -18 14 -40
5z"/>
<path d="M6853 5604 c-3 -8 -1 -20 5 -26 16 -16 47 -5 50 20 3 18 -1 22 -23
22 -14 0 -28 -7 -32 -16z"/>
<path d="M6742 5578 c-17 -17 -15 -32 7 -52 17 -16 20 -16 35 -1 20 21 20 28
-2 48 -22 20 -25 20 -40 5z"/>
<path d="M7163 5544 c-8 -21 13 -42 28 -27 13 13 5 43 -11 43 -6 0 -13 -7 -17
-16z"/>
<path d="M900 5535 c-14 -17 -4 -55 15 -55 19 0 37 34 29 54 -8 20 -28 21 -44
1z"/>
<path d="M1043 5543 c-20 -7 -15 -41 6 -52 14 -8 22 -7 30 3 20 24 -6 59 -36
49z"/>
<path d="M657 5533 c-13 -12 -7 -33 8 -33 8 0 15 9 15 20 0 20 -11 26 -23 13z"/>
<path d="M6919 5524 c-11 -14 -10 -18 6 -30 16 -12 21 -12 33 0 17 17 9 46
-11 46 -8 0 -21 -7 -28 -16z"/>
<path d="M794 5519 c-8 -14 21 -43 35 -35 6 4 11 16 11 27 0 21 -34 27 -46 8z"/>
<path d="M7033 5494 c-3 -8 2 -23 11 -32 16 -16 18 -16 31 2 11 14 12 23 4 33
-15 18 -38 16 -46 -3z"/>
<path d="M6796 5481 c-14 -16 -15 -24 -6 -40 9 -18 14 -19 31 -10 27 14 34 36
19 54 -16 20 -23 19 -44 -4z"/>
<path d="M7325 5460 c3 -5 10 -10 16 -10 5 0 9 5 9 10 0 6 -7 10 -16 10 -8 0
-12 -4 -9 -10z"/>
<path d="M1007 5439 c-18 -11 -23 -44 -7 -54 13 -8 50 13 50 29 0 22 -23 36
-43 25z"/>
<path d="M7125 5416 c-21 -15 -14 -46 9 -46 23 0 39 35 22 49 -9 8 -18 7 -31
-3z"/>
<path d="M744 5405 c-7 -18 3 -35 21 -35 15 0 28 27 19 41 -8 14 -34 11 -40
-6z"/>
<path d="M6981 5402 c-11 -20 3 -42 25 -42 15 0 28 35 19 50 -10 16 -33 12
-44 -8z"/>
<path d="M627 5404 c-14 -14 -7 -35 11 -32 9 2 17 10 17 17 0 16 -18 25 -28
15z"/>
<path d="M845 5396 c-15 -10 -16 -16 -6 -35 16 -29 45 -23 49 10 4 31 -18 43
-43 25z"/>
<path d="M460 5380 c0 -5 4 -10 9 -10 6 0 13 5 16 10 3 6 -1 10 -9 10 -9 0
-16 -4 -16 -10z"/>
<path d="M7400 5375 c0 -8 5 -15 10 -15 6 0 10 7 10 15 0 8 -4 15 -10 15 -5 0
-10 -7 -10 -15z"/>
<path d="M6850 5366 c-27 -33 18 -72 48 -42 13 13 14 20 6 34 -15 23 -38 26
-54 8z"/>
<path d="M7256 5373 c-12 -12 -6 -43 9 -43 8 0 15 9 15 19 0 21 -13 34 -24 24z"/>
<path d="M940 5344 c-11 -13 -10 -19 8 -37 20 -20 23 -20 38 -5 20 20 10 58
-15 58 -10 0 -24 -7 -31 -16z"/>
<path d="M681 5311 c-19 -12 -6 -43 16 -39 10 2 18 12 18 22 0 22 -14 29 -34
17z"/>
<path d="M7020 5285 c-11 -13 -11 -19 3 -32 21 -21 49 -9 45 19 -4 28 -30 35
-48 13z"/>
<path d="M7154 5285 c-8 -21 3 -48 19 -43 19 7 22 58 2 58 -8 0 -18 -7 -21
-15z"/>
<path d="M787 5276 c-8 -19 15 -37 32 -26 17 10 7 40 -13 40 -7 0 -16 -6 -19
-14z"/>
<path d="M6892 5278 c-16 -16 -15 -33 4 -52 22 -23 33 -20 44 10 16 41 -19 71
-48 42z"/>
<path d="M7275 5270 c-7 -12 2 -30 16 -30 5 0 9 9 9 20 0 21 -15 27 -25 10z"/>
<path d="M897 5234 c-13 -13 -7 -52 9 -58 22 -9 46 13 42 38 -3 21 -37 34 -51
20z"/>
<path d="M2197 5154 c-28 -21 -56 -52 -69 -78 -19 -40 -26 -45 -92 -67 -78
-26 -121 -62 -192 -159 -82 -112 -222 -441 -270 -635 -41 -163 -53 -216 -64
-285 -7 -41 -19 -100 -26 -131 -33 -135 -52 -474 -33 -579 6 -36 23 -103 37
-150 32 -104 84 -170 208 -263 97 -73 184 -107 294 -115 61 -4 72 -1 140 33
74 37 90 48 132 93 12 12 27 22 34 22 13 0 94 89 94 103 0 4 -9 3 -20 -3 -12
-6 -20 -7 -20 -1 0 20 13 42 30 51 31 16 72 -10 147 -95 140 -159 295 -285
350 -285 12 0 28 -3 37 -6 11 -4 16 0 16 14 0 18 -50 69 -139 140 -55 44 -149
161 -187 234 -17 32 -39 67 -48 77 -21 23 -20 59 1 83 17 19 12 29 -21 41 -5
2 4 22 19 45 17 26 34 41 42 38 9 -4 13 4 13 24 0 42 16 77 53 115 57 59 65
72 60 96 -3 15 8 47 26 81 17 32 31 63 31 69 0 7 18 28 41 48 32 30 41 46 46
81 3 26 15 56 28 70 12 14 27 43 33 65 24 86 24 85 8 79 -21 -8 -22 29 -1 46
8 7 15 27 15 44 0 17 7 42 16 55 10 14 14 33 10 51 -3 16 -1 32 3 35 8 4 6
174 -2 270 -17 182 -21 203 -55 280 -42 97 -84 157 -159 225 -100 92 -327 180
-460 180 -50 0 -64 -5 -106 -36z m410 -160 c130 -47 210 -272 200 -564 -3 -74
-13 -171 -22 -215 -9 -44 -21 -98 -25 -120 -16 -73 -42 -160 -51 -170 -5 -5
-9 -16 -9 -24 0 -8 -13 -41 -29 -75 -15 -34 -34 -79 -41 -101 -7 -22 -18 -47
-25 -55 -7 -8 -37 -66 -68 -128 -89 -177 -121 -207 -147 -139 -7 17 -28 64
-46 102 -18 39 -39 102 -47 140 -8 39 -22 87 -31 109 -9 21 -16 53 -16 71 0
18 -7 52 -15 75 -8 23 -15 63 -15 89 0 61 -10 93 -26 87 -7 -3 -18 2 -25 10
-10 13 -10 17 1 24 7 4 19 6 27 3 7 -3 13 2 13 11 0 9 -7 16 -15 16 -8 0 -15
9 -15 20 0 11 7 20 15 20 12 0 13 4 6 18 -6 11 -6 24 0 33 18 28 10 65 -16 77
-14 6 -25 15 -25 19 1 19 19 35 34 30 23 -9 27 4 28 88 0 67 -2 79 -23 101
l-23 25 22 6 c19 4 22 12 22 53 0 30 6 52 15 60 8 7 15 22 15 33 0 23 39 136
53 155 5 6 27 12 49 12 48 0 60 21 29 54 -27 28 -27 41 1 60 26 19 161 13 225
-10z m-591 -413 c-2 -55 -7 -104 -10 -110 -9 -14 -10 -214 -1 -331 7 -102 39
-280 56 -312 6 -11 14 -40 19 -66 13 -78 37 -154 68 -217 16 -33 35 -78 42
-100 7 -22 18 -47 25 -55 8 -8 34 -55 59 -104 51 -101 51 -96 -18 -180 -93
-113 -216 -212 -290 -234 -208 -61 -269 1 -318 328 -6 36 -10 80 -10 98 1 134
6 209 14 219 5 6 11 40 14 75 3 35 9 82 15 106 5 24 12 84 16 135 3 51 9 97
13 102 17 21 50 131 50 165 0 19 13 60 29 90 16 30 38 93 50 139 20 77 37 124
60 161 5 8 14 33 21 55 7 22 22 54 34 70 13 17 25 38 29 48 3 9 13 17 22 17
14 0 15 -14 11 -99z m-166 -141 c0 -5 -4 -10 -10 -10 -5 0 -10 5 -10 10 0 6 5
10 10 10 6 0 10 -4 10 -10z"/>
<path d="M6942 5178 c-17 -17 -15 -32 7 -52 17 -15 20 -15 41 2 19 16 21 22
11 40 -13 24 -40 29 -59 10z"/>
<path d="M760 5165 c-11 -13 -11 -19 3 -32 21 -21 49 -9 45 19 -4 28 -30 35
-48 13z"/>
<path d="M7074 5165 c-4 -9 -2 -21 4 -27 15 -15 44 -1 40 19 -4 23 -36 29 -44
8z"/>
<path d="M624 5156 c-8 -21 13 -46 32 -39 20 8 13 47 -9 51 -9 2 -20 -4 -23
-12z"/>
<path d="M839 5124 c-16 -20 0 -49 27 -49 27 0 31 41 6 54 -15 8 -23 7 -33 -5z"/>
<path d="M7120 5095 c-15 -18 2 -45 30 -45 23 0 34 28 19 46 -15 18 -33 18
-49 -1z"/>
<path d="M584 5089 c-10 -17 13 -36 27 -22 12 12 4 33 -11 33 -5 0 -12 -5 -16
-11z"/>
<path d="M700 5085 c-10 -12 -10 -19 -1 -28 14 -14 46 2 46 24 0 20 -30 23
-45 4z"/>
<path d="M7264 5086 c-7 -19 3 -36 22 -36 10 0 14 8 12 22 -4 26 -26 36 -34
14z"/>
<path d="M7515 5090 c-3 -5 -1 -10 4 -10 6 0 11 5 11 10 0 6 -2 10 -4 10 -3 0
-8 -4 -11 -10z"/>
<path d="M6994 5045 c-4 -9 -2 -21 4 -27 16 -16 47 -5 47 17 0 26 -42 34 -51
10z"/>
<path d="M312 5033 c5 -25 28 -28 28 -4 0 12 -6 21 -16 21 -9 0 -14 -7 -12
-17z"/>
<path d="M463 5024 c-3 -8 -1 -20 5 -26 16 -16 42 -2 42 22 0 24 -38 28 -47 4z"/>
<path d="M794 5015 c-10 -25 4 -45 31 -45 30 0 43 24 25 45 -16 19 -49 19 -56
0z"/>
<path d="M7412 4986 c1 -10 8 -17 13 -17 15 1 12 24 -3 29 -9 3 -13 -2 -10
-12z"/>
<path d="M672 4978 c-14 -14 2 -38 24 -38 18 0 18 24 1 39 -10 8 -17 7 -25 -1z"/>
<path d="M555 4970 c-8 -13 14 -42 26 -34 5 3 9 14 9 25 0 20 -24 26 -35 9z"/>
<path d="M7145 4970 c-4 -6 -1 -17 5 -26 14 -16 40 -2 40 22 0 16 -36 19 -45
4z"/>
<path d="M7042 4954 c-18 -12 -20 -19 -12 -35 12 -21 40 -25 58 -7 31 31 -9
68 -46 42z"/>
<path d="M7250 4945 c0 -29 34 -36 44 -9 8 21 -1 34 -25 34 -14 0 -19 -7 -19
-25z"/>
<path d="M427 4936 c-8 -21 16 -39 31 -24 7 7 12 18 12 25 0 18 -36 17 -43 -1z"/>
<path d="M760 4905 c-20 -25 -8 -50 25 -50 35 0 45 24 20 49 -20 20 -29 20
-45 1z"/>
<path d="M7435 4911 c-7 -12 12 -24 25 -16 11 7 4 25 -10 25 -5 0 -11 -4 -15
-9z"/>
<path d="M270 4875 c0 -9 5 -15 11 -13 6 2 11 8 11 13 0 5 -5 11 -11 13 -6 2
-11 -4 -11 -13z"/>
<path d="M531 4861 c-19 -12 -6 -43 16 -39 10 2 18 12 18 22 0 22 -14 29 -34
17z"/>
<path d="M621 4842 c-12 -23 1 -45 25 -40 12 2 20 13 22 31 3 22 -1 27 -17 27
-11 0 -25 -8 -30 -18z"/>
<path d="M7054 4846 c-9 -23 0 -50 17 -54 21 -4 51 26 47 47 -4 21 -56 28 -64
7z"/>
<path d="M7165 4851 c-3 -6 -1 -20 5 -31 9 -17 14 -18 31 -9 11 5 19 18 17 27
-4 19 -43 29 -53 13z"/>
<path d="M391 4826 c-14 -16 -9 -46 7 -46 21 0 32 26 19 44 -12 16 -14 16 -26
2z"/>
<path d="M7311 4831 c-19 -12 -6 -41 19 -41 16 0 21 5 18 22 -3 25 -17 32 -37
19z"/>
<path d="M725 4804 c-15 -16 -15 -18 3 -37 27 -27 54 -16 50 20 -4 33 -29 41
-53 17z"/>
<path d="M7437 4794 c-9 -10 2 -24 19 -24 8 0 14 7 14 15 0 15 -21 21 -33 9z"/>
<path d="M7086 4765 c-12 -12 -13 -21 -6 -36 13 -23 33 -25 50 -4 29 35 -12
72 -44 40z"/>
<path d="M7204 4745 c-15 -38 21 -60 47 -29 11 14 10 18 -6 30 -24 18 -34 18
-41 -1z"/>
<path d="M185 4730 c-3 -5 1 -10 10 -10 9 0 13 5 10 10 -3 6 -8 10 -10 10 -2
0 -7 -4 -10 -10z"/>
<path d="M610 4725 c-9 -11 -10 -19 -3 -26 17 -17 48 -6 48 16 0 25 -28 31
-45 10z"/>
<path d="M4335 4730 c-11 -4 -32 -21 -48 -37 -33 -36 -117 -200 -117 -230 0
-12 -5 -25 -11 -29 -25 -15 -45 -82 -56 -181 l-5 -51 42 -27 c55 -35 109 -43
142 -21 17 11 27 32 37 78 8 35 40 142 72 239 33 97 59 187 59 200 0 17 -11
30 -40 47 -43 24 -46 25 -75 12z"/>
<path d="M7352 4718 c-17 -17 5 -43 24 -27 8 6 14 18 14 25 0 17 -22 18 -38 2z"/>
<path d="M455 4711 c-3 -5 2 -17 11 -26 21 -21 52 -1 33 21 -13 16 -35 18 -44
5z"/>
<path d="M372 4693 c2 -10 10 -18 18 -18 8 0 16 8 18 18 2 12 -3 17 -18 17
-15 0 -20 -5 -18 -17z"/>
<path d="M710 4685 c-16 -19 3 -45 32 -45 24 0 34 26 18 45 -16 19 -34 19 -50
0z"/>
<path d="M7475 4671 c-7 -12 12 -24 25 -16 11 7 4 25 -10 25 -5 0 -11 -4 -15
-9z"/>
<path d="M7123 4663 c-33 -13 1 -68 35 -56 15 6 16 35 0 51 -13 13 -16 13 -35
5z"/>
<path d="M7233 4663 c-16 -6 -17 -35 -1 -51 17 -17 26 -15 38 9 9 15 8 24 -1
35 -12 15 -16 16 -36 7z"/>
<path d="M260 4650 c0 -5 7 -10 15 -10 8 0 15 5 15 10 0 6 -7 10 -15 10 -8 0
-15 -4 -15 -10z"/>
<path d="M580 4622 c-19 -16 -21 -22 -11 -40 13 -24 31 -28 49 -10 16 16 15
43 -2 57 -10 9 -19 7 -36 -7z"/>
<path d="M680 4585 c-15 -18 -7 -43 16 -52 24 -9 46 24 33 48 -12 23 -32 24
-49 4z"/>
<path d="M7374 4589 c-10 -17 23 -46 37 -32 7 7 9 19 6 27 -7 18 -33 21 -43 5z"/>
<path d="M460 4575 c-11 -13 -11 -19 3 -32 21 -21 49 -9 45 19 -4 28 -30 35
-48 13z"/>
<path d="M335 4571 c-8 -14 26 -44 37 -33 5 5 6 16 2 25 -7 18 -29 23 -39 8z"/>
<path d="M7511 4571 c-15 -10 -8 -41 9 -41 15 0 25 29 14 40 -5 5 -15 5 -23 1z"/>
<path d="M541 4522 c-8 -15 -7 -23 4 -32 21 -18 47 -4 43 22 -4 29 -34 35 -47
10z"/>
<path d="M7293 4533 c-17 -6 -17 -38 0 -52 10 -8 17 -7 25 1 26 26 7 62 -25
51z"/>
<path d="M7140 4515 c-10 -12 -10 -18 0 -30 16 -19 34 -19 51 1 11 14 10 18
-6 30 -24 18 -30 18 -45 -1z"/>
<path d="M451 4496 c-14 -17 -7 -36 14 -36 22 0 29 20 13 36 -13 13 -16 13
-27 0z"/>
<path d="M655 4486 c-20 -15 -17 -44 7 -59 12 -8 21 -7 32 2 36 30 -1 85 -39
57z"/>
<path d="M7400 4485 c-16 -19 -5 -47 17 -43 11 2 18 12 18 27 0 29 -17 37 -35
16z"/>
<path d="M5723 4468 c-23 -30 -163 -438 -163 -474 0 -13 -8 -39 -17 -58 -20
-43 -72 -63 -189 -74 -72 -6 -79 -9 -82 -30 -5 -36 93 -133 144 -141 l39 -7
-1 -49 c-1 -28 -12 -88 -24 -135 -44 -166 -64 -309 -55 -398 8 -77 58 -158
135 -216 44 -33 56 -38 89 -33 47 6 150 85 169 130 7 17 27 43 44 59 21 19 29
34 25 48 -4 15 6 30 39 57 38 32 44 43 44 75 0 25 6 41 20 51 19 13 19 14 1
72 -21 66 -35 78 -57 46 -8 -12 -21 -21 -29 -21 -7 0 -28 -19 -46 -42 -18 -24
-58 -71 -88 -105 -31 -34 -74 -82 -97 -107 -40 -45 -77 -59 -87 -33 -3 7 4 53
15 102 11 50 22 108 24 130 2 21 16 80 30 130 14 49 30 123 35 162 9 80 30
119 69 129 14 4 31 11 38 17 6 5 56 16 110 23 53 7 133 21 177 29 44 9 127 23
185 30 193 24 229 53 158 130 -59 63 -147 67 -426 19 -175 -29 -202 -30 -202
-6 0 10 4 22 9 28 5 5 18 35 29 66 12 31 40 95 62 141 48 101 50 131 11 184
-51 70 -114 102 -138 71z"/>
<path d="M157 4434 c-9 -10 2 -24 19 -24 8 0 14 7 14 15 0 15 -21 21 -33 9z"/>
<path d="M282 4424 c2 -11 11 -20 22 -22 13 -3 17 1 14 14 -2 11 -11 20 -22
22 -13 3 -17 -1 -14 -14z"/>
<path d="M7530 4420 c0 -15 5 -20 18 -18 9 2 17 10 17 18 0 8 -8 16 -17 18
-13 2 -18 -3 -18 -18z"/>
<path d="M527 4423 c-13 -12 -7 -51 8 -57 14 -5 45 17 45 33 0 21 -39 39 -53
24z"/>
<path d="M7167 4413 c-12 -11 -7 -41 7 -46 8 -3 22 0 32 8 15 11 16 15 5 29
-14 17 -33 21 -44 9z"/>
<path d="M7265 4410 c-4 -6 -1 -17 5 -26 14 -16 40 -2 40 22 0 16 -36 19 -45
4z"/>
<path d="M425 4370 c-10 -17 20 -44 40 -36 9 3 15 14 13 23 -4 21 -43 30 -53
13z"/>
<path d="M646 4367 c-28 -21 -17 -52 19 -52 27 0 30 3 30 30 0 34 -20 43 -49
22z"/>
<path d="M7410 4351 c0 -26 17 -36 35 -21 18 15 8 40 -16 40 -12 0 -19 -7 -19
-19z"/>
<path d="M294 4316 c-8 -22 3 -49 19 -43 6 2 12 14 12 27 0 27 -22 39 -31 16z"/>
<path d="M7176 4314 c-20 -19 -20 -25 -2 -50 12 -15 18 -17 33 -8 23 14 28 41
13 59 -16 19 -25 19 -44 -1z"/>
<path d="M7323 4304 c-7 -18 17 -38 31 -24 11 11 1 40 -14 40 -6 0 -13 -7 -17
-16z"/>
<path d="M197 4294 c-8 -8 1 -24 14 -24 5 0 9 7 9 15 0 15 -12 20 -23 9z"/>
<path d="M526 4284 c-24 -23 -16 -49 14 -49 29 0 40 34 17 54 -12 9 -18 8 -31
-5z"/>
<path d="M374 4265 c-7 -18 12 -45 31 -45 18 0 24 21 13 43 -11 21 -37 22 -44
2z"/>
<path d="M621 4247 c-15 -19 -5 -44 21 -53 26 -8 41 7 36 37 -4 28 -39 37 -57
16z"/>
<path d="M7430 4232 c0 -10 3 -22 7 -25 10 -11 32 13 26 29 -8 20 -33 17 -33
-4z"/>
<path d="M7187 4199 c-20 -12 -22 -38 -4 -63 11 -15 17 -17 35 -7 13 7 22 21
22 36 0 29 -28 47 -53 34z"/>
<path d="M7290 4184 c-11 -12 -10 -18 3 -31 13 -13 19 -14 31 -3 20 16 20 36
0 44 -21 8 -20 8 -34 -10z"/>
<path d="M177 4174 c-14 -15 -6 -34 14 -34 14 0 19 5 17 17 -3 18 -20 27 -31
17z"/>
<path d="M517 4147 c-7 -18 11 -37 36 -37 13 0 18 6 15 23 -3 25 -42 36 -51
14z"/>
<path d="M607 4124 c-25 -26 23 -85 50 -62 8 6 13 23 11 37 -2 19 -9 27 -28
29 -14 2 -29 0 -33 -4z"/>
<path d="M377 4114 c-4 -4 -7 -18 -7 -31 0 -27 25 -31 34 -6 7 18 -16 48 -27
37z"/>
<path d="M7474 4107 c-8 -22 11 -46 26 -31 7 7 5 17 -4 30 -14 18 -15 18 -22
1z"/>
<path d="M271 4071 c-17 -11 -7 -41 13 -41 22 0 30 20 15 36 -9 8 -19 10 -28
5z"/>
<path d="M7197 4074 c-13 -14 -7 -43 12 -53 26 -14 50 13 34 37 -11 19 -35 27
-46 16z"/>
<path d="M7708 4063 c7 -3 16 -2 19 1 4 3 -2 6 -13 5 -11 0 -14 -3 -6 -6z"/>
<path d="M7344 4045 c-4 -9 -2 -21 4 -27 15 -15 44 -1 40 19 -4 23 -36 29 -44
8z"/>
<path d="M510 4025 c-16 -19 -6 -45 18 -45 29 0 48 26 32 45 -16 19 -34 19
-50 0z"/>
<path d="M386 3994 c-9 -23 19 -53 35 -37 15 15 7 47 -12 51 -9 2 -19 -5 -23
-14z"/>
<path d="M600 3995 c-18 -21 -5 -45 24 -45 26 0 47 25 39 48 -6 17 -48 15 -63
-3z"/>
<path d="M154 3989 c-10 -17 13 -36 27 -22 12 12 4 33 -11 33 -5 0 -12 -5 -16
-11z"/>
<path d="M4148 3973 c-41 -6 -49 -23 -39 -79 9 -49 2 -217 -19 -449 -6 -66
-11 -212 -12 -324 -1 -234 -6 -221 100 -256 51 -16 56 -16 99 0 l46 18 -7 61
c-3 33 -10 97 -15 141 -15 124 -13 234 10 461 23 226 21 349 -5 389 -23 35
-82 49 -158 38z"/>
<path d="M7197 3974 c-13 -14 -7 -43 12 -53 23 -13 45 8 39 36 -3 18 -38 30
-51 17z"/>
<path d="M7426 3971 c-3 -5 1 -14 8 -20 16 -13 32 2 21 19 -8 12 -22 13 -29 1z"/>
<path d="M7321 3957 c-8 -10 -7 -19 3 -33 14 -18 15 -18 34 0 12 10 18 24 15
32 -7 18 -37 18 -52 1z"/>
<path d="M263 3944 c-7 -18 11 -39 26 -30 17 11 13 46 -4 46 -9 0 -18 -7 -22
-16z"/>
<path d="M514 3926 c-9 -22 4 -36 32 -36 21 0 25 4 22 23 -4 26 -45 37 -54 13z"/>
<path d="M7670 3910 c0 -5 5 -10 10 -10 6 0 10 5 10 10 0 6 -4 10 -10 10 -5 0
-10 -4 -10 -10z"/>
<path d="M625 3897 c-25 -19 -12 -59 18 -55 26 4 35 39 14 56 -10 9 -18 8 -32
-1z"/>
<path d="M3722 3898 c-5 -7 -10 -30 -10 -50 0 -28 -11 -53 -38 -94 -65 -94
-74 -109 -74 -121 0 -7 -15 -32 -32 -55 -18 -24 -46 -75 -62 -113 -16 -39 -36
-77 -45 -85 -9 -8 -20 -22 -24 -30 -4 -8 -21 -35 -37 -60 -17 -25 -37 -60 -45
-77 -8 -18 -19 -33 -23 -33 -4 0 -20 -20 -35 -45 -30 -46 -44 -54 -65 -33 -13
13 -14 68 -3 108 4 14 4 44 -1 68 -6 35 -3 50 17 89 17 30 25 62 25 94 0 46
16 99 30 99 16 0 30 55 30 116 0 77 -22 118 -76 140 -54 22 -69 18 -83 -23 -7
-21 -21 -57 -32 -80 -10 -24 -19 -49 -19 -56 0 -7 -4 -17 -9 -22 -17 -19 -41
-124 -46 -202 -3 -43 -11 -112 -16 -154 -20 -144 26 -279 132 -389 75 -78 148
-78 204 0 17 23 40 54 53 70 12 15 22 35 22 43 0 13 51 98 103 171 24 34 44
13 52 -53 7 -58 10 -65 63 -116 60 -59 75 -64 110 -39 24 17 28 48 12 104 -12
42 17 325 40 385 4 11 13 45 19 75 20 96 23 104 38 138 29 66 -16 177 -91 223
-36 22 -69 24 -84 7z"/>
<path d="M136 3863 c-11 -11 -6 -23 9 -23 8 0 15 4 15 9 0 13 -16 22 -24 14z"/>
<path d="M384 3855 c-4 -9 -2 -21 3 -26 14 -14 45 1 41 20 -4 22 -37 26 -44 6z"/>
<path d="M7214 3846 c-8 -20 -1 -49 12 -53 17 -6 46 26 42 46 -4 21 -46 27
-54 7z"/>
<path d="M7455 3851 c-8 -15 3 -31 21 -31 9 0 14 7 12 17 -4 20 -24 28 -33 14z"/>
<path d="M520 3835 c-10 -13 -10 -19 5 -35 10 -11 24 -20 31 -20 15 0 29 43
19 59 -9 16 -41 13 -55 -4z"/>
<path d="M4885 3833 c-16 -3 -41 -13 -56 -24 -33 -23 -39 -23 -99 -2 -44 16
-50 16 -72 1 -24 -16 -95 -132 -152 -248 -15 -30 -34 -68 -43 -85 -31 -55 -56
-215 -48 -299 8 -84 31 -136 92 -207 60 -71 98 -97 167 -115 73 -19 115 -8
193 50 95 70 164 149 269 306 112 167 133 250 93 373 -20 62 -32 81 -88 138
-93 93 -167 126 -256 112z m190 -170 c22 -10 38 -27 42 -42 16 -64 -99 -270
-241 -431 -102 -116 -266 -198 -310 -155 -18 19 -19 32 -6 132 9 73 45 200 61
218 5 5 9 16 9 25 0 41 91 176 134 199 17 10 29 10 44 2 29 -15 57 -14 72 4
11 13 74 47 110 59 28 9 49 6 85 -11z"/>
<path d="M7330 3814 c-11 -12 -10 -18 3 -32 16 -15 18 -15 34 0 13 14 14 20 3
32 -7 9 -16 16 -20 16 -4 0 -13 -7 -20 -16z"/>
<path d="M7564 3809 c-10 -17 13 -36 27 -22 12 12 4 33 -11 33 -5 0 -12 -5
-16 -11z"/>
<path d="M290 3790 c0 -11 6 -20 13 -20 19 0 27 10 20 26 -8 21 -33 17 -33 -6z"/>
<path d="M617 3794 c-16 -16 -7 -53 15 -60 24 -7 51 19 46 46 -3 16 -49 26
-61 14z"/>
<path d="M410 3754 c-11 -12 -11 -18 1 -30 20 -19 53 3 43 29 -8 21 -27 22
-44 1z"/>
<path d="M7204 3725 c-8 -21 2 -45 19 -45 20 0 40 27 33 45 -7 19 -45 20 -52
0z"/>
<path d="M7410 3716 c0 -18 27 -39 40 -31 15 9 12 32 -6 39 -24 9 -34 7 -34
-8z"/>
<path d="M493 3704 c-3 -8 2 -23 11 -32 14 -15 18 -15 31 -1 9 9 13 23 9 32
-8 21 -43 22 -51 1z"/>
<path d="M7335 3710 c-8 -14 3 -30 21 -30 8 0 14 9 14 20 0 21 -24 28 -35 10z"/>
<path d="M235 3700 c-9 -15 3 -30 20 -24 7 3 11 12 8 20 -6 16 -19 18 -28 4z"/>
<path d="M619 3668 c-10 -18 -8 -24 7 -35 10 -7 23 -12 28 -10 17 6 29 34 23
51 -9 23 -44 20 -58 -6z"/>
<path d="M372 3653 c4 -22 43 -25 43 -3 0 8 -11 16 -23 18 -19 3 -23 0 -20
-15z"/>
<path d="M7552 3643 c2 -10 10 -18 18 -18 8 0 16 8 18 18 2 12 -3 17 -18 17
-15 0 -20 -5 -18 -17z"/>
<path d="M7200 3625 c-12 -15 -7 -45 8 -45 4 0 17 6 27 14 16 12 17 16 6 30
-17 20 -25 20 -41 1z"/>
<path d="M510 3595 c-16 -19 -5 -47 17 -43 11 2 18 12 18 27 0 29 -17 37 -35
16z"/>
<path d="M7293 3593 c-16 -6 -17 -49 -3 -58 15 -9 40 14 40 35 0 19 -17 30
-37 23z"/>
<path d="M7416 3583 c-3 -3 -6 -15 -6 -25 0 -22 35 -25 44 -3 5 15 -26 39 -38
28z"/>
<path d="M262 3558 c2 -12 10 -23 18 -23 22 0 19 39 -3 43 -15 3 -18 -1 -15
-20z"/>
<path d="M622 3571 c-23 -14 -10 -56 17 -59 36 -5 57 25 34 50 -18 20 -31 22
-51 9z"/>
<path d="M7190 3535 c-18 -21 -4 -47 22 -43 29 4 35 34 10 47 -15 8 -23 7 -32
-4z"/>
<path d="M190 3520 c0 -5 5 -10 10 -10 6 0 10 5 10 10 0 6 -4 10 -10 10 -5 0
-10 -4 -10 -10z"/>
<path d="M7520 3515 c0 -8 7 -15 15 -15 8 0 15 7 15 15 0 8 -7 15 -15 15 -8 0
-15 -7 -15 -15z"/>
<path d="M394 3507 c-8 -22 -1 -30 21 -25 14 3 14 5 1 23 -14 19 -15 19 -22 2z"/>
<path d="M530 3475 c-17 -20 -5 -45 20 -45 11 0 23 7 26 15 6 15 -11 45 -26
45 -4 0 -13 -7 -20 -15z"/>
<path d="M7325 3470 c-3 -6 1 -13 10 -16 19 -8 30 0 20 15 -8 14 -22 14 -30 1z"/>
<path d="M634 3455 c-9 -23 3 -45 24 -45 28 0 43 20 31 42 -12 22 -47 24 -55
3z"/>
<path d="M7715 3460 c3 -5 8 -10 11 -10 2 0 4 5 4 10 0 6 -5 10 -11 10 -5 0
-7 -4 -4 -10z"/>
<path d="M430 3416 c-13 -17 -6 -36 15 -36 19 0 26 27 11 39 -10 8 -17 7 -26
-3z"/>
<path d="M7167 3414 c-11 -12 -8 -41 6 -53 19 -15 50 9 45 35 -3 19 -38 31
-51 18z"/>
<path d="M7530 3394 c-9 -10 -10 -18 -2 -26 12 -12 32 -2 32 17 0 21 -16 26
-30 9z"/>
<path d="M7386 3381 c-9 -14 5 -42 18 -38 18 6 20 47 2 47 -8 0 -17 -4 -20 -9z"/>
<path d="M7257 3356 c-3 -8 1 -22 8 -33 13 -17 15 -17 31 -1 14 14 15 20 4 32
-16 20 -36 20 -43 2z"/>
<path d="M553 3343 c-18 -7 -16 -40 2 -47 22 -8 49 23 34 40 -12 15 -16 16
-36 7z"/>
<path d="M657 3344 c-13 -14 -7 -43 12 -53 27 -15 60 11 45 36 -12 19 -45 29
-57 17z"/>
<path d="M7148 3295 c-15 -33 5 -60 33 -44 22 11 25 39 7 57 -18 18 -27 15
-40 -13z"/>
<path d="M7648 3303 c7 -3 16 -2 19 1 4 3 -2 6 -13 5 -11 0 -14 -3 -6 -6z"/>
<path d="M444 3285 c-9 -24 22 -53 38 -37 9 9 10 17 2 29 -15 24 -33 27 -40 8z"/>
<path d="M7460 3261 c0 -5 6 -14 14 -20 16 -13 32 2 21 19 -8 12 -35 13 -35 1z"/>
<path d="M7241 3247 c-13 -16 -5 -47 13 -47 21 0 38 18 34 36 -4 23 -31 30
-47 11z"/>
<path d="M317 3234 c-4 -4 -7 -16 -7 -26 0 -20 25 -25 36 -7 8 13 -19 43 -29
33z"/>
<path d="M558 3228 c-9 -23 3 -38 29 -38 20 0 24 4 21 23 -3 25 -42 37 -50 15z"/>
<path d="M681 3227 c-18 -23 -2 -49 28 -45 20 2 26 8 26 28 0 29 -34 40 -54
17z"/>
<path d="M7362 3203 c2 -10 10 -18 18 -18 8 0 16 8 18 18 2 12 -3 17 -18 17
-15 0 -20 -5 -18 -17z"/>
<path d="M7146 3197 c-15 -11 -15 -14 -2 -32 15 -20 15 -20 37 1 21 22 21 22
2 33 -15 7 -25 7 -37 -2z"/>
<path d="M7536 3172 c-3 -6 -1 -14 5 -17 15 -10 25 3 12 16 -7 7 -13 7 -17 1z"/>
<path d="M482 3148 c-16 -16 -15 -33 4 -49 14 -11 18 -10 30 5 9 13 10 24 3
37 -11 22 -20 24 -37 7z"/>
<path d="M576 3125 c-19 -19 -13 -35 14 -35 26 0 35 19 18 37 -13 13 -17 12
-32 -2z"/>
<path d="M696 3121 c-17 -18 -17 -20 3 -40 35 -35 78 3 45 40 -21 24 -27 24
-48 0z"/>
<path d="M7225 3110 c-10 -17 20 -44 40 -36 9 3 15 14 13 23 -4 21 -43 30 -53
13z"/>
<path d="M7102 3088 c-16 -16 -15 -33 2 -47 18 -15 46 -4 46 18 0 17 -18 41
-30 41 -3 0 -11 -5 -18 -12z"/>
<path d="M7476 3071 c-4 -5 -2 -12 3 -15 5 -4 12 -2 15 3 4 5 2 12 -3 15 -5 4
-12 2 -15 -3z"/>
<path d="M480 3040 c0 -5 4 -10 9 -10 6 0 13 5 16 10 3 6 -1 10 -9 10 -9 0
-16 -4 -16 -10z"/>
<path d="M7354 3026 c-8 -21 3 -36 27 -36 15 0 20 6 17 22 -4 27 -35 37 -44
14z"/>
<path d="M620 3005 c-14 -16 -10 -47 6 -52 7 -2 19 3 28 12 12 12 13 21 6 36
-13 23 -23 24 -40 4z"/>
<path d="M733 3013 c-20 -8 -15 -41 7 -48 25 -8 40 1 40 25 0 14 -23 34 -33
29 -1 0 -8 -3 -14 -6z"/>
<path d="M7194 3005 c-4 -9 -2 -21 4 -27 15 -15 44 -1 40 19 -4 23 -36 29 -44
8z"/>
<path d="M7062 2948 c-7 -7 -8 -17 -1 -30 12 -22 32 -23 49 -3 23 28 -21 60
-48 33z"/>
<path d="M7167 2923 c-14 -13 -6 -33 13 -33 13 0 20 7 20 20 0 19 -20 27 -33
13z"/>
<path d="M772 2908 c-19 -19 -14 -37 13 -44 34 -8 58 12 44 37 -11 22 -39 25
-57 7z"/>
<path d="M507 2903 c-11 -10 -8 -41 4 -49 6 -3 18 1 27 9 13 13 13 19 2 31
-14 17 -23 20 -33 9z"/>
<path d="M653 2893 c-21 -8 -15 -43 6 -43 11 0 23 5 27 11 8 14 -17 38 -33 32z"/>
<path d="M7315 2891 c-3 -5 -1 -12 5 -16 12 -7 30 2 30 16 0 12 -27 12 -35 0z"/>
<path d="M7030 2840 c0 -26 38 -47 46 -25 9 23 -3 45 -26 45 -13 0 -20 -7 -20
-20z"/>
<path d="M7157 2813 c-11 -10 -8 -41 4 -49 16 -9 43 21 36 40 -7 16 -28 21
-40 9z"/>
<path d="M837 2804 c-15 -15 -7 -54 11 -54 32 0 48 17 36 37 -12 20 -36 28
-47 17z"/>
<path d="M7575 2800 c3 -5 8 -10 11 -10 2 0 4 5 4 10 0 6 -5 10 -11 10 -5 0
-7 -4 -4 -10z"/>
<path d="M571 2791 c-15 -10 -8 -41 9 -41 15 0 25 29 14 40 -5 5 -15 5 -23 1z"/>
<path d="M717 2784 c-10 -10 -9 -52 2 -58 4 -3 17 1 27 9 15 11 17 18 8 31
-12 20 -27 27 -37 18z"/>
<path d="M7294 2769 c-8 -14 11 -33 25 -25 6 4 11 14 11 22 0 16 -26 19 -36 3z"/>
<path d="M6993 2734 c-8 -20 8 -48 30 -52 22 -5 42 35 26 54 -16 19 -48 18
-56 -2z"/>
<path d="M863 2704 c-3 -8 2 -23 11 -32 14 -15 18 -15 31 -1 9 9 13 23 9 32
-8 21 -43 22 -51 1z"/>
<path d="M472 2691 c4 -13 18 -16 19 -4 0 4 -5 9 -11 12 -7 2 -11 -2 -8 -8z"/>
<path d="M743 2693 c-19 -7 -15 -37 6 -50 16 -10 22 -9 32 3 21 25 -8 60 -38
47z"/>
<path d="M7130 2675 c-10 -12 -9 -16 5 -21 23 -9 40 10 22 25 -11 9 -17 8 -27
-4z"/>
<path d="M7353 2668 c2 -7 10 -13 17 -13 7 0 15 6 18 13 2 7 -5 12 -18 12 -13
0 -20 -5 -17 -12z"/>
<path d="M590 2655 c0 -8 7 -15 15 -15 8 0 15 7 15 15 0 8 -7 15 -15 15 -8 0
-15 -7 -15 -15z"/>
<path d="M526 2631 c-3 -5 0 -14 8 -20 10 -9 15 -8 19 3 9 22 -15 37 -27 17z"/>
<path d="M6960 2625 c-8 -10 -9 -19 0 -34 12 -23 12 -23 34 -15 22 8 20 41 -3
53 -14 8 -22 7 -31 -4z"/>
<path d="M885 2604 c-20 -21 -19 -41 4 -53 14 -8 22 -6 35 8 30 33 -8 76 -39
45z"/>
<path d="M7172 2588 c-15 -18 1 -41 24 -36 23 4 26 41 3 46 -9 1 -21 -3 -27
-10z"/>
<path d="M616 2571 c-3 -4 1 -17 9 -27 10 -15 16 -16 26 -7 6 6 9 19 6 27 -7
17 -32 22 -41 7z"/>
<path d="M769 2559 c-9 -17 -8 -24 4 -37 9 -8 23 -12 31 -9 22 9 20 44 -4 57
-16 8 -21 6 -31 -11z"/>
<path d="M7046 2572 c-2 -4 -1 -14 4 -22 7 -11 11 -11 24 -1 9 7 13 17 10 22
-7 11 -31 12 -38 1z"/>
<path d="M6914 2525 c-8 -19 3 -35 25 -35 25 0 32 10 20 31 -12 23 -37 25 -45
4z"/>
<path d="M925 2496 c-22 -16 -14 -46 13 -46 29 0 48 26 32 45 -15 18 -21 19
-45 1z"/>
<path d="M515 2490 c-4 -6 -3 -16 3 -22 6 -6 12 -6 17 2 4 6 3 16 -3 22 -6 6
-12 6 -17 -2z"/>
<path d="M663 2474 c-8 -21 13 -42 28 -27 13 13 5 43 -11 43 -6 0 -13 -7 -17
-16z"/>
<path d="M7034 2465 c-4 -9 -2 -21 4 -27 15 -15 44 -1 40 19 -4 23 -36 29 -44
8z"/>
<path d="M7304 2459 c-10 -17 13 -36 27 -22 12 12 4 33 -11 33 -5 0 -12 -5
-16 -11z"/>
<path d="M817 2454 c-9 -9 4 -34 18 -34 14 0 27 25 18 34 -4 3 -12 6 -18 6 -6
0 -14 -3 -18 -6z"/>
<path d="M6886 2445 c-12 -12 -13 -21 -6 -36 13 -23 33 -25 50 -3 11 13 10 18
-7 35 -19 19 -21 19 -37 4z"/>
<path d="M7147 2453 c-11 -10 13 -32 29 -26 20 8 17 33 -4 33 -10 0 -22 -3
-25 -7z"/>
<path d="M962 2408 c-18 -18 -15 -36 7 -48 28 -15 39 -13 51 11 20 37 -28 67
-58 37z"/>
<path d="M763 2373 c-15 -5 -17 -39 -4 -47 15 -9 45 20 38 38 -7 16 -13 18
-34 9z"/>
<path d="M851 2362 c-15 -28 13 -52 35 -30 13 13 12 16 -5 32 -19 17 -20 17
-30 -2z"/>
<path d="M6940 2350 c-14 -26 -1 -44 26 -38 13 2 19 12 19 28 0 32 -30 38 -45
10z"/>
<path d="M642 2349 c2 -6 8 -10 13 -10 5 0 11 4 13 10 2 6 -4 11 -13 11 -9 0
-15 -5 -13 -11z"/>
<path d="M6814 2346 c-11 -29 0 -51 26 -51 21 0 25 5 25 30 0 24 -5 31 -23 33
-13 2 -24 -3 -28 -12z"/>
<path d="M7190 2321 c0 -11 4 -22 9 -25 12 -8 34 21 26 34 -11 17 -35 11 -35
-9z"/>
<path d="M7100 2316 c0 -9 5 -16 10 -16 6 0 10 4 10 9 0 6 -4 13 -10 16 -5 3
-10 -1 -10 -9z"/>
<path d="M1021 2302 c-8 -15 -6 -23 8 -36 15 -13 20 -14 35 -3 10 7 17 22 14
33 -5 26 -44 30 -57 6z"/>
<path d="M900 2271 c0 -10 7 -25 16 -32 14 -11 18 -10 30 6 10 13 11 22 3 32
-17 20 -49 16 -49 -6z"/>
<path d="M555 2250 c-4 -6 -3 -16 3 -22 6 -6 12 -6 17 2 4 6 3 16 -3 22 -6 6
-12 6 -17 -2z"/>
<path d="M6774 2245 c-4 -9 0 -23 9 -32 21 -21 49 -9 45 19 -4 28 -45 38 -54
13z"/>
<path d="M806 2235 c-3 -9 1 -18 10 -22 19 -7 28 2 21 22 -8 19 -23 19 -31 0z"/>
<path d="M6907 2243 c-12 -12 -7 -31 10 -37 19 -8 48 17 39 33 -8 12 -39 15
-49 4z"/>
<path d="M7020 2231 c0 -21 26 -36 36 -20 9 15 -3 39 -21 39 -8 0 -15 -9 -15
-19z"/>
<path d="M1087 2234 c-4 -4 -7 -16 -7 -26 0 -13 7 -18 26 -18 21 0 25 4 22 22
-3 23 -27 35 -41 22z"/>
<path d="M973 2193 c-7 -2 -13 -13 -13 -24 0 -13 7 -19 24 -19 32 0 40 14 20
34 -8 9 -16 16 -17 15 -1 0 -8 -3 -14 -6z"/>
<path d="M6832 2143 c4 -32 20 -39 41 -18 21 21 11 45 -20 45 -21 0 -24 -4
-21 -27z"/>
<path d="M757 2154 c-8 -8 1 -24 14 -24 5 0 9 7 9 15 0 15 -12 20 -23 9z"/>
<path d="M1135 2140 c-8 -27 1 -40 30 -40 24 0 42 30 30 50 -11 18 -53 11 -60
-10z"/>
<path d="M6706 2134 c-7 -19 10 -44 31 -44 19 0 28 27 13 45 -16 20 -36 19
-44 -1z"/>
<path d="M855 2130 c-9 -15 14 -40 36 -40 23 0 26 35 3 44 -22 9 -32 7 -39 -4z"/>
<path d="M6974 2125 c-9 -21 3 -45 21 -45 21 0 30 27 15 45 -16 19 -29 19 -36
0z"/>
<path d="M1004 2086 c-11 -29 1 -51 26 -51 31 0 40 33 14 52 -23 17 -33 16
-40 -1z"/>
<path d="M1192 2073 c-12 -23 -5 -40 19 -53 15 -8 22 -5 36 16 16 25 16 27 -2
40 -25 19 -42 18 -53 -3z"/>
<path d="M717 2074 c-11 -11 3 -24 18 -18 8 4 12 10 9 15 -6 11 -18 12 -27 3z"/>
<path d="M6764 2065 c-9 -23 3 -45 25 -45 23 0 35 28 20 46 -15 18 -38 18 -45
-1z"/>
<path d="M6917 2053 c-10 -9 -9 -41 2 -47 4 -3 16 1 27 8 15 12 16 16 5 30
-15 17 -24 20 -34 9z"/>
<path d="M6646 2035 c-3 -8 2 -22 11 -30 14 -15 17 -15 31 -1 13 12 13 18 2
30 -16 20 -36 20 -44 1z"/>
<path d="M900 2005 c-25 -30 5 -57 40 -35 11 7 12 14 4 27 -15 23 -29 26 -44
8z"/>
<path d="M1087 2008 c-21 -11 -22 -47 -2 -55 9 -3 24 2 35 12 31 28 3 64 -33
43z"/>
<path d="M7195 2010 c-11 -17 5 -32 21 -19 7 6 11 15 8 20 -7 12 -21 11 -29
-1z"/>
<path d="M796 1991 c-10 -16 5 -41 25 -41 21 0 25 20 7 38 -14 14 -25 15 -32
3z"/>
<path d="M7042 1991 c2 -7 7 -12 11 -12 12 1 9 15 -3 20 -7 2 -11 -2 -8 -8z"/>
<path d="M1259 1964 c-17 -21 0 -48 34 -52 21 -3 28 2 33 22 3 14 3 30 -1 35
-10 16 -51 13 -66 -5z"/>
<path d="M6833 1944 c-3 -8 -1 -20 5 -26 16 -16 42 -2 42 22 0 24 -38 28 -47
4z"/>
<path d="M6714 1936 c-3 -9 -3 -23 0 -31 8 -22 48 0 44 23 -4 22 -36 28 -44 8z"/>
<path d="M6577 1934 c-12 -12 -8 -41 9 -54 22 -19 54 12 38 38 -12 19 -36 27
-47 16z"/>
<path d="M1010 1915 c-10 -12 -10 -18 0 -29 13 -17 36 -12 44 10 8 21 -29 37
-44 19z"/>
<path d="M7114 1916 c-8 -22 3 -33 18 -18 9 9 9 15 0 24 -9 9 -13 7 -18 -6z"/>
<path d="M1120 1895 c-16 -19 -6 -45 18 -45 29 0 48 26 32 45 -16 19 -34 19
-50 0z"/>
<path d="M6962 1869 c2 -6 8 -10 13 -10 5 0 11 4 13 10 2 6 -4 11 -13 11 -9 0
-15 -5 -13 -11z"/>
<path d="M1310 1855 c-14 -17 -4 -55 14 -55 7 0 21 9 31 20 15 16 15 22 5 35
-16 19 -34 19 -50 0z"/>
<path d="M6517 1854 c-4 -4 -7 -16 -7 -26 0 -13 7 -18 26 -18 21 0 25 4 22 22
-3 23 -27 35 -41 22z"/>
<path d="M1054 1815 c-9 -23 3 -45 26 -45 25 0 37 25 20 45 -16 19 -39 19 -46
0z"/>
<path d="M6660 1816 c0 -10 9 -16 21 -16 24 0 21 23 -4 28 -10 2 -17 -3 -17
-12z"/>
<path d="M1213 1813 c-18 -7 -16 -42 3 -50 8 -3 22 1 30 9 13 13 12 16 -3 30
-10 8 -24 13 -30 11z"/>
<path d="M935 1789 c-10 -15 1 -23 20 -15 9 3 13 10 10 16 -8 13 -22 13 -30
-1z"/>
<path d="M1417 1789 c-9 -6 -17 -21 -17 -34 0 -20 5 -25 25 -25 34 0 50 32 27
53 -12 11 -22 13 -35 6z"/>
<path d="M782 1773 c2 -10 10 -18 18 -18 22 0 18 29 -3 33 -14 3 -18 -1 -15
-15z"/>
<path d="M6572 1777 c-14 -17 1 -40 23 -35 26 5 30 25 7 37 -15 8 -23 7 -30
-2z"/>
<path d="M6437 1773 c-4 -3 -7 -17 -7 -30 0 -16 6 -23 20 -23 25 0 36 25 20
45 -14 16 -23 19 -33 8z"/>
<path d="M6855 1770 c-4 -6 -3 -16 3 -22 6 -6 12 -6 17 2 4 6 3 16 -3 22 -6 6
-12 6 -17 -2z"/>
<path d="M6750 1735 c0 -8 5 -15 10 -15 6 0 10 7 10 15 0 8 -4 15 -10 15 -5 0
-10 -7 -10 -15z"/>
<path d="M7041 1734 c0 -11 3 -14 6 -6 3 7 2 16 -1 19 -3 4 -6 -2 -5 -13z"/>
<path d="M1147 1734 c-12 -12 -8 -42 6 -47 21 -8 39 8 35 29 -3 19 -29 30 -41
18z"/>
<path d="M1284 1725 c-10 -25 22 -53 44 -39 9 6 17 20 17 30 0 25 -52 33 -61
9z"/>
<path d="M1003 1704 c-8 -21 13 -42 28 -27 13 13 5 43 -11 43 -6 0 -13 -7 -17
-16z"/>
<path d="M1470 1699 c-10 -17 -9 -24 4 -37 21 -22 51 -4 51 29 0 33 -39 39
-55 8z"/>
<path d="M6371 1696 c-17 -21 -7 -46 18 -46 30 0 36 19 14 42 -18 17 -21 17
-32 4z"/>
<path d="M6490 1689 c-14 -26 2 -49 30 -42 26 7 26 39 0 53 -15 8 -21 6 -30
-11z"/>
<path d="M916 1654 c-7 -18 21 -31 36 -16 7 7 4 13 -10 21 -16 8 -21 7 -26 -5z"/>
<path d="M6650 1635 c-10 -11 -10 -19 -2 -27 15 -15 44 -2 40 19 -4 23 -22 27
-38 8z"/>
<path d="M1220 1624 c-11 -12 -10 -18 6 -35 18 -17 22 -18 39 -5 19 14 19 15
1 35 -23 25 -30 26 -46 5z"/>
<path d="M1374 1626 c-3 -9 -3 -23 0 -31 8 -22 48 0 44 23 -4 22 -36 28 -44 8z"/>
<path d="M6289 1624 c-16 -20 0 -49 27 -49 27 0 31 41 6 54 -15 8 -23 7 -33
-5z"/>
<path d="M1080 1611 c0 -16 6 -21 26 -21 33 0 30 33 -4 38 -17 3 -22 -2 -22
-17z"/>
<path d="M1554 1603 c-5 -19 -2 -30 11 -39 33 -24 63 24 33 54 -20 20 -37 14
-44 -15z"/>
<path d="M6421 1596 c-9 -11 -8 -17 5 -31 19 -19 38 -7 32 21 -4 23 -22 28
-37 10z"/>
<path d="M6740 1589 c0 -24 23 -21 28 4 2 10 -3 17 -12 17 -10 0 -16 -9 -16
-21z"/>
<path d="M1432 1571 c-23 -14 -10 -46 18 -46 20 0 25 5 25 25 0 26 -20 36 -43
21z"/>
<path d="M6531 1542 c-14 -26 5 -45 31 -31 14 8 16 14 8 29 -13 25 -26 25 -39
2z"/>
<path d="M1632 1538 c-16 -16 -15 -33 2 -47 10 -9 19 -7 37 8 20 16 21 21 10
35 -16 19 -33 20 -49 4z"/>
<path d="M1159 1504 c-9 -11 -9 -18 -1 -26 14 -14 42 -3 42 16 0 20 -27 27
-41 10z"/>
<path d="M1314 1505 c-9 -21 3 -45 21 -45 21 0 30 27 15 45 -16 19 -29 19 -36
0z"/>
<path d="M6204 1505 c-7 -18 12 -45 31 -45 18 0 24 21 13 43 -11 21 -37 22
-44 2z"/>
<path d="M6375 1500 c-8 -26 1 -40 26 -40 25 0 35 25 19 45 -17 21 -37 19 -45
-5z"/>
<path d="M6700 1495 c0 -8 5 -15 10 -15 6 0 10 7 10 15 0 8 -4 15 -10 15 -5 0
-10 -7 -10 -15z"/>
<path d="M1015 1490 c-8 -13 3 -30 21 -30 18 0 18 14 0 29 -10 8 -16 9 -21 1z"/>
<path d="M6474 1486 c-9 -24 4 -48 23 -44 12 2 18 12 18 28 0 29 -32 41 -41
16z"/>
<path d="M1527 1474 c-4 -4 -7 -16 -7 -26 0 -15 6 -19 28 -16 19 2 27 9 27 23
0 20 -33 33 -48 19z"/>
<path d="M1690 1439 c-13 -23 1 -49 26 -49 21 0 38 38 23 56 -16 20 -36 17
-49 -7z"/>
<path d="M6131 1442 c-11 -20 2 -42 25 -42 19 0 24 28 8 45 -19 19 -21 19 -33
-3z"/>
<path d="M1390 1410 c0 -13 7 -20 20 -20 13 0 20 7 20 20 0 13 -7 20 -20 20
-13 0 -20 -7 -20 -20z"/>
<path d="M1780 1401 c-23 -44 31 -78 63 -40 16 21 16 23 1 40 -22 24 -51 24
-64 0z"/>
<path d="M6271 1402 c-7 -14 -7 -24 3 -38 12 -16 16 -16 30 -4 21 17 17 54 -6
58 -9 2 -21 -5 -27 -16z"/>
<path d="M1232 1388 c3 -7 13 -15 22 -16 12 -3 17 1 14 10 -3 7 -13 15 -22 16
-12 3 -17 -1 -14 -10z"/>
<path d="M6594 1389 c-3 -6 -2 -15 2 -19 12 -12 38 5 30 19 -9 14 -23 14 -32
0z"/>
<path d="M6716 1391 c-4 -5 -2 -12 3 -15 5 -4 12 -2 15 3 4 5 2 12 -3 15 -5 4
-12 2 -15 -3z"/>
<path d="M1580 1375 c-11 -13 -11 -19 3 -32 21 -21 49 -9 45 19 -4 28 -30 35
-48 13z"/>
<path d="M6054 1375 c-4 -9 -2 -21 4 -27 15 -15 44 -1 40 19 -4 23 -36 29 -44
8z"/>
<path d="M1473 1363 c-16 -6 -17 -33 -3 -33 11 0 26 28 19 34 -2 2 -10 1 -16
-1z"/>
<path d="M6171 1356 c-17 -21 -7 -46 18 -46 30 0 36 19 14 42 -18 17 -21 17
-32 4z"/>
<path d="M6415 1350 c-4 -6 -3 -16 3 -22 6 -6 12 -6 17 2 4 6 3 16 -3 22 -6 6
-12 6 -17 -2z"/>
<path d="M1882 1341 c-18 -11 -11 -55 8 -59 9 -1 24 4 35 12 19 14 19 15 1 35
-21 23 -25 24 -44 12z"/>
<path d="M1150 1316 c0 -9 7 -16 16 -16 17 0 14 22 -4 28 -7 2 -12 -3 -12 -12z"/>
<path d="M1347 1323 c-4 -3 -7 -12 -7 -20 0 -15 26 -18 34 -4 7 11 -18 33 -27
24z"/>
<path d="M6496 1311 c-4 -5 -2 -12 3 -15 5 -4 12 -2 15 3 4 5 2 12 -3 15 -5 4
-12 2 -15 -3z"/>
<path d="M1673 1294 c-15 -39 38 -67 60 -32 8 12 7 21 -2 32 -17 21 -50 20
-58 0z"/>
<path d="M5950 1296 c-18 -22 -5 -46 25 -46 23 0 26 4 23 27 -3 32 -29 41 -48
19z"/>
<path d="M6312 1288 c-16 -16 -15 -33 1 -47 11 -8 18 -7 31 7 15 18 15 20 -2
35 -14 13 -21 14 -30 5z"/>
<path d="M1541 1266 c-13 -15 -6 -56 8 -56 15 0 33 29 29 46 -4 23 -22 28 -37
10z"/>
<path d="M6615 1271 c-6 -11 9 -23 19 -14 9 9 7 23 -3 23 -6 0 -12 -4 -16 -9z"/>
<path d="M1970 1241 c-8 -17 -7 -24 10 -41 28 -28 63 -11 58 28 -4 35 -51 44
-68 13z"/>
<path d="M6110 1245 c-15 -18 -5 -35 20 -35 10 0 22 5 25 10 7 11 -12 40 -25
40 -4 0 -13 -7 -20 -15z"/>
<path d="M5862 1238 c-30 -30 9 -69 44 -44 18 14 18 15 0 35 -22 24 -28 25
-44 9z"/>
<path d="M6231 1240 c-17 -10 -7 -40 13 -40 7 0 16 6 19 14 8 19 -15 37 -32
26z"/>
<path d="M6391 1236 c-9 -10 -8 -16 4 -26 19 -16 41 1 32 24 -8 20 -21 20 -36
2z"/>
<path d="M1793 1233 c-18 -6 -16 -38 2 -53 20 -16 45 -6 45 19 0 22 -27 41
-47 34z"/>
<path d="M1225 1191 c-8 -15 3 -31 21 -31 9 0 14 7 12 17 -4 20 -24 28 -33 14z"/>
<path d="M2065 1186 c-20 -15 -17 -44 7 -59 12 -8 21 -7 32 2 36 30 -1 85 -39
57z"/>
<path d="M6016 1193 c-12 -12 -6 -44 10 -50 18 -7 35 13 27 33 -5 15 -29 25
-37 17z"/>
<path d="M1427 1175 c-8 -18 11 -31 25 -17 11 11 3 32 -12 32 -4 0 -10 -7 -13
-15z"/>
<path d="M1614 1175 c-4 -9 -2 -21 4 -27 15 -15 44 -1 40 19 -4 23 -36 29 -44
8z"/>
<path d="M1874 1165 c-7 -17 12 -45 31 -45 7 0 18 7 25 15 10 12 10 18 0 30
-16 19 -49 19 -56 0z"/>
<path d="M5772 1158 c-16 -16 -15 -33 4 -48 22 -19 54 12 38 37 -14 22 -27 26
-42 11z"/>
<path d="M6120 1145 c-16 -19 -5 -47 17 -43 11 2 18 12 18 27 0 29 -17 37 -35
16z"/>
<path d="M6370 1140 c0 -11 7 -20 15 -20 8 0 15 9 15 20 0 11 -7 20 -15 20 -8
0 -15 -9 -15 -20z"/>
<path d="M1540 1126 c0 -24 26 -38 40 -22 6 9 9 20 5 26 -9 15 -45 12 -45 -4z"/>
<path d="M1960 1116 c-27 -33 18 -72 48 -42 13 13 14 20 6 34 -15 23 -38 26
-54 8z"/>
<path d="M5925 1108 c-14 -21 -14 -24 1 -35 33 -24 71 16 42 45 -17 17 -25 15
-43 -10z"/>
<path d="M2150 1099 c-10 -17 -9 -24 4 -37 21 -22 51 -4 51 29 0 33 -39 39
-55 8z"/>
<path d="M1734 1095 c-8 -20 4 -35 27 -35 14 0 19 7 19 25 0 18 -5 25 -20 25
-11 0 -23 -7 -26 -15z"/>
<path d="M5692 1101 c-23 -14 -10 -46 18 -46 20 0 25 5 25 25 0 26 -20 36 -43
21z"/>
<path d="M6236 1083 c-12 -12 -6 -33 9 -33 8 0 15 6 15 14 0 17 -14 28 -24 19z"/>
<path d="M1633 1064 c-7 -19 11 -39 26 -30 16 10 13 33 -4 40 -9 3 -18 -1 -22
-10z"/>
<path d="M5810 1054 c-11 -12 -10 -18 3 -32 16 -15 18 -15 34 0 13 14 14 20 3
32 -7 9 -16 16 -20 16 -4 0 -13 -7 -20 -16z"/>
<path d="M1814 1045 c-4 -9 -2 -21 4 -27 15 -15 44 -1 40 19 -4 23 -36 29 -44
8z"/>
<path d="M2093 1043 c-18 -7 -16 -40 3 -47 9 -3 20 -4 25 0 23 14 -3 56 -28
47z"/>
<path d="M2247 1044 c-11 -12 -8 -41 6 -53 19 -15 50 9 45 35 -3 19 -38 31
-51 18z"/>
<path d="M5584 1035 c-8 -19 3 -35 26 -35 22 0 33 23 17 39 -15 15 -37 14 -43
-4z"/>
<path d="M6015 1030 c-9 -15 4 -30 26 -30 12 0 19 7 19 20 0 21 -33 29 -45 10z"/>
<path d="M2342 998 c-35 -35 4 -82 48 -58 34 18 20 70 -20 70 -9 0 -21 -5 -28
-12z"/>
<path d="M1512 984 c4 -21 22 -23 26 -1 2 10 -3 17 -13 17 -10 0 -15 -6 -13
-16z"/>
<path d="M5461 987 c-24 -29 17 -70 46 -46 8 7 13 22 11 33 -4 25 -40 33 -57
13z"/>
<path d="M5895 991 c-8 -15 3 -31 21 -31 9 0 14 7 12 17 -4 20 -24 28 -33 14z"/>
<path d="M5717 983 c-11 -10 -8 -41 4 -49 16 -9 43 21 36 40 -7 16 -28 21 -40
9z"/>
<path d="M1953 964 c-4 -11 1 -22 12 -31 16 -11 21 -11 34 1 12 12 12 18 1 30
-16 21 -39 20 -47 0z"/>
<path d="M6137 974 c-9 -10 2 -24 19 -24 8 0 14 7 14 15 0 15 -21 21 -33 9z"/>
<path d="M2171 946 c-9 -11 -10 -20 -1 -35 13 -25 23 -26 44 -5 19 19 20 26 4
42 -16 16 -33 15 -47 -2z"/>
<path d="M2431 941 c-13 -24 9 -57 33 -48 26 10 32 38 11 53 -25 18 -32 18
-44 -5z"/>
<path d="M6226 941 c-10 -11 -13 -21 -7 -25 12 -8 43 22 36 35 -8 12 -9 12
-29 -10z"/>
<path d="M5374 935 c-9 -23 3 -45 25 -45 21 0 30 16 23 43 -5 21 -40 23 -48 2z"/>
<path d="M2270 925 c-16 -19 -6 -45 18 -45 31 0 46 25 27 44 -20 20 -29 20
-45 1z"/>
<path d="M5621 931 c-17 -11 -8 -39 15 -48 21 -8 35 16 23 39 -11 20 -18 22
-38 9z"/>
<path d="M5811 926 c-16 -19 -8 -46 13 -46 20 0 29 31 13 47 -12 12 -16 12
-26 -1z"/>
<path d="M2545 904 c-15 -16 -15 -18 3 -37 33 -32 81 3 52 38 -16 20 -35 19
-55 -1z"/>
<path d="M2073 895 c-3 -9 -3 -18 0 -22 10 -10 37 6 37 22 0 20 -29 20 -37 0z"/>
<path d="M5286 894 c-21 -21 -20 -31 5 -44 27 -15 49 -6 49 19 0 29 -34 45
-54 25z"/>
<path d="M1820 881 c0 -21 26 -36 36 -20 9 15 -3 39 -21 39 -8 0 -15 -9 -15
-19z"/>
<path d="M2367 878 c-18 -13 -18 -14 2 -32 27 -24 56 -17 56 14 0 29 -30 38
-58 18z"/>
<path d="M6038 884 c-12 -11 4 -34 24 -34 13 0 18 6 16 17 -3 18 -29 29 -40
17z"/>
<path d="M5494 865 c-4 -9 -2 -21 4 -27 15 -15 54 1 50 20 -4 23 -46 28 -54 7z"/>
<path d="M1712 849 c2 -6 8 -10 13 -10 5 0 11 4 13 10 2 6 -4 11 -13 11 -9 0
-15 -5 -13 -11z"/>
<path d="M2180 845 c-11 -13 -11 -19 3 -33 20 -19 41 -5 35 24 -4 24 -22 28
-38 9z"/>
<path d="M5187 848 c-21 -11 -22 -47 -2 -55 9 -3 24 2 35 12 31 28 3 64 -33
43z"/>
<path d="M2637 843 c-4 -3 -7 -17 -7 -30 0 -18 6 -23 24 -23 13 0 30 7 37 16
11 14 10 18 -6 30 -20 15 -38 18 -48 7z"/>
<path d="M1915 831 c-3 -5 -1 -12 5 -16 12 -7 30 2 30 16 0 12 -27 12 -35 0z"/>
<path d="M5717 833 c-14 -13 -6 -33 13 -33 13 0 20 7 20 20 0 19 -20 27 -33
13z"/>
<path d="M2465 820 c-9 -15 15 -52 32 -48 26 5 41 37 23 48 -20 13 -47 13 -55
0z"/>
<path d="M5920 816 c0 -9 7 -16 16 -16 9 0 14 5 12 12 -6 18 -28 21 -28 4z"/>
<path d="M2755 800 c-19 -21 -14 -47 11 -57 11 -4 22 1 30 12 19 26 17 42 -5
54 -14 8 -23 6 -36 -9z"/>
<path d="M5093 813 c-21 -8 -15 -41 8 -48 28 -9 47 10 33 32 -12 19 -23 24
-41 16z"/>
<path d="M5399 804 c-11 -14 -10 -18 6 -30 24 -18 30 -18 45 1 10 12 10 18 0
30 -16 19 -34 19 -51 -1z"/>
<path d="M5595 800 c-8 -13 4 -32 16 -25 12 8 12 35 0 35 -6 0 -13 -4 -16 -10z"/>
<path d="M2294 785 c-8 -20 4 -35 26 -35 25 0 35 17 20 35 -16 19 -39 19 -46
0z"/>
<path d="M5844 789 c-9 -16 18 -30 33 -17 7 6 10 14 7 19 -7 13 -31 11 -40 -2z"/>
<path d="M2867 779 c-22 -13 -22 -32 3 -54 16 -15 22 -15 35 -5 34 28 1 80
-38 59z"/>
<path d="M4976 767 c-26 -19 -17 -51 17 -55 32 -4 44 16 27 47 -13 24 -20 26
-44 8z"/>
<path d="M5306 765 c-20 -21 -12 -35 20 -35 27 0 32 21 10 39 -11 9 -18 8 -30
-4z"/>
<path d="M1974 759 c-9 -15 11 -33 30 -26 9 4 13 13 10 22 -7 17 -30 20 -40 4z"/>
<path d="M2570 745 c-12 -15 -7 -45 8 -45 20 0 45 28 39 44 -8 20 -31 21 -47
1z"/>
<path d="M2974 745 c-7 -18 12 -45 32 -45 20 0 36 34 22 48 -17 17 -48 15 -54
-3z"/>
<path d="M5531 741 c-12 -21 -5 -31 21 -31 11 0 18 7 18 19 0 26 -27 34 -39
12z"/>
<path d="M5954 746 c-8 -22 -2 -27 16 -16 12 7 12 12 3 21 -10 10 -14 9 -19
-5z"/>
<path d="M4844 725 c-10 -25 22 -53 44 -39 9 6 17 20 17 30 0 25 -52 33 -61 9z"/>
<path d="M2160 715 c-10 -12 -9 -16 4 -21 24 -9 47 3 40 21 -8 19 -28 19 -44
0z"/>
<path d="M2691 721 c-10 -7 -10 -13 -2 -30 14 -26 27 -27 41 -1 8 15 7 21 -8
29 -10 5 -24 6 -31 2z"/>
<path d="M3070 709 c-14 -24 2 -49 31 -49 20 0 36 40 24 59 -11 18 -44 12 -55
-10z"/>
<path d="M5206 704 c-16 -15 -16 -18 -2 -33 15 -14 18 -14 33 2 16 15 16 18 2
33 -15 14 -18 14 -33 -2z"/>
<path d="M4754 695 c-9 -22 22 -53 37 -38 15 15 7 47 -14 51 -9 2 -20 -4 -23
-13z"/>
<path d="M2470 685 c-13 -16 -7 -45 9 -45 17 0 40 30 35 45 -8 19 -28 19 -44
0z"/>
<path d="M3189 684 c-9 -11 -10 -20 -2 -32 17 -27 42 -26 49 2 10 43 -20 63
-47 30z"/>
<path d="M5395 691 c-7 -12 12 -24 25 -16 11 7 4 25 -10 25 -5 0 -11 -4 -15
-9z"/>
<path d="M4670 675 c-17 -21 -5 -45 24 -45 28 0 37 17 24 43 -11 21 -31 22
-48 2z"/>
<path d="M5081 673 c-12 -24 2 -48 24 -40 10 4 15 15 13 29 -4 28 -24 34 -37
11z"/>
<path d="M2350 664 c0 -17 22 -14 28 4 2 7 -3 12 -12 12 -9 0 -16 -7 -16 -16z"/>
<path d="M4985 656 c-11 -8 -16 -19 -12 -30 9 -22 41 -17 45 8 6 27 -11 38
-33 22z"/>
<path d="M2800 641 c0 -29 24 -45 40 -26 10 12 10 18 0 30 -17 21 -40 19 -40
-4z"/>
<path d="M2884 645 c-4 -9 -2 -21 4 -27 16 -16 47 -5 47 17 0 26 -42 34 -51
10z"/>
<path d="M3294 646 c-11 -28 1 -51 25 -51 32 0 49 28 32 49 -17 20 -50 21 -57
2z"/>
<path d="M4553 644 c-7 -20 9 -49 28 -49 22 0 18 59 -4 63 -9 2 -20 -4 -24
-14z"/>
<path d="M2242 633 c2 -10 10 -18 18 -18 22 0 18 29 -3 33 -14 3 -18 -1 -15
-15z"/>
<path d="M4855 636 c-16 -12 -18 -18 -9 -33 6 -10 20 -18 30 -18 14 0 19 7 19
29 0 35 -13 42 -40 22z"/>
<path d="M3413 634 c-20 -8 -15 -42 6 -54 15 -7 24 -6 36 6 31 31 0 65 -42 48z"/>
<path d="M4437 634 c-11 -12 -8 -41 6 -53 19 -15 50 9 45 35 -3 19 -38 31 -51
18z"/>
<path d="M2574 615 c-11 -29 35 -61 51 -35 9 14 -13 50 -31 50 -8 0 -17 -7
-20 -15z"/>
<path d="M3031 621 c-17 -11 -8 -39 15 -48 21 -8 46 19 38 40 -7 18 -31 22
-53 8z"/>
<path d="M3517 614 c-23 -23 7 -69 37 -58 25 10 17 58 -9 62 -12 2 -24 0 -28
-4z"/>
<path d="M3622 608 c-16 -16 -15 -33 4 -52 21 -21 54 -4 54 28 0 33 -35 47
-58 24z"/>
<path d="M4317 614 c-12 -12 -8 -41 8 -54 20 -17 47 5 43 34 -3 21 -37 34 -51
20z"/>
<path d="M5273 604 c-7 -19 11 -39 26 -30 16 10 13 33 -4 40 -9 3 -18 -1 -22
-10z"/>
<path d="M5450 606 c0 -8 4 -17 9 -20 11 -7 33 18 24 27 -12 12 -33 7 -33 -7z"/>
<path d="M3752 598 c-6 -8 -6 -22 -1 -35 14 -37 69 -27 69 12 0 2 -7 11 -16
19 -19 19 -38 20 -52 4z"/>
<path d="M3863 584 c-7 -18 6 -45 25 -52 14 -4 35 35 28 54 -7 19 -45 18 -53
-2z"/>
<path d="M3970 579 c-13 -23 1 -49 26 -49 20 0 34 32 23 53 -13 23 -36 21 -49
-4z"/>
<path d="M4078 575 c-13 -30 1 -52 27 -42 22 9 29 35 15 52 -18 21 -29 19 -42
-10z"/>
<path d="M4187 594 c-13 -13 14 -45 36 -42 32 4 30 42 -3 46 -14 2 -29 0 -33
-4z"/>
<path d="M5745 590 c-3 -5 1 -10 9 -10 9 0 16 5 16 10 0 6 -4 10 -9 10 -6 0
-13 -4 -16 -10z"/>
<path d="M3121 576 c-15 -17 12 -48 34 -40 20 8 19 40 -1 48 -21 8 -20 8 -33
-8z"/>
<path d="M4740 575 c-15 -18 -5 -35 21 -35 24 0 37 29 18 41 -19 12 -25 11
-39 -6z"/>
<path d="M3224 565 c-8 -21 2 -45 19 -45 20 0 40 27 33 45 -7 19 -45 20 -52 0z"/>
<path d="M2680 560 c0 -5 5 -10 10 -10 6 0 10 5 10 10 0 6 -4 10 -10 10 -5 0
-10 -4 -10 -10z"/>
<path d="M4627 542 c-16 -18 -16 -20 1 -35 15 -14 21 -15 36 -4 21 15 18 50
-5 55 -8 1 -23 -6 -32 -16z"/>
<path d="M5090 540 c-9 -16 -8 -21 5 -26 23 -9 47 4 43 23 -5 26 -35 28 -48 3z"/>
<path d="M2175 540 c-4 -6 -3 -16 3 -22 6 -6 12 -6 17 2 4 6 3 16 -3 22 -6 6
-12 6 -17 -2z"/>
<path d="M3340 534 c-11 -12 -10 -18 3 -32 16 -15 18 -15 33 0 19 18 12 48 -9
48 -8 0 -20 -7 -27 -16z"/>
<path d="M4504 536 c-18 -14 -18 -15 0 -35 14 -16 23 -18 37 -10 24 13 24 35
0 48 -13 7 -24 6 -37 -3z"/>
<path d="M4960 535 c-13 -16 -6 -35 15 -35 15 0 24 19 17 38 -6 16 -17 15 -32
-3z"/>
<path d="M2426 531 c-3 -5 1 -14 9 -21 12 -10 18 -10 30 0 18 15 11 30 -15 30
-10 0 -21 -4 -24 -9z"/>
<path d="M2814 525 c-4 -9 -2 -21 4 -27 15 -15 44 -1 40 19 -4 23 -36 29 -44
8z"/>
<path d="M4392 528 c-16 -16 -15 -33 2 -47 11 -9 18 -8 30 4 21 21 20 32 -2
44 -13 7 -23 6 -30 -1z"/>
<path d="M5615 529 c-10 -15 3 -25 16 -12 7 7 7 13 1 17 -6 3 -14 1 -17 -5z"/>
<path d="M3470 515 c-16 -19 -6 -45 19 -45 21 0 33 22 25 45 -8 19 -28 19 -44
0z"/>
<path d="M3697 513 c-11 -10 -8 -41 4 -49 16 -9 43 21 36 40 -7 16 -28 21 -40
9z"/>
<path d="M2924 499 c-10 -17 13 -36 27 -22 12 12 4 33 -11 33 -5 0 -12 -5 -16
-11z"/>
<path d="M2562 483 c5 -26 38 -29 38 -4 0 15 -6 21 -21 21 -14 0 -19 -5 -17
-17z"/>
<path d="M3053 493 c-16 -6 -17 -39 -2 -49 6 -3 18 1 27 10 14 14 14 18 2 30
-8 7 -21 12 -27 9z"/>
<path d="M3813 492 c-18 -12 -19 -44 -1 -56 25 -15 58 17 42 41 -13 20 -25 25
-41 15z"/>
<path d="M4173 484 c-8 -21 13 -42 28 -27 13 13 5 43 -11 43 -6 0 -13 -7 -17
-16z"/>
<path d="M4812 488 c-16 -16 -15 -35 2 -41 17 -7 26 1 26 24 0 23 -14 31 -28
17z"/>
<path d="M5235 490 c-11 -17 5 -32 21 -19 7 6 11 15 8 20 -7 12 -21 11 -29 -1z"/>
<path d="M3585 477 c-21 -16 -15 -47 10 -47 20 0 29 24 18 44 -8 14 -12 14
-28 3z"/>
<path d="M3956 475 c-3 -8 2 -21 10 -30 19 -19 44 -4 44 26 0 23 -45 27 -54 4z"/>
<path d="M4293 479 c-16 -16 -5 -39 18 -39 14 0 19 7 19 25 0 26 -18 33 -37
14z"/>
<path d="M4691 461 c-12 -21 -5 -31 21 -31 19 0 22 8 12 34 -8 21 -21 20 -33
-3z"/>
<path d="M4037 456 c-3 -8 3 -22 14 -32 18 -16 21 -16 36 -1 13 13 14 19 3 31
-16 20 -46 21 -53 2z"/>
<path d="M2696 451 c-4 -5 -2 -12 3 -15 5 -4 12 -2 15 3 4 5 2 12 -3 15 -5 4
-12 2 -15 -3z"/>
<path d="M3165 451 c-3 -5 -1 -12 5 -16 12 -7 30 2 30 16 0 12 -27 12 -35 0z"/>
<path d="M4601 436 c-16 -19 -6 -36 20 -36 15 0 20 6 17 22 -4 27 -21 33 -37
14z"/>
<path d="M5052 428 c-7 -7 -12 -16 -12 -20 0 -12 28 -10 36 3 10 17 -10 31
-24 17z"/>
<path d="M5380 430 c0 -5 5 -10 11 -10 5 0 7 5 4 10 -3 6 -8 10 -11 10 -2 0
-4 -4 -4 -10z"/>
<path d="M5500 415 c0 -8 7 -15 15 -15 8 0 15 7 15 15 0 8 -7 15 -15 15 -8 0
-15 -7 -15 -15z"/>
<path d="M2830 390 c0 -13 7 -20 18 -20 24 0 32 8 25 26 -8 22 -43 17 -43 -6z"/>
<path d="M3274 385 c-4 -9 -2 -21 4 -27 15 -15 44 -1 40 19 -4 23 -36 29 -44
8z"/>
<path d="M4216 392 c-3 -5 1 -17 8 -27 16 -22 49 -13 44 12 -3 19 -42 30 -52
15z"/>
<path d="M3404 379 c-10 -17 13 -36 27 -22 12 12 4 33 -11 33 -5 0 -12 -5 -16
-11z"/>
<path d="M3627 376 c-7 -17 18 -40 33 -31 5 3 10 15 10 26 0 23 -35 27 -43 5z"/>
<path d="M4484 375 c-4 -9 -2 -21 4 -27 15 -15 44 -1 40 19 -4 23 -36 29 -44
8z"/>
<path d="M4093 364 c-8 -21 13 -42 28 -27 13 13 5 43 -11 43 -6 0 -13 -7 -17
-16z"/>
<path d="M2976 361 c-4 -7 -5 -15 -2 -18 9 -9 19 4 14 18 -4 11 -6 11 -12 0z"/>
<path d="M3787 363 c-12 -11 -8 -23 8 -23 8 0 15 7 15 15 0 16 -12 20 -23 8z"/>
<path d="M4006 357 c-11 -8 -15 -19 -10 -30 8 -23 38 -18 42 7 5 26 -11 38
-32 23z"/>
<path d="M4352 357 c-14 -16 -6 -27 20 -27 13 0 18 6 16 17 -4 22 -22 27 -36
10z"/>
<path d="M3110 326 c0 -15 37 -32 47 -22 3 3 3 12 0 21 -8 19 -47 20 -47 1z"/>
<path d="M3872 329 c2 -6 8 -10 13 -10 5 0 11 4 13 10 2 6 -4 11 -13 11 -9 0
-15 -5 -13 -11z"/>
<path d="M4650 280 c0 -13 5 -20 13 -17 6 2 12 10 12 17 0 7 -6 15 -12 18 -8
2 -13 -5 -13 -18z"/>
<path d="M3220 275 c0 -8 7 -15 15 -15 8 0 15 7 15 15 0 8 -7 15 -15 15 -8 0
-15 -7 -15 -15z"/>
<path d="M3016 271 c-7 -10 22 -37 30 -28 9 8 -3 37 -15 37 -5 0 -12 -4 -15
-9z"/>
<path d="M3525 271 c-7 -12 12 -24 25 -16 11 7 4 25 -10 25 -5 0 -11 -4 -15
-9z"/>
<path d="M3790 261 c0 -12 6 -21 16 -21 9 0 14 7 12 17 -5 25 -28 28 -28 4z"/>
<path d="M4054 265 c-4 -10 -1 -21 7 -26 20 -12 34 -5 34 17 0 24 -33 31 -41
9z"/>
<path d="M3657 254 c-9 -10 2 -24 19 -24 8 0 14 7 14 15 0 15 -21 21 -33 9z"/>
<path d="M4317 254 c-9 -10 2 -24 19 -24 8 0 14 7 14 15 0 15 -21 21 -33 9z"/>
<path d="M3260 186 c0 -9 5 -16 10 -16 6 0 10 4 10 9 0 6 -4 13 -10 16 -5 3
-10 -1 -10 -9z"/>
<path d="M3375 170 c-3 -6 1 -13 10 -16 19 -8 30 0 20 15 -8 14 -22 14 -30 1z"/>
<path d="M3900 160 c0 -5 4 -10 9 -10 6 0 13 5 16 10 3 6 -1 10 -9 10 -9 0
-16 -4 -16 -10z"/>
<path d="M3630 141 c0 -17 18 -21 24 -6 3 9 0 15 -9 15 -8 0 -15 -4 -15 -9z"/>
<path d="M4556 131 c-4 -5 -2 -12 3 -15 5 -4 12 -2 15 3 4 5 2 12 -3 15 -5 4
-12 2 -15 -3z"/>
</g>
</svg>
