<?xml version="1.0" standalone="no"?>
<!DOCTYPE svg PUBLIC "-//W3C//DTD SVG 20010904//EN"
 "http://www.w3.org/TR/2001/REC-SVG-20010904/DTD/svg10.dtd">
<svg version="1.0" xmlns="http://www.w3.org/2000/svg"
 width="786.000000pt" height="786.000000pt" viewBox="0 0 786.000000 786.000000"
 preserveAspectRatio="xMidYMid meet">
<metadata>
Created by potrace 1.13, written by Peter Selinger 2001-2015
</metadata>
<g transform="translate(0.000000,786.000000) scale(0.100000,-0.100000)"
fill="#ffffff" stroke="none">
<path d="M2197 5154 c-28 -21 -56 -52 -69 -78 -19 -40 -26 -45 -92 -67 -109
-37 -190 -128 -283 -319 -119 -246 -185 -460 -258 -830 -33 -166 -44 -265 -51
-440 -6 -147 3 -213 44 -349 32 -103 73 -158 185 -246 94 -75 126 -92 221
-117 107 -28 156 -24 240 18 39 20 78 44 88 53 9 9 28 25 43 36 45 32 125 113
125 125 0 8 -6 8 -20 0 -21 -11 -25 -4 -14 24 21 54 85 33 154 -51 71 -87 231
-235 291 -269 30 -18 71 -34 92 -37 72 -11 40 38 -102 151 -55 44 -149 161
-187 234 -17 32 -39 67 -48 77 -21 23 -20 59 1 83 17 19 12 29 -21 41 -5 2 4
22 19 45 17 26 34 41 42 38 9 -4 13 4 13 24 0 42 16 77 53 115 57 59 65 72 60
96 -3 15 8 47 26 81 17 32 31 63 31 69 0 7 18 28 41 48 32 30 41 46 46 81 3
26 15 56 28 70 12 14 27 43 33 65 24 86 24 85 8 79 -21 -8 -22 29 -1 46 8 7
15 27 15 44 0 17 7 42 16 55 10 14 14 33 10 51 -3 16 -1 32 3 35 8 4 6 174 -2
270 -17 182 -21 203 -55 280 -41 95 -81 152 -155 222 -98 93 -328 183 -464
183 -50 0 -64 -5 -106 -36z m410 -160 c130 -47 210 -272 200 -564 -3 -74 -13
-171 -22 -215 -9 -44 -21 -98 -25 -120 -16 -73 -42 -160 -51 -170 -5 -5 -9
-16 -9 -24 0 -8 -13 -41 -29 -75 -15 -34 -34 -79 -41 -101 -7 -22 -18 -47 -25
-55 -7 -8 -37 -66 -68 -128 -89 -177 -121 -207 -147 -139 -7 17 -28 64 -46
102 -18 39 -39 102 -47 140 -8 39 -22 87 -31 109 -9 21 -16 53 -16 71 0 18 -7
52 -15 75 -8 23 -15 63 -15 89 0 61 -10 93 -26 87 -7 -3 -18 2 -25 10 -10 13
-10 17 1 24 7 4 19 6 27 3 7 -3 13 2 13 11 0 9 -7 16 -15 16 -8 0 -15 9 -15
20 0 11 7 20 15 20 12 0 13 4 6 18 -6 11 -6 24 0 33 18 28 10 65 -16 77 -14 6
-25 15 -25 19 1 19 19 35 34 30 24 -9 30 10 28 91 -1 63 -4 78 -23 99 l-23 24
22 6 c19 4 22 12 22 53 0 30 6 52 15 60 8 7 15 22 15 33 0 23 39 136 53 155 5
6 27 12 49 12 48 0 60 21 29 54 -27 28 -27 41 1 60 26 19 161 13 225 -10z
m-591 -413 c-2 -55 -7 -104 -10 -110 -9 -14 -10 -230 -2 -336 8 -98 41 -277
57 -307 6 -11 14 -40 19 -66 14 -81 39 -160 69 -220 15 -31 34 -75 41 -97 7
-22 18 -47 25 -55 8 -8 34 -55 59 -104 51 -101 51 -96 -18 -180 -99 -120 -208
-205 -299 -235 -196 -63 -261 7 -309 329 -11 73 -12 88 -6 215 2 50 7 96 12
104 5 8 11 40 13 70 1 31 7 79 13 108 6 28 15 91 19 140 5 53 19 115 35 157
14 38 26 82 26 98 0 17 13 58 29 92 16 35 38 100 50 146 20 77 37 123 60 160
5 8 14 33 21 55 7 22 22 54 34 70 13 17 25 38 29 48 3 9 13 17 22 17 14 0 15
-14 11 -99z m-166 -141 c0 -5 -4 -10 -10 -10 -5 0 -10 5 -10 10 0 6 5 10 10
10 6 0 10 -4 10 -10z"/>
<path d="M4335 4730 c-11 -4 -32 -21 -48 -37 -33 -36 -117 -200 -117 -230 0
-12 -5 -25 -11 -29 -13 -8 -41 -70 -45 -99 -1 -11 -7 -39 -12 -62 -13 -54 0
-79 58 -109 93 -50 138 -26 164 86 10 41 42 147 72 236 30 88 54 171 54 185 0
17 -11 30 -40 47 -43 24 -46 25 -75 12z"/>
<path d="M5723 4468 c-23 -30 -163 -438 -163 -474 0 -13 -8 -39 -17 -58 -20
-43 -72 -63 -189 -74 -72 -6 -79 -9 -82 -30 -5 -36 93 -133 144 -141 33 -5 39
-10 42 -34 2 -15 -10 -85 -27 -155 -57 -234 -67 -313 -56 -407 9 -71 63 -154
135 -209 44 -33 56 -38 89 -33 47 6 150 85 169 130 7 17 27 43 43 58 17 16 29
37 29 53 0 17 12 35 40 57 34 27 40 38 40 69 0 26 6 42 20 51 20 14 20 15 1
74 -21 66 -35 78 -57 46 -8 -12 -21 -21 -29 -21 -8 0 -27 -17 -42 -37 -15 -20
-55 -67 -88 -104 -33 -37 -78 -88 -101 -113 -40 -45 -77 -60 -87 -33 -3 7 4
51 14 97 11 47 23 112 28 145 5 33 18 92 30 131 12 40 26 107 31 150 8 63 15
83 37 106 15 15 34 28 43 28 9 0 21 5 27 11 6 6 56 17 110 25 54 7 134 21 178
30 44 9 127 22 185 29 104 12 123 16 168 38 31 15 28 49 -9 91 -56 65 -151 69
-432 20 -169 -29 -197 -30 -197 -6 0 10 4 22 8 28 5 5 26 52 47 104 21 52 49
115 62 139 31 59 29 99 -6 148 -51 70 -114 102 -138 71z"/>
<path d="M4148 3973 c-41 -6 -49 -23 -39 -79 9 -49 2 -217 -19 -449 -6 -66
-11 -212 -12 -324 -1 -234 -6 -221 100 -256 51 -16 56 -16 99 0 l46 18 -7 61
c-3 33 -10 97 -15 141 -15 124 -13 234 10 461 23 226 21 349 -5 389 -23 35
-82 49 -158 38z"/>
<path d="M3722 3898 c-5 -7 -10 -30 -10 -50 0 -28 -11 -53 -38 -94 -65 -94
-74 -109 -74 -121 0 -7 -15 -32 -32 -55 -18 -24 -46 -75 -62 -113 -16 -39 -36
-77 -45 -85 -9 -8 -20 -22 -24 -30 -4 -8 -21 -35 -37 -60 -17 -25 -37 -60 -45
-77 -8 -18 -19 -33 -23 -33 -4 0 -20 -20 -35 -45 -30 -46 -44 -54 -65 -33 -13
13 -14 68 -3 108 4 14 4 44 -1 68 -6 35 -3 50 17 89 17 30 25 62 25 94 0 46
16 99 30 99 16 0 30 55 30 116 0 77 -22 118 -76 140 -54 22 -69 18 -83 -23 -7
-21 -21 -57 -32 -80 -10 -24 -19 -49 -19 -56 0 -7 -4 -17 -9 -22 -17 -19 -41
-124 -46 -202 -3 -43 -11 -112 -16 -154 -20 -144 26 -279 132 -389 75 -78 151
-78 205 0 16 23 39 54 52 70 12 15 22 35 22 43 0 13 51 98 103 171 24 34 44
13 52 -53 7 -58 10 -65 63 -116 60 -59 75 -64 110 -39 24 17 28 48 12 104 -12
43 18 329 40 385 5 11 11 34 13 50 7 46 28 126 44 163 29 66 -17 178 -91 223
-36 22 -69 24 -84 7z"/>
<path d="M4885 3833 c-16 -3 -41 -13 -56 -24 -33 -23 -39 -23 -99 -2 -44 16
-50 16 -72 1 -24 -16 -95 -132 -152 -248 -15 -30 -34 -68 -43 -85 -9 -16 -20
-48 -24 -70 -27 -138 -30 -166 -24 -228 8 -81 22 -118 71 -183 68 -90 112
-122 197 -143 63 -15 114 -2 181 48 92 69 169 157 272 311 112 167 133 250 93
373 -20 62 -32 81 -88 138 -93 93 -167 126 -256 112z m190 -170 c22 -10 38
-27 42 -42 16 -64 -99 -270 -241 -431 -48 -55 -86 -86 -140 -116 -109 -61
-168 -67 -180 -20 -13 54 35 297 65 331 5 5 9 16 9 25 0 41 91 176 134 199 17
10 29 10 44 2 29 -15 57 -14 72 4 12 14 62 40 110 58 27 10 49 7 85 -10z"/>
</g>
</svg>
