<?xml version="1.0" standalone="no"?>
<!DOCTYPE svg PUBLIC "-//W3C//DTD SVG 20010904//EN"
 "http://www.w3.org/TR/2001/REC-SVG-20010904/DTD/svg10.dtd">
<svg version="1.0" xmlns="http://www.w3.org/2000/svg"
 width="1636.000000pt" height="1056.000000pt" viewBox="0 0 1636.000000 1056.000000"
 preserveAspectRatio="xMidYMid meet">
<metadata>
Created by potrace 1.13, written by Peter Selinger 2001-2015
</metadata>
<g transform="translate(0.000000,1056.000000) scale(0.100000,-0.100000)"
fill="#ffffff" stroke="none">
<path d="M8714 9026 c-4 -9 -4 -20 0 -23 3 -4 12 -1 18 5 9 9 9 15 0 24 -9 9
-13 7 -18 -6z"/>
<path d="M7695 9020 c-4 -6 -3 -16 3 -22 6 -6 12 -6 17 2 4 6 3 16 -3 22 -6 6
-12 6 -17 -2z"/>
<path d="M8520 9020 c0 -5 5 -10 10 -10 6 0 10 5 10 10 0 6 -4 10 -10 10 -5 0
-10 -4 -10 -10z"/>
<path d="M7996 8951 c-4 -5 -2 -12 3 -15 5 -4 12 -2 15 3 4 5 2 12 -3 15 -5 4
-12 2 -15 -3z"/>
<path d="M8214 8949 c-10 -17 13 -36 27 -22 12 12 4 33 -11 33 -5 0 -12 -5
-16 -11z"/>
<path d="M8415 8950 c-8 -13 3 -30 20 -30 14 0 27 24 18 34 -10 9 -31 7 -38
-4z"/>
<path d="M8596 8923 c-13 -14 -5 -33 14 -33 11 0 20 6 20 14 0 15 -24 28 -34
19z"/>
<path d="M7596 8895 c-6 -17 16 -31 33 -21 13 9 2 36 -14 36 -7 0 -16 -7 -19
-15z"/>
<path d="M7762 8873 c2 -10 10 -18 18 -18 8 0 16 8 18 18 2 12 -3 17 -18 17
-15 0 -20 -5 -18 -17z"/>
<path d="M9195 8880 c-4 -6 -3 -16 3 -22 6 -6 12 -6 17 2 4 6 3 16 -3 22 -6 6
-12 6 -17 -2z"/>
<path d="M7357 8874 c-9 -10 2 -24 19 -24 8 0 14 7 14 15 0 15 -21 21 -33 9z"/>
<path d="M8856 8855 c-6 -17 16 -31 33 -21 13 9 2 36 -14 36 -7 0 -16 -7 -19
-15z"/>
<path d="M9295 8860 c-4 -6 -3 -16 3 -22 6 -6 12 -6 17 2 4 6 3 16 -3 22 -6 6
-12 6 -17 -2z"/>
<path d="M7942 8837 c-7 -8 -7 -18 -2 -27 8 -13 11 -13 26 2 9 9 13 21 10 27
-9 15 -21 14 -34 -2z"/>
<path d="M8511 8836 c-16 -19 -7 -46 14 -46 22 0 30 29 13 46 -13 13 -16 13
-27 0z"/>
<path d="M9113 8843 c-18 -6 -16 -30 2 -37 9 -3 18 1 22 10 7 18 -7 33 -24 27z"/>
<path d="M8030 8820 c0 -13 7 -20 20 -20 13 0 20 7 20 20 0 13 -7 20 -20 20
-13 0 -20 -7 -20 -20z"/>
<path d="M8975 8830 c-8 -12 20 -24 35 -15 6 3 8 11 5 16 -8 12 -32 12 -40 -1z"/>
<path d="M7154 8809 c-3 -6 -2 -15 4 -21 13 -13 32 -2 32 18 0 16 -26 19 -36
3z"/>
<path d="M7674 8805 c-4 -9 -2 -21 4 -27 15 -15 44 -1 40 19 -4 23 -36 29 -44
8z"/>
<path d="M7807 8814 c-4 -4 -7 -16 -7 -26 0 -14 6 -19 23 -16 14 2 22 10 22
23 0 20 -25 32 -38 19z"/>
<path d="M8160 8805 c-14 -17 -5 -35 19 -35 25 0 32 10 20 31 -12 23 -22 24
-39 4z"/>
<path d="M8296 8811 c-4 -5 -2 -12 3 -15 5 -4 12 -2 15 3 4 5 2 12 -3 15 -5 4
-12 2 -15 -3z"/>
<path d="M7577 8803 c-12 -12 -7 -43 7 -43 13 0 26 20 26 41 0 10 -23 12 -33
2z"/>
<path d="M8773 8803 c-7 -3 -13 -16 -13 -29 0 -17 5 -24 20 -24 11 0 23 7 27
16 7 18 -16 44 -34 37z"/>
<path d="M6885 8789 c-10 -15 1 -23 20 -15 9 3 13 10 10 16 -8 13 -22 13 -30
-1z"/>
<path d="M9250 8784 c0 -9 5 -14 12 -12 18 6 21 28 4 28 -9 0 -16 -7 -16 -16z"/>
<path d="M7250 8780 c-13 -8 -13 -11 1 -25 13 -14 17 -14 27 -2 16 19 -7 40
-28 27z"/>
<path d="M7456 8773 c-3 -4 -6 -15 -6 -25 0 -24 33 -21 38 3 3 17 -21 33 -32
22z"/>
<path d="M8620 8765 c-9 -11 -10 -19 -3 -26 17 -17 48 -6 48 16 0 25 -28 31
-45 10z"/>
<path d="M8874 8765 c-3 -8 -3 -22 0 -30 4 -13 10 -14 26 -5 11 6 20 15 20 20
0 5 -9 14 -20 20 -16 9 -22 8 -26 -5z"/>
<path d="M9344 8749 c-9 -15 12 -33 30 -26 9 4 16 13 16 22 0 17 -35 21 -46 4z"/>
<path d="M9676 8731 c-4 -5 -2 -12 3 -15 5 -4 12 -2 15 3 4 5 2 12 -3 15 -5 4
-12 2 -15 -3z"/>
<path d="M8976 8721 c-10 -16 5 -41 26 -41 14 0 19 6 16 22 -3 24 -32 36 -42
19z"/>
<path d="M7337 8713 c-12 -12 -7 -31 10 -37 24 -9 39 9 23 29 -14 16 -23 19
-33 8z"/>
<path d="M7742 8708 c-15 -15 -16 -45 -2 -53 17 -10 50 5 50 24 0 16 -18 41
-30 41 -3 0 -11 -5 -18 -12z"/>
<path d="M8322 8698 c3 -25 34 -36 51 -19 14 14 -9 41 -35 41 -14 0 -19 -6
-16 -22z"/>
<path d="M8445 8690 c-13 -14 -15 -24 -8 -31 14 -14 43 0 43 21 0 28 -15 32
-35 10z"/>
<path d="M6813 8684 c-7 -19 11 -39 26 -30 16 10 13 33 -4 40 -9 3 -18 -1 -22
-10z"/>
<path d="M7872 8688 c-14 -14 -16 -44 -3 -52 26 -17 60 26 40 50 -14 17 -22
17 -37 2z"/>
<path d="M7994 8686 c-9 -24 4 -48 23 -44 12 2 18 12 18 28 0 29 -32 41 -41
16z"/>
<path d="M8091 8682 c-6 -11 -6 -24 0 -35 12 -21 23 -22 43 -1 12 12 13 20 6
35 -13 24 -36 25 -49 1z"/>
<path d="M8204 8685 c-4 -9 0 -23 8 -31 20 -20 50 -7 46 20 -4 26 -45 35 -54
11z"/>
<path d="M9473 8684 c-9 -23 13 -40 32 -24 12 10 13 16 4 26 -15 18 -28 18
-36 -2z"/>
<path d="M6954 8675 c-9 -22 3 -46 20 -39 24 9 27 33 5 44 -15 9 -21 7 -25 -5z"/>
<path d="M9087 8683 c-16 -15 -6 -33 18 -33 27 0 32 9 13 28 -14 14 -22 15
-31 5z"/>
<path d="M8570 8665 c-10 -12 -11 -21 -4 -33 15 -22 27 -24 49 -8 16 12 18 18
9 33 -15 24 -38 27 -54 8z"/>
<path d="M7208 8663 c7 -3 16 -2 19 1 4 3 -2 6 -13 5 -11 0 -14 -3 -6 -6z"/>
<path d="M7517 8664 c-4 -4 -7 -18 -7 -31 0 -27 25 -31 34 -6 7 18 -16 48 -27
37z"/>
<path d="M8677 8664 c-10 -10 -9 -42 2 -48 18 -11 42 6 39 28 -3 21 -28 33
-41 20z"/>
<path d="M9227 8664 c-15 -15 -7 -45 11 -42 9 2 17 12 17 22 0 20 -16 31 -28
20z"/>
<path d="M7620 8646 c-18 -22 -5 -48 22 -44 17 2 23 10 23 28 0 29 -26 38 -45
16z"/>
<path d="M8772 8638 c-16 -16 -15 -33 2 -47 18 -15 46 -3 46 20 0 24 -33 42
-48 27z"/>
<path d="M7076 8631 c-4 -5 -2 -12 3 -15 5 -4 12 -2 15 3 4 5 2 12 -3 15 -5 4
-12 2 -15 -3z"/>
<path d="M7375 8630 c-11 -17 5 -51 23 -48 23 4 23 52 0 56 -9 2 -19 -2 -23
-8z"/>
<path d="M9582 8623 c2 -10 10 -18 18 -18 8 0 16 8 18 18 2 12 -3 17 -18 17
-15 0 -20 -5 -18 -17z"/>
<path d="M9915 8630 c-4 -6 -3 -16 3 -22 6 -6 12 -6 17 2 4 6 3 16 -3 22 -6 6
-12 6 -17 -2z"/>
<path d="M8901 8601 c-15 -27 10 -47 38 -31 24 12 26 21 9 38 -17 17 -36 15
-47 -7z"/>
<path d="M9028 8603 c-19 -22 -13 -43 12 -43 23 0 44 26 36 45 -7 20 -29 19
-48 -2z"/>
<path d="M9319 8604 c-11 -14 -10 -18 6 -30 16 -12 21 -12 34 0 12 12 12 18 1
30 -16 20 -24 20 -41 0z"/>
<path d="M7265 8600 c-4 -6 -1 -17 5 -26 10 -11 16 -12 26 -3 11 9 11 15 3 25
-14 17 -25 18 -34 4z"/>
<path d="M6670 8586 c0 -9 7 -16 16 -16 9 0 14 5 12 12 -6 18 -28 21 -28 4z"/>
<path d="M7966 8581 c-21 -23 -20 -38 1 -50 23 -12 53 4 53 29 0 30 -34 43
-54 21z"/>
<path d="M8054 8586 c-3 -8 -4 -23 -2 -33 5 -25 51 -25 56 0 7 36 -42 65 -54
33z"/>
<path d="M8170 8581 c-15 -29 -12 -39 12 -47 28 -9 52 20 37 47 -13 25 -36 24
-49 0z"/>
<path d="M8273 8584 c-7 -18 6 -45 25 -52 18 -6 36 37 21 54 -15 19 -38 18
-46 -2z"/>
<path d="M7183 8573 c-20 -7 -15 -41 6 -52 25 -14 50 13 35 37 -12 18 -24 23
-41 15z"/>
<path d="M7713 8573 c-18 -7 -16 -48 2 -63 34 -28 69 18 40 50 -19 21 -22 22
-42 13z"/>
<path d="M7837 8562 c-20 -22 -21 -34 -6 -49 18 -18 59 5 59 33 0 12 -7 25
-16 28 -21 8 -19 9 -37 -12z"/>
<path d="M8384 8566 c-11 -29 1 -51 26 -51 30 0 38 26 15 49 -20 20 -34 20
-41 2z"/>
<path d="M8506 8567 c-26 -19 -17 -51 16 -55 31 -4 48 29 28 53 -15 18 -21 19
-44 2z"/>
<path d="M9457 8574 c-10 -10 -9 -42 2 -48 18 -11 42 6 39 28 -3 21 -28 33
-41 20z"/>
<path d="M9694 8565 c-4 -9 -2 -21 4 -27 15 -15 44 -1 40 19 -4 23 -36 29 -44
8z"/>
<path d="M6874 8555 c-3 -8 -3 -19 0 -24 10 -16 36 -1 36 20 0 22 -28 26 -36
4z"/>
<path d="M9128 8559 c-10 -5 -18 -16 -18 -24 0 -18 37 -38 56 -31 17 7 18 38
2 54 -14 14 -18 14 -40 1z"/>
<path d="M8615 8544 c-23 -23 -15 -48 17 -52 31 -4 57 29 35 45 -27 21 -36 22
-52 7z"/>
<path d="M9232 8548 c-17 -17 -15 -48 4 -55 8 -3 23 2 32 11 15 15 15 18 -4
36 -15 16 -22 18 -32 8z"/>
<path d="M7606 8537 c-23 -17 -13 -57 13 -57 27 0 47 28 35 48 -14 22 -27 24
-48 9z"/>
<path d="M8710 8535 c-24 -29 23 -74 55 -51 14 10 15 17 7 33 -14 25 -48 35
-62 18z"/>
<path d="M6734 8525 c-7 -18 3 -35 21 -35 21 0 28 19 15 35 -16 19 -29 19 -36
0z"/>
<path d="M10126 8531 c-3 -5 1 -14 8 -20 16 -13 32 2 21 19 -8 12 -22 13 -29
1z"/>
<path d="M7499 8511 c-22 -18 -23 -21 -8 -36 13 -14 21 -15 38 -6 24 13 27 33
7 50 -10 9 -19 7 -37 -8z"/>
<path d="M8824 8506 c-8 -32 2 -46 31 -46 31 0 52 35 34 56 -19 23 -58 18 -65
-10z"/>
<path d="M9560 8515 c-11 -13 -11 -19 3 -32 21 -21 49 -9 45 19 -4 28 -30 35
-48 13z"/>
<path d="M7044 8495 c-4 -9 -2 -21 3 -26 14 -14 45 1 41 20 -4 22 -37 26 -44
6z"/>
<path d="M6623 8484 c-3 -8 -1 -20 6 -27 14 -14 47 15 37 32 -10 16 -36 13
-43 -5z"/>
<path d="M6976 8493 c-12 -12 -6 -33 9 -33 8 0 15 6 15 14 0 17 -14 28 -24 19z"/>
<path d="M7382 8488 c-15 -15 -16 -45 -2 -53 15 -9 47 4 54 22 12 31 -28 55
-52 31z"/>
<path d="M8966 8478 c-21 -29 -20 -35 4 -48 15 -8 24 -6 40 10 16 16 18 25 10
40 -14 26 -35 25 -54 -2z"/>
<path d="M9700 8485 c-10 -11 -10 -19 -2 -27 15 -15 44 -2 40 19 -4 23 -22 27
-38 8z"/>
<path d="M9330 8475 c-16 -20 -6 -45 20 -45 23 0 28 31 6 49 -10 9 -16 8 -26
-4z"/>
<path d="M9452 8468 c-17 -17 -15 -47 3 -54 21 -9 47 15 43 40 -4 24 -28 32
-46 14z"/>
<path d="M9934 8467 c-8 -22 -1 -30 21 -25 14 3 14 5 1 23 -14 19 -15 19 -22
2z"/>
<path d="M7280 8450 c-16 -16 -18 -24 -10 -40 12 -23 15 -24 41 -10 22 13 25
43 5 59 -12 10 -19 8 -36 -9z"/>
<path d="M9075 8457 c-20 -16 -15 -44 11 -54 23 -9 51 23 38 44 -14 23 -27 26
-49 10z"/>
<path d="M6860 8445 c-15 -18 -4 -55 17 -55 24 0 43 31 32 52 -12 22 -32 23
-49 3z"/>
<path d="M10368 8443 c7 -3 16 -2 19 1 4 3 -2 6 -13 5 -11 0 -14 -3 -6 -6z"/>
<path d="M6337 8434 c-9 -10 4 -34 19 -34 8 0 14 9 14 20 0 19 -19 27 -33 14z"/>
<path d="M7184 8426 c-7 -19 14 -58 28 -54 23 8 32 36 19 52 -17 20 -40 21
-47 2z"/>
<path d="M9166 8425 c-35 -36 -9 -78 34 -55 15 8 20 19 18 38 -4 32 -29 40
-52 17z"/>
<path d="M9546 8421 c-10 -11 -16 -27 -13 -36 8 -20 41 -19 57 1 11 12 10 18
-6 35 -20 20 -20 20 -38 0z"/>
<path d="M9771 8422 c-12 -22 -6 -32 21 -32 14 0 19 6 16 22 -4 29 -24 34 -37
10z"/>
<path d="M10053 8413 c-22 -8 -15 -43 7 -43 11 0 20 2 20 4 0 2 3 11 6 19 6
16 -13 27 -33 20z"/>
<path d="M6535 8400 c-7 -12 2 -30 16 -30 12 0 12 27 0 35 -5 3 -12 1 -16 -5z"/>
<path d="M10220 8395 c0 -8 7 -15 16 -15 14 0 14 3 4 15 -7 8 -14 15 -16 15
-2 0 -4 -7 -4 -15z"/>
<path d="M6714 8385 c-4 -9 -2 -21 4 -27 15 -15 44 -1 40 19 -4 23 -36 29 -44
8z"/>
<path d="M7077 8393 c-13 -13 -7 -42 12 -52 26 -15 60 21 41 44 -13 15 -42 20
-53 8z"/>
<path d="M9292 8378 c-18 -18 -15 -36 9 -49 17 -9 24 -8 36 4 12 12 13 19 4
36 -13 24 -31 27 -49 9z"/>
<path d="M6207 8373 c-4 -3 -7 -12 -7 -20 0 -15 26 -18 34 -4 7 11 -18 33 -27
24z"/>
<path d="M6987 8362 c-22 -24 -21 -39 0 -51 37 -20 71 27 41 57 -16 16 -22 15
-41 -6z"/>
<path d="M10335 8370 c-3 -6 1 -13 10 -16 19 -8 30 0 20 15 -8 14 -22 14 -30
1z"/>
<path d="M6640 8345 c-11 -13 -11 -19 2 -31 13 -13 20 -14 37 -4 13 6 21 19
19 28 -4 23 -41 27 -58 7z"/>
<path d="M9408 8349 c-27 -15 -22 -47 6 -55 14 -3 30 -3 35 1 15 8 14 38 -1
53 -14 14 -18 14 -40 1z"/>
<path d="M6420 8330 c0 -15 5 -20 18 -18 9 2 17 10 17 18 0 8 -8 16 -17 18
-13 2 -18 -3 -18 -18z"/>
<path d="M6862 8328 c-17 -17 -15 -43 4 -58 22 -19 59 18 49 49 -7 23 -34 28
-53 9z"/>
<path d="M9647 8321 c-6 -24 10 -41 39 -41 29 0 38 14 24 40 -14 26 -56 27
-63 1z"/>
<path d="M10224 8319 c-7 -12 15 -31 28 -23 4 3 8 12 8 20 0 17 -26 19 -36 3z"/>
<path d="M6136 8312 c-9 -14 9 -31 23 -23 7 5 10 14 7 20 -8 13 -23 14 -30 3z"/>
<path d="M9485 8299 c-8 -26 16 -54 39 -46 10 4 16 18 16 37 0 25 -4 30 -24
30 -16 0 -27 -7 -31 -21z"/>
<path d="M9761 8301 c-10 -17 -7 -23 14 -37 31 -20 48 -9 43 27 -4 32 -42 38
-57 10z"/>
<path d="M6292 8294 c4 -21 22 -23 26 -1 2 10 -3 17 -13 17 -10 0 -15 -6 -13
-16z"/>
<path d="M5896 8291 c-4 -5 -2 -12 3 -15 5 -4 12 -2 15 3 4 5 2 12 -3 15 -5 4
-12 2 -15 -3z"/>
<path d="M6546 8287 c-12 -9 -17 -20 -13 -31 8 -20 31 -21 52 0 31 31 -3 57
-39 31z"/>
<path d="M6740 8279 c-10 -17 -9 -24 4 -37 21 -22 51 -4 51 29 0 33 -39 39
-55 8z"/>
<path d="M10011 8271 c-15 -9 -8 -41 8 -41 15 0 23 18 14 34 -5 10 -13 12 -22
7z"/>
<path d="M9598 8259 c-31 -17 -16 -69 19 -69 22 0 38 46 23 65 -15 17 -19 18
-42 4z"/>
<path d="M10095 8251 c-6 -11 9 -23 19 -14 9 9 7 23 -3 23 -6 0 -12 -4 -16 -9z"/>
<path d="M6050 8234 c-9 -10 -10 -18 -2 -26 12 -12 32 -2 32 17 0 21 -16 26
-30 9z"/>
<path d="M6396 8243 c-3 -3 -6 -15 -6 -25 0 -14 6 -19 22 -16 12 2 23 8 25 15
5 13 -31 36 -41 26z"/>
<path d="M9883 8234 c-4 -11 1 -22 12 -31 16 -11 21 -11 34 1 12 12 12 18 1
30 -16 21 -39 20 -47 0z"/>
<path d="M6642 8228 c-17 -17 -15 -36 7 -47 24 -13 55 8 49 35 -4 22 -38 30
-56 12z"/>
<path d="M6223 8214 c-7 -18 17 -38 31 -24 11 11 1 40 -14 40 -6 0 -13 -7 -17
-16z"/>
<path d="M9670 8200 c-14 -27 4 -52 34 -48 31 4 30 62 -1 66 -14 2 -26 -4 -33
-18z"/>
<path d="M10340 8201 c0 -21 26 -36 36 -20 9 15 -3 39 -21 39 -8 0 -15 -9 -15
-19z"/>
<path d="M9975 8170 c-8 -26 6 -43 31 -38 13 2 19 12 19 28 0 34 -40 41 -50
10z"/>
<path d="M6334 8166 c-9 -24 3 -46 26 -46 17 0 21 5 18 27 -3 31 -34 44 -44
19z"/>
<path d="M6552 8143 c2 -20 9 -28 23 -28 23 0 33 34 13 46 -26 17 -39 10 -36
-18z"/>
<path d="M10204 8159 c-10 -17 13 -36 27 -22 12 12 4 33 -11 33 -5 0 -12 -5
-16 -11z"/>
<path d="M6117 8153 c-14 -14 -7 -43 11 -43 26 0 33 10 21 31 -10 20 -21 24
-32 12z"/>
<path d="M9779 8129 c-9 -18 -8 -25 8 -41 22 -22 49 -16 58 13 14 43 -44 67
-66 28z"/>
<path d="M6229 8124 c-16 -20 0 -49 27 -49 27 0 31 41 6 54 -15 8 -23 7 -33
-5z"/>
<path d="M10057 8123 c-11 -10 -8 -41 4 -49 16 -9 43 21 36 40 -7 16 -28 21
-40 9z"/>
<path d="M6454 8105 c-8 -21 2 -45 19 -45 8 0 20 7 27 15 10 12 10 18 0 30 -7
8 -19 15 -27 15 -7 0 -16 -7 -19 -15z"/>
<path d="M10435 8110 c-3 -5 1 -10 10 -10 9 0 13 5 10 10 -3 6 -8 10 -10 10
-2 0 -7 -4 -10 -10z"/>
<path d="M6010 8085 c-10 -11 -10 -19 -2 -27 15 -15 44 -2 40 19 -4 23 -22 27
-38 8z"/>
<path d="M9898 8089 c-22 -12 -23 -42 -2 -60 31 -26 70 25 44 56 -14 17 -19
18 -42 4z"/>
<path d="M10307 8076 c-8 -19 20 -43 34 -29 12 12 1 43 -16 43 -7 0 -15 -6
-18 -14z"/>
<path d="M10494 8065 c-7 -18 3 -35 21 -35 21 0 28 19 15 35 -16 19 -29 19
-36 0z"/>
<path d="M6366 8051 c-10 -16 5 -41 24 -41 23 0 32 13 24 34 -7 17 -39 22 -48
7z"/>
<path d="M9982 8043 c-24 -10 -33 -40 -16 -57 21 -22 41 -20 54 4 8 14 8 26 0
40 -11 20 -16 22 -38 13z"/>
<path d="M10162 8038 c-18 -18 -15 -36 7 -48 15 -7 23 -6 35 6 12 12 13 20 6
35 -12 22 -30 25 -48 7z"/>
<path d="M10730 8036 c0 -9 7 -16 16 -16 9 0 14 5 12 12 -6 18 -28 21 -28 4z"/>
<path d="M5895 8030 c-11 -17 5 -32 21 -19 8 6 14 15 14 20 0 12 -27 11 -35
-1z"/>
<path d="M6133 8024 c-3 -8 -1 -20 5 -26 16 -16 42 -2 42 22 0 24 -38 28 -47
4z"/>
<path d="M6253 8004 c-8 -22 10 -49 33 -49 22 0 31 30 14 50 -16 20 -39 19
-47 -1z"/>
<path d="M10382 7998 c-16 -19 1 -40 29 -36 16 2 24 10 24 23 0 24 -36 33 -53
13z"/>
<path d="M6034 7985 c-7 -18 3 -35 21 -35 21 0 28 19 15 35 -16 19 -29 19 -36
0z"/>
<path d="M10080 7962 c-31 -25 -21 -55 17 -50 32 3 43 37 20 57 -11 9 -19 7
-37 -7z"/>
<path d="M10251 7967 c-15 -15 -14 -32 5 -47 12 -11 18 -11 30 2 16 16 10 43
-11 51 -7 3 -18 0 -24 -6z"/>
<path d="M10585 7970 c-9 -15 4 -30 26 -30 22 0 24 11 7 28 -15 15 -25 15 -33
2z"/>
<path d="M10506 7951 c-7 -10 22 -37 30 -28 9 8 -3 37 -15 37 -5 0 -12 -4 -15
-9z"/>
<path d="M5810 7935 c-10 -12 -9 -16 5 -21 19 -8 40 9 31 25 -10 15 -21 14
-36 -4z"/>
<path d="M6162 7938 c-17 -17 -15 -36 7 -47 24 -13 45 9 36 39 -7 22 -25 26
-43 8z"/>
<path d="M5960 7915 c-15 -18 -6 -45 13 -45 20 0 40 27 33 45 -7 19 -30 19
-46 0z"/>
<path d="M10713 7904 c-8 -21 13 -42 28 -27 13 13 5 43 -11 43 -6 0 -13 -7
-17 -16z"/>
<path d="M10169 7894 c-15 -18 -2 -47 24 -52 22 -5 42 35 26 54 -15 18 -33 18
-50 -2z"/>
<path d="M10345 7896 c-20 -15 -15 -43 10 -52 18 -7 45 12 45 32 0 22 -35 35
-55 20z"/>
<path d="M5617 7893 c-12 -11 -8 -23 8 -23 8 0 15 7 15 15 0 16 -12 20 -23 8z"/>
<path d="M6064 7866 c-7 -19 14 -58 28 -54 23 8 32 36 19 52 -17 20 -40 21
-47 2z"/>
<path d="M10557 7863 c-11 -10 -8 -41 4 -49 6 -3 18 1 27 9 13 13 13 19 2 31
-14 17 -23 20 -33 9z"/>
<path d="M5736 7851 c-4 -5 -2 -12 3 -15 5 -4 12 -2 15 3 4 5 2 12 -3 15 -5 4
-12 2 -15 -3z"/>
<path d="M5857 7833 c-11 -10 -8 -51 4 -59 18 -10 42 21 34 45 -6 21 -25 28
-38 14z"/>
<path d="M10260 7815 c-18 -22 -8 -50 19 -50 32 0 49 28 32 49 -17 20 -35 20
-51 1z"/>
<path d="M10450 7806 c-18 -22 -5 -48 22 -44 17 2 23 10 23 28 0 29 -26 38
-45 16z"/>
<path d="M5991 7782 c-7 -14 -6 -25 3 -38 12 -15 16 -16 30 -5 22 18 20 38 -4
51 -15 8 -21 6 -29 -8z"/>
<path d="M10326 7767 c-16 -11 -17 -17 -7 -36 19 -34 56 -25 56 14 0 34 -20
43 -49 22z"/>
<path d="M10661 7757 c-8 -10 -7 -19 4 -33 13 -18 15 -18 31 -2 18 18 13 48
-9 48 -8 0 -20 -6 -26 -13z"/>
<path d="M5336 7751 c-4 -5 -2 -12 3 -15 5 -4 12 -2 15 3 4 5 2 12 -3 15 -5 4
-12 2 -15 -3z"/>
<path d="M10524 7745 c-4 -9 -2 -21 4 -27 15 -15 44 -1 40 19 -4 23 -36 29
-44 8z"/>
<path d="M5910 7725 c-17 -21 -8 -50 18 -53 27 -4 38 19 22 47 -13 25 -23 26
-40 6z"/>
<path d="M5463 7715 c-3 -9 -3 -18 0 -22 10 -10 37 6 37 22 0 20 -29 20 -37 0z"/>
<path d="M5770 7710 c0 -13 7 -20 18 -20 26 0 34 11 21 27 -17 20 -39 16 -39
-7z"/>
<path d="M5570 7710 c0 -5 5 -10 10 -10 6 0 10 5 10 10 0 6 -4 10 -10 10 -5 0
-10 -4 -10 -10z"/>
<path d="M10872 7697 c-14 -17 2 -42 22 -34 20 8 20 21 2 36 -10 8 -16 8 -24
-2z"/>
<path d="M10734 7685 c-8 -21 3 -45 20 -45 20 0 29 16 21 40 -7 23 -33 27 -41
5z"/>
<path d="M10426 7662 c-15 -18 -15 -20 2 -35 25 -22 39 -21 52 4 9 15 8 24 -1
35 -16 19 -33 18 -53 -4z"/>
<path d="M10603 7664 c-6 -16 19 -44 39 -44 15 0 20 30 8 45 -16 20 -39 19
-47 -1z"/>
<path d="M5693 7644 c-3 -8 -1 -20 5 -26 16 -16 42 -2 42 22 0 24 -38 28 -47
4z"/>
<path d="M5834 7646 c-9 -24 0 -51 18 -54 20 -4 40 30 32 52 -8 20 -43 21 -50
2z"/>
<path d="M10850 7605 c-19 -22 5 -48 31 -34 23 12 25 35 3 43 -21 8 -20 8 -34
-9z"/>
<path d="M5473 7584 c-9 -25 13 -40 26 -16 8 16 7 21 -5 26 -8 3 -17 -1 -21
-10z"/>
<path d="M10500 7581 c-18 -34 30 -67 58 -39 17 17 15 45 -4 52 -27 10 -43 7
-54 -13z"/>
<path d="M5609 7574 c-9 -11 -9 -18 -1 -26 14 -14 42 -3 42 16 0 20 -27 27
-41 10z"/>
<path d="M10690 7566 c0 -29 10 -38 29 -27 18 11 10 45 -12 49 -12 3 -17 -3
-17 -22z"/>
<path d="M5751 7561 c-10 -7 -11 -13 -2 -30 14 -26 37 -27 49 -3 18 34 -11 55
-47 33z"/>
<path d="M10581 7516 c-26 -31 14 -71 45 -45 8 7 14 22 12 33 -4 26 -40 33
-57 12z"/>
<path d="M11012 7518 c6 -18 28 -21 28 -4 0 9 -7 16 -16 16 -9 0 -14 -5 -12
-12z"/>
<path d="M10913 7504 c-3 -8 -1 -20 5 -26 15 -15 43 -2 36 16 -8 21 -34 28
-41 10z"/>
<path d="M11174 7506 c-8 -22 3 -33 18 -18 9 9 9 15 0 24 -9 9 -13 7 -18 -6z"/>
<path d="M5397 7504 c-16 -16 -6 -35 16 -32 12 2 22 10 22 18 0 16 -26 25 -38
14z"/>
<path d="M5536 7481 c-14 -15 -14 -20 -2 -36 12 -16 16 -17 30 -6 20 17 21 47
2 54 -8 3 -21 -2 -30 -12z"/>
<path d="M5691 7477 c-15 -15 -14 -44 3 -50 17 -7 36 11 36 34 0 21 -24 31
-39 16z"/>
<path d="M10772 7478 c-26 -26 -2 -64 30 -47 10 5 18 16 18 24 0 21 -34 37
-48 23z"/>
<path d="M10664 7426 c-15 -12 -17 -18 -8 -33 14 -23 53 -23 67 -1 8 12 7 21
-2 32 -17 20 -32 20 -57 2z"/>
<path d="M5197 7413 c-4 -3 -7 -12 -7 -20 0 -17 26 -17 33 1 8 21 -11 35 -26
19z"/>
<path d="M5306 7411 c-7 -11 18 -33 27 -24 4 3 7 12 7 20 0 15 -26 18 -34 4z"/>
<path d="M5454 7405 c-4 -9 -2 -21 4 -27 15 -15 44 -1 40 19 -4 23 -36 29 -44
8z"/>
<path d="M10825 7407 c-20 -16 -15 -44 11 -54 23 -9 51 23 38 44 -14 23 -27
26 -49 10z"/>
<path d="M11094 7406 c-9 -24 12 -44 28 -28 10 10 8 16 -5 29 -15 15 -17 15
-23 -1z"/>
<path d="M5612 7388 c-16 -16 -15 -33 3 -48 20 -17 47 5 43 34 -4 24 -28 32
-46 14z"/>
<path d="M10725 7350 c-18 -20 -18 -21 2 -42 22 -22 37 -19 53 12 7 14 6 23
-6 34 -20 21 -27 20 -49 -4z"/>
<path d="M11315 7349 c-10 -15 3 -25 16 -12 7 7 7 13 1 17 -6 3 -14 1 -17 -5z"/>
<path d="M11194 7336 c-4 -10 -2 -22 4 -28 8 -8 13 -7 18 6 4 10 2 22 -4 28
-8 8 -13 7 -18 -6z"/>
<path d="M5285 7310 c-3 -5 1 -10 10 -10 9 0 13 5 10 10 -3 6 -8 10 -10 10 -2
0 -7 -4 -10 -10z"/>
<path d="M10886 7312 c-3 -5 1 -17 8 -27 16 -22 49 -13 44 12 -3 19 -42 30
-52 15z"/>
<path d="M5394 7296 c-9 -24 4 -48 23 -44 12 2 18 12 18 28 0 29 -32 41 -41
16z"/>
<path d="M5545 7290 c-15 -16 -15 -22 -5 -35 16 -19 34 -19 49 -1 27 32 -16
67 -44 36z"/>
<path d="M10785 7243 c-16 -16 -16 -18 4 -34 29 -24 51 -14 51 22 0 34 -28 40
-55 12z"/>
<path d="M11226 7231 c-3 -5 1 -14 8 -20 16 -13 32 2 21 19 -8 12 -22 13 -29
1z"/>
<path d="M11516 7231 c-4 -5 -2 -12 3 -15 5 -4 12 -2 15 3 4 5 2 12 -3 15 -5
4 -12 2 -15 -3z"/>
<path d="M11005 7216 c-11 -8 -16 -19 -12 -30 9 -22 41 -17 45 8 6 27 -11 38
-33 22z"/>
<path d="M11375 7219 c-10 -15 3 -25 16 -12 7 7 7 13 1 17 -6 3 -14 1 -17 -5z"/>
<path d="M5066 7211 c-7 -11 18 -33 27 -24 4 3 7 12 7 20 0 15 -26 18 -34 4z"/>
<path d="M5223 7204 c-7 -18 17 -38 31 -24 11 11 1 40 -14 40 -6 0 -13 -7 -17
-16z"/>
<path d="M11113 7204 c-7 -19 11 -39 26 -30 16 10 13 33 -4 40 -9 3 -18 -1
-22 -10z"/>
<path d="M5335 7201 c-3 -5 -1 -12 5 -16 5 -3 10 1 10 9 0 18 -6 21 -15 7z"/>
<path d="M5465 7189 c-10 -29 14 -43 37 -22 14 12 15 19 7 30 -17 19 -37 16
-44 -8z"/>
<path d="M10850 7155 c-15 -18 -8 -40 18 -54 29 -15 58 19 42 48 -13 24 -42
27 -60 6z"/>
<path d="M5132 7114 c4 -21 22 -23 26 -1 2 10 -3 17 -13 17 -10 0 -15 -6 -13
-16z"/>
<path d="M5394 7115 c-7 -18 13 -45 33 -45 19 0 28 27 13 45 -16 19 -39 19
-46 0z"/>
<path d="M11006 7114 c-7 -19 11 -57 26 -52 19 7 32 34 25 52 -8 21 -43 21
-51 0z"/>
<path d="M11173 7105 c-3 -9 -3 -18 0 -22 10 -10 37 6 37 22 0 20 -29 20 -37
0z"/>
<path d="M11325 7109 c-10 -15 1 -23 20 -15 9 3 13 10 10 16 -8 13 -22 13 -30
-1z"/>
<path d="M11475 7110 c-4 -6 -3 -16 3 -22 6 -6 12 -6 17 2 4 6 3 16 -3 22 -6
6 -12 6 -17 -2z"/>
<path d="M5254 7085 c-4 -9 0 -23 9 -32 21 -21 49 -9 45 19 -4 28 -45 38 -54
13z"/>
<path d="M10915 7060 c-13 -40 38 -68 64 -36 9 11 10 20 1 35 -14 28 -56 28
-65 1z"/>
<path d="M5034 7046 c-4 -10 -2 -22 4 -28 8 -8 13 -7 18 6 4 10 2 22 -4 28 -8
8 -13 7 -18 -6z"/>
<path d="M11251 7042 c-15 -27 5 -55 30 -42 25 14 24 36 -1 50 -15 8 -21 7
-29 -8z"/>
<path d="M5342 7028 c-18 -18 -15 -46 6 -57 13 -7 23 -6 30 1 17 17 15 55 -4
62 -20 8 -18 8 -32 -6z"/>
<path d="M5193 7023 c-7 -2 -13 -13 -13 -24 0 -23 32 -26 50 -4 20 25 -3 42
-37 28z"/>
<path d="M11104 7016 c-24 -18 -11 -48 18 -44 14 2 24 11 26 24 4 26 -20 37
-44 20z"/>
<path d="M10982 6978 c-17 -17 -15 -32 7 -52 17 -16 20 -16 35 -1 20 21 20 28
-2 48 -22 20 -25 20 -40 5z"/>
<path d="M11403 6944 c-8 -21 13 -42 28 -27 13 13 5 43 -11 43 -6 0 -13 -7
-17 -16z"/>
<path d="M5135 6929 c-5 -14 -1 -27 9 -37 15 -15 17 -15 33 1 14 13 15 21 7
35 -16 25 -41 26 -49 1z"/>
<path d="M4895 6930 c-11 -17 5 -32 21 -19 7 6 11 15 8 20 -7 12 -21 11 -29
-1z"/>
<path d="M5265 6930 c-3 -5 4 -19 16 -31 19 -19 23 -20 36 -6 9 9 13 23 10 31
-7 17 -52 22 -62 6z"/>
<path d="M11167 6934 c-4 -4 -7 -16 -7 -26 0 -14 6 -19 23 -16 14 2 22 10 22
23 0 20 -25 32 -38 19z"/>
<path d="M5037 6917 c-8 -20 9 -41 27 -34 23 9 21 47 -3 47 -10 0 -21 -6 -24
-13z"/>
<path d="M11274 6895 c-9 -22 22 -53 37 -38 15 15 7 47 -14 51 -9 2 -20 -4
-23 -13z"/>
<path d="M11036 6881 c-14 -16 -15 -24 -6 -40 9 -18 14 -19 31 -10 27 14 34
36 19 54 -16 20 -23 19 -44 -4z"/>
<path d="M11560 6860 c0 -5 7 -10 15 -10 8 0 15 5 15 10 0 6 -7 10 -15 10 -8
0 -15 -4 -15 -10z"/>
<path d="M5236 6831 c-22 -24 -13 -41 20 -41 29 0 42 24 24 45 -16 20 -23 19
-44 -4z"/>
<path d="M4984 6805 c-4 -9 -2 -21 4 -27 15 -15 44 -1 40 19 -4 23 -36 29 -44
8z"/>
<path d="M11221 6802 c-11 -20 3 -42 25 -42 15 0 28 35 19 50 -10 16 -33 12
-44 -8z"/>
<path d="M11354 6805 c-7 -18 3 -35 21 -35 16 0 38 34 28 44 -12 11 -44 6 -49
-9z"/>
<path d="M4867 6804 c-14 -14 -7 -35 11 -32 9 2 17 10 17 17 0 16 -18 25 -28
15z"/>
<path d="M5076 6784 c-9 -22 17 -49 39 -40 10 3 15 15 13 28 -4 29 -42 37 -52
12z"/>
<path d="M4700 6780 c0 -5 7 -10 15 -10 8 0 15 5 15 10 0 6 -7 10 -15 10 -8 0
-15 -4 -15 -10z"/>
<path d="M11640 6775 c0 -8 7 -15 16 -15 14 0 14 3 4 15 -7 8 -14 15 -16 15
-2 0 -4 -7 -4 -15z"/>
<path d="M11091 6771 c-12 -8 -13 -14 -3 -36 13 -29 38 -31 55 -4 22 35 -15
63 -52 40z"/>
<path d="M11496 6773 c-12 -12 -6 -43 9 -43 8 0 15 9 15 19 0 21 -13 34 -24
24z"/>
<path d="M5174 6745 c-4 -10 1 -25 14 -38 18 -17 23 -18 37 -7 9 7 15 23 13
34 -4 27 -55 36 -64 11z"/>
<path d="M4914 6705 c-4 -9 -2 -21 4 -27 15 -15 44 -1 40 19 -4 23 -36 29 -44
8z"/>
<path d="M11254 6685 c-7 -17 12 -45 31 -45 7 0 18 7 25 15 10 12 10 18 0 30
-16 19 -49 19 -56 0z"/>
<path d="M11397 6693 c-12 -12 -7 -41 8 -47 16 -6 40 28 30 44 -7 11 -28 13
-38 3z"/>
<path d="M4701 6674 c0 -11 3 -14 6 -6 3 7 2 16 -1 19 -3 4 -6 -2 -5 -13z"/>
<path d="M5027 6676 c-9 -22 18 -40 33 -22 6 9 9 20 5 26 -9 15 -32 12 -38 -4z"/>
<path d="M11128 6665 c-12 -27 2 -55 28 -55 23 0 40 46 24 65 -18 22 -39 18
-52 -10z"/>
<path d="M11512 6663 c5 -25 28 -28 28 -4 0 12 -6 21 -16 21 -9 0 -14 -7 -12
-17z"/>
<path d="M5143 6633 c-18 -7 -16 -38 2 -53 20 -17 47 5 43 34 -3 21 -22 29
-45 19z"/>
<path d="M6433 6551 c-27 -22 -57 -57 -67 -79 -16 -35 -25 -42 -86 -62 -78
-26 -97 -40 -173 -131 -77 -94 -180 -311 -262 -554 -23 -70 -75 -281 -94 -385
-5 -30 -17 -89 -26 -131 -22 -106 -35 -231 -41 -394 -6 -156 1 -209 49 -355
29 -92 33 -97 112 -175 127 -125 237 -181 382 -192 68 -5 75 -4 145 31 40 21
75 41 78 45 3 4 28 24 55 46 51 40 125 111 125 122 0 3 -11 3 -25 1 -14 -3
-25 -1 -25 4 0 12 47 58 59 58 21 0 78 -41 91 -65 22 -41 253 -258 311 -291
62 -36 125 -50 133 -29 2 7 -21 36 -55 67 -161 144 -240 232 -271 300 -10 23
-30 57 -44 75 -28 37 -31 69 -7 95 17 19 12 29 -21 41 -14 5 42 87 59 87 10 0
15 10 15 31 0 37 13 63 54 105 65 67 69 73 63 96 -6 22 25 102 44 114 5 3 9
14 9 26 0 11 15 34 34 52 41 38 56 66 56 104 0 17 9 37 21 48 25 22 43 65 52
117 5 31 3 38 -8 33 -19 -7 -20 21 -1 40 8 7 17 33 21 56 4 24 11 48 16 53 4
6 8 26 8 45 0 19 1 80 2 135 1 55 -1 125 -4 155 -3 30 -9 91 -13 134 -11 138
-81 274 -196 382 -96 91 -331 184 -464 184 -56 0 -65 -3 -111 -39z m414 -157
c87 -31 152 -140 183 -310 22 -120 27 -308 10 -396 -32 -161 -42 -207 -55
-248 -7 -25 -16 -60 -20 -77 -4 -18 -11 -35 -16 -38 -5 -4 -9 -13 -9 -22 0 -9
-16 -49 -35 -90 -19 -41 -35 -77 -35 -81 0 -11 -136 -277 -166 -324 -28 -44
-51 -47 -71 -8 -64 128 -86 188 -99 265 -3 17 -9 39 -13 50 -5 11 -14 33 -20
48 -6 15 -11 46 -11 68 0 22 -7 53 -14 68 -8 15 -15 50 -14 77 2 75 -9 113
-31 107 -11 -3 -22 1 -26 7 -9 15 13 30 32 23 7 -3 13 1 13 10 0 8 -7 17 -15
21 -8 3 -15 12 -15 21 0 8 7 15 15 15 18 0 19 12 3 28 -9 9 -9 15 0 24 7 7 12
27 12 45 0 26 -4 33 -19 33 -11 0 -23 5 -26 10 -10 16 14 40 37 37 20 -2 21 3
20 82 -1 71 -4 87 -22 106 l-22 23 21 7 c18 5 21 14 21 60 0 29 5 55 11 57 5
2 14 19 19 38 14 55 42 134 53 148 5 6 27 12 49 12 48 0 60 21 29 54 -49 52
-12 77 104 70 44 -3 99 -12 122 -20z m-591 -380 c1 -32 -2 -84 -7 -114 -13
-85 -14 -283 0 -409 6 -63 14 -118 17 -123 3 -4 9 -29 13 -56 18 -103 73 -291
105 -357 19 -38 40 -88 47 -110 7 -22 19 -47 26 -56 7 -8 33 -55 58 -103 32
-63 42 -92 36 -104 -30 -56 -194 -232 -217 -232 -4 0 -22 -13 -39 -28 -60 -57
-228 -90 -280 -56 -42 28 -84 105 -101 190 -18 87 -35 205 -36 244 -1 83 10
208 20 226 6 12 9 24 6 26 -3 3 4 67 16 143 11 75 20 156 20 180 0 24 6 56 14
72 34 66 46 104 46 144 0 27 9 57 25 84 13 24 38 94 54 156 17 62 39 125 51
141 11 15 20 34 20 42 0 36 76 169 94 163 6 -2 12 -29 12 -63z m-166 -174 c0
-5 -5 -10 -11 -10 -5 0 -7 5 -4 10 3 6 8 10 11 10 2 0 4 -4 4 -10z"/>
<path d="M11180 6575 c-10 -12 -9 -20 4 -40 20 -31 30 -31 50 -3 29 40 -22 81
-54 43z"/>
<path d="M5000 6565 c-11 -13 -11 -19 3 -32 21 -21 49 -9 45 19 -4 28 -30 35
-48 13z"/>
<path d="M11314 6565 c-4 -9 -2 -21 4 -27 15 -15 44 -1 40 19 -4 23 -36 29
-44 8z"/>
<path d="M4863 6554 c-7 -19 20 -49 36 -40 6 4 11 18 11 32 0 17 -5 24 -20 24
-11 0 -23 -7 -27 -16z"/>
<path d="M5079 6524 c-16 -20 0 -49 27 -49 22 0 31 30 14 50 -16 19 -24 19
-41 -1z"/>
<path d="M11366 6501 c-18 -20 -18 -22 -1 -41 13 -15 22 -17 36 -9 24 12 24
21 1 49 l-17 22 -19 -21z"/>
<path d="M4825 6491 c-8 -15 3 -31 21 -31 9 0 14 7 12 17 -4 20 -24 28 -33 14z"/>
<path d="M4940 6485 c-10 -12 -10 -19 -1 -28 14 -14 46 2 46 24 0 20 -30 23
-45 4z"/>
<path d="M11502 6478 c5 -34 38 -37 38 -4 0 20 -5 26 -21 26 -15 0 -20 -5 -17
-22z"/>
<path d="M11234 6445 c-4 -9 -2 -21 4 -27 16 -16 47 -5 47 17 0 26 -42 34 -51
10z"/>
<path d="M4550 6436 c0 -18 16 -29 30 -21 13 8 1 35 -16 35 -8 0 -14 -6 -14
-14z"/>
<path d="M4710 6435 c-16 -19 -5 -47 17 -43 22 4 29 43 9 51 -8 3 -20 -1 -26
-8z"/>
<path d="M5034 6415 c-10 -25 4 -45 31 -45 30 0 43 24 25 45 -16 19 -49 19
-56 0z"/>
<path d="M11646 6391 c-3 -5 1 -14 8 -20 16 -13 32 2 21 19 -8 12 -22 13 -29
1z"/>
<path d="M11390 6375 c-15 -18 -6 -45 14 -45 13 0 26 20 26 40 0 15 -29 19
-40 5z"/>
<path d="M4793 6364 c-3 -9 0 -20 8 -25 23 -14 29 -11 29 16 0 28 -27 35 -37
9z"/>
<path d="M4907 6373 c-9 -9 12 -33 29 -33 8 0 14 9 14 20 0 19 -28 28 -43 13z"/>
<path d="M11282 6357 c-26 -12 -26 -34 1 -51 12 -8 22 -8 35 0 42 27 10 72
-36 51z"/>
<path d="M11497 6363 c-15 -14 -7 -43 12 -43 20 0 35 25 25 41 -6 11 -28 12
-37 2z"/>
<path d="M4671 6341 c-14 -26 10 -48 29 -26 13 16 7 45 -9 45 -6 0 -15 -9 -20
-19z"/>
<path d="M5006 6307 c-23 -17 -17 -51 10 -55 28 -4 51 24 38 46 -14 22 -27 24
-48 9z"/>
<path d="M11675 6309 c-10 -15 1 -23 20 -15 9 3 13 10 10 16 -8 13 -22 13 -30
-1z"/>
<path d="M4510 6276 c0 -9 7 -16 16 -16 17 0 14 22 -4 28 -7 2 -12 -3 -12 -12z"/>
<path d="M4771 6261 c-19 -12 -6 -43 16 -39 21 4 31 48 11 48 -7 0 -19 -4 -27
-9z"/>
<path d="M11412 6258 c-26 -26 -2 -64 30 -47 10 5 18 16 18 24 0 21 -34 37
-48 23z"/>
<path d="M4861 6246 c-13 -15 -6 -42 14 -50 18 -7 47 28 39 48 -8 20 -37 21
-53 2z"/>
<path d="M11297 6253 c-13 -12 -7 -54 9 -60 21 -8 59 30 51 51 -6 16 -48 22
-60 9z"/>
<path d="M4626 6221 c-14 -16 -15 -20 -2 -30 19 -16 36 -6 36 19 0 27 -15 32
-34 11z"/>
<path d="M11546 6231 c-10 -16 5 -41 24 -41 25 0 35 18 20 35 -14 17 -36 20
-44 6z"/>
<path d="M4965 6204 c-15 -16 -15 -18 2 -36 26 -26 55 -14 51 21 -4 31 -29 39
-53 15z"/>
<path d="M11683 6195 c-7 -20 2 -29 21 -22 9 4 13 13 10 22 -8 19 -23 19 -31
0z"/>
<path d="M11338 6173 c-24 -6 -31 -34 -13 -52 20 -21 50 -3 50 29 0 25 -9 30
-37 23z"/>
<path d="M11445 6150 c-9 -15 4 -50 19 -50 8 0 19 6 25 14 9 11 8 18 -4 30
-19 18 -31 20 -40 6z"/>
<path d="M4420 6130 c0 -5 7 -10 16 -10 8 0 12 5 9 10 -3 6 -10 10 -16 10 -5
0 -9 -4 -9 -10z"/>
<path d="M4850 6125 c-9 -11 -10 -19 -3 -26 17 -17 48 -6 48 16 0 25 -28 31
-45 10z"/>
<path d="M8558 6125 c-29 -16 -58 -59 -99 -146 -15 -31 -32 -60 -38 -63 -6 -4
-11 -22 -11 -41 0 -19 -5 -37 -11 -41 -24 -14 -50 -100 -52 -168 l-2 -69 45
-28 c54 -33 108 -37 137 -10 11 11 26 44 33 73 20 88 66 235 107 346 32 85 28
111 -22 139 -47 26 -51 27 -87 8z"/>
<path d="M11592 6118 c-17 -17 5 -43 24 -27 8 6 14 18 14 25 0 17 -22 18 -38
2z"/>
<path d="M4613 6104 c-8 -21 13 -42 28 -27 13 13 5 43 -11 43 -6 0 -13 -7 -17
-16z"/>
<path d="M4700 6100 c0 -24 26 -38 42 -22 8 8 8 15 -2 27 -18 21 -40 19 -40
-5z"/>
<path d="M4950 6085 c-16 -19 3 -45 32 -45 24 0 34 26 18 45 -16 19 -34 19
-50 0z"/>
<path d="M11717 6073 c-12 -11 -8 -23 8 -23 8 0 15 7 15 15 0 16 -12 20 -23 8z"/>
<path d="M11368 6059 c-24 -13 -23 -36 1 -49 15 -7 24 -6 36 6 15 15 15 18 -1
35 -9 11 -18 19 -18 19 -1 0 -9 -5 -18 -11z"/>
<path d="M11471 6061 c-17 -11 -7 -61 13 -61 23 0 41 29 30 48 -13 20 -25 24
-43 13z"/>
<path d="M4495 6051 c-3 -5 -1 -12 5 -16 12 -7 30 2 30 16 0 12 -27 12 -35 0z"/>
<path d="M4818 6020 c-19 -15 -21 -22 -12 -37 6 -10 22 -18 35 -18 20 0 25 6
27 31 4 40 -18 50 -50 24z"/>
<path d="M4920 5986 c-27 -33 18 -72 48 -42 13 13 14 20 6 34 -15 23 -38 26
-54 8z"/>
<path d="M11614 5989 c-10 -17 23 -46 37 -32 7 7 9 19 6 27 -7 18 -33 21 -43
5z"/>
<path d="M4700 5975 c-11 -13 -11 -19 3 -32 21 -21 49 -9 45 19 -4 28 -30 35
-48 13z"/>
<path d="M4575 5971 c-3 -5 2 -17 11 -26 19 -19 40 -6 31 19 -7 17 -32 21 -42
7z"/>
<path d="M11743 5964 c-8 -21 13 -42 28 -27 13 13 5 43 -11 43 -6 0 -13 -7
-17 -16z"/>
<path d="M4780 5924 c-11 -12 -10 -18 3 -31 21 -21 47 -9 47 22 0 29 -29 35
-50 9z"/>
<path d="M11525 5929 c-10 -15 4 -61 17 -57 18 6 32 34 25 52 -7 18 -32 22
-42 5z"/>
<path d="M11380 5914 c-18 -21 9 -49 39 -39 26 8 27 31 2 45 -25 13 -26 13
-41 -6z"/>
<path d="M4690 5895 c-13 -16 -6 -35 15 -35 18 0 26 15 19 34 -8 20 -18 20
-34 1z"/>
<path d="M4888 5875 c-10 -21 -9 -29 5 -43 13 -13 21 -14 35 -6 24 16 27 45 6
61 -25 18 -33 16 -46 -12z"/>
<path d="M11645 5886 c-11 -8 -16 -19 -12 -30 9 -22 41 -17 45 8 6 27 -11 38
-33 22z"/>
<path d="M9963 5868 c-24 -32 -163 -440 -163 -479 0 -14 -8 -40 -18 -58 -22
-41 -71 -58 -190 -69 -71 -6 -77 -9 -80 -30 -5 -32 104 -142 139 -142 14 0 32
-6 41 -12 18 -14 15 -35 -47 -283 -22 -86 -28 -136 -29 -225 -1 -115 -1 -116
34 -174 51 -85 131 -146 189 -146 37 0 148 89 171 137 8 17 27 43 43 57 15 14
27 36 27 49 0 15 15 37 40 60 32 29 40 42 40 71 0 25 6 39 22 51 19 13 21 18
11 34 -6 10 -15 35 -19 56 -8 45 -32 57 -52 27 -8 -12 -20 -22 -26 -22 -7 0
-36 -29 -64 -65 -29 -36 -56 -65 -60 -65 -5 0 -30 -29 -56 -65 -54 -73 -90
-105 -119 -105 -18 0 -19 4 -13 64 3 35 13 86 21 112 8 27 15 63 15 79 0 17
13 75 29 130 15 55 31 129 35 165 4 36 15 75 24 87 23 30 90 53 198 68 51 7
102 16 114 20 31 10 117 24 240 40 189 24 227 55 158 130 -58 62 -157 66 -428
19 -142 -25 -200 -28 -200 -13 0 18 71 187 110 261 39 74 39 114 0 164 -59 75
-113 103 -137 72z"/>
<path d="M4400 5825 c0 -10 7 -15 18 -13 21 4 19 22 -2 26 -10 2 -16 -3 -16
-13z"/>
<path d="M4517 5833 c-3 -5 -2 -15 3 -22 10 -17 43 -6 38 12 -6 15 -34 22 -41
10z"/>
<path d="M11773 5824 c-8 -20 8 -36 26 -25 15 10 8 41 -9 41 -6 0 -13 -7 -17
-16z"/>
<path d="M4761 5812 c-12 -22 3 -42 30 -42 22 0 33 28 18 46 -16 19 -36 17
-48 -4z"/>
<path d="M11407 5813 c-13 -12 -7 -41 10 -47 9 -4 23 0 31 8 13 12 13 18 2 30
-13 17 -32 21 -43 9z"/>
<path d="M11505 5810 c-4 -6 -1 -17 5 -26 14 -16 40 -2 40 22 0 16 -36 19 -45
4z"/>
<path d="M4672 5778 c-16 -16 -15 -24 4 -43 12 -12 19 -13 30 -4 19 16 17 36
-4 48 -13 7 -23 6 -30 -1z"/>
<path d="M4886 5767 c-28 -21 -17 -52 19 -52 27 0 30 3 30 30 0 34 -20 43 -49
22z"/>
<path d="M11656 5773 c-10 -10 -7 -41 4 -48 15 -9 40 14 34 30 -6 16 -29 26
-38 18z"/>
<path d="M4534 5716 c-8 -22 3 -49 19 -43 6 2 12 14 12 27 0 27 -22 39 -31 16z"/>
<path d="M11416 5714 c-15 -14 -15 -19 -3 -38 17 -26 36 -27 51 -3 8 12 8 22
0 34 -15 24 -29 26 -48 7z"/>
<path d="M11563 5704 c-6 -16 15 -37 29 -28 4 3 8 14 8 25 0 23 -28 26 -37 3z"/>
<path d="M4430 5685 c0 -8 7 -15 15 -15 8 0 15 7 15 15 0 8 -7 15 -15 15 -8 0
-15 -7 -15 -15z"/>
<path d="M4767 5689 c-19 -11 -23 -44 -7 -54 17 -11 50 5 50 24 0 27 -21 42
-43 30z"/>
<path d="M4614 5665 c-7 -18 12 -45 31 -45 18 0 24 21 13 43 -11 21 -37 22
-44 2z"/>
<path d="M4857 5646 c-9 -23 2 -44 25 -52 26 -8 41 7 36 37 -4 29 -52 40 -61
15z"/>
<path d="M11666 5635 c-6 -17 16 -31 33 -21 13 9 2 36 -14 36 -7 0 -16 -7 -19
-15z"/>
<path d="M11427 5599 c-40 -23 -6 -90 35 -68 10 5 18 21 18 34 0 29 -28 47
-53 34z"/>
<path d="M11530 5590 c-20 -12 -1 -45 26 -45 22 0 32 34 12 46 -17 11 -20 11
-38 -1z"/>
<path d="M4410 5561 c0 -21 26 -36 36 -20 9 15 -3 39 -21 39 -8 0 -15 -9 -15
-19z"/>
<path d="M4755 5550 c-9 -15 13 -40 35 -40 24 0 31 10 19 31 -11 20 -44 26
-54 9z"/>
<path d="M4850 5525 c-15 -19 -5 -61 16 -69 24 -9 46 13 42 42 -4 31 -41 48
-58 27z"/>
<path d="M4617 5514 c-4 -4 -7 -18 -7 -31 0 -26 27 -32 37 -7 6 17 -19 49 -30
38z"/>
<path d="M11714 5506 c-4 -10 -2 -22 4 -28 8 -8 13 -7 18 6 4 10 2 22 -4 28
-8 8 -13 7 -18 -6z"/>
<path d="M4513 5473 c-17 -6 -16 -28 1 -42 21 -17 45 15 25 33 -8 8 -20 12
-26 9z"/>
<path d="M11430 5457 c0 -14 7 -30 16 -37 12 -11 18 -10 32 4 20 20 6 49 -27
54 -17 3 -21 -2 -21 -21z"/>
<path d="M11948 5463 c7 -3 16 -2 19 1 4 3 -2 6 -13 5 -11 0 -14 -3 -6 -6z"/>
<path d="M11584 5445 c-4 -9 -2 -21 4 -27 15 -15 44 -1 40 19 -4 23 -36 29
-44 8z"/>
<path d="M4750 5425 c-17 -21 -5 -45 24 -45 27 0 42 26 25 46 -15 18 -33 18
-49 -1z"/>
<path d="M4630 5395 c-17 -20 -6 -45 20 -45 17 0 21 5 18 27 -4 31 -20 40 -38
18z"/>
<path d="M4840 5395 c-17 -21 -5 -45 23 -45 30 0 50 22 41 44 -8 20 -47 21
-64 1z"/>
<path d="M4394 5389 c-10 -17 13 -36 27 -22 12 12 4 33 -11 33 -5 0 -12 -5
-16 -11z"/>
<path d="M8388 5373 c-41 -6 -47 -21 -37 -86 9 -56 5 -148 -21 -447 -14 -171
-14 -518 0 -535 7 -8 26 -19 44 -24 17 -5 45 -15 62 -22 27 -11 39 -10 78 5
46 18 46 18 46 64 0 26 -5 63 -10 82 -20 66 -22 296 -5 470 25 251 29 378 13
425 -22 61 -74 82 -170 68z"/>
<path d="M11437 5374 c-12 -12 -8 -41 8 -54 20 -17 47 5 43 34 -3 21 -37 34
-51 20z"/>
<path d="M11666 5372 c-2 -4 -1 -14 4 -22 7 -11 12 -12 21 -3 6 6 8 16 5 22
-8 13 -23 14 -30 3z"/>
<path d="M4512 5358 c-7 -7 -12 -20 -12 -31 0 -24 33 -19 38 7 5 24 -11 39
-26 24z"/>
<path d="M11561 5357 c-8 -10 -7 -19 3 -33 14 -18 15 -18 34 0 12 10 18 24 15
32 -7 18 -37 18 -52 1z"/>
<path d="M4754 5326 c-9 -22 4 -36 32 -36 21 0 25 4 22 23 -4 26 -45 37 -54
13z"/>
<path d="M11916 5321 c-4 -7 -5 -15 -2 -18 9 -9 19 4 14 18 -4 11 -6 11 -12 0z"/>
<path d="M7956 5288 c-3 -13 -6 -36 -6 -52 0 -27 -55 -126 -71 -126 -4 0 -19
-29 -34 -65 -16 -36 -32 -65 -36 -65 -5 0 -30 -44 -55 -97 -26 -54 -62 -117
-80 -140 -19 -23 -34 -45 -34 -49 0 -17 -133 -204 -145 -204 -31 0 -43 27 -34
75 5 26 11 50 14 55 3 4 1 30 -4 56 -8 43 -6 53 15 90 17 30 24 56 24 96 0 37
6 63 18 79 36 49 42 70 42 138 0 65 -2 72 -33 105 -35 37 -81 55 -104 40 -8
-5 -28 -45 -45 -89 -17 -44 -41 -108 -54 -141 -15 -40 -26 -93 -29 -150 -3
-49 -11 -123 -16 -164 -20 -139 28 -282 128 -386 40 -42 58 -54 81 -54 17 0
37 -3 45 -6 30 -11 141 116 162 186 5 14 22 44 39 67 17 22 39 55 48 72 9 17
24 31 33 31 19 0 35 -39 35 -85 0 -27 11 -46 56 -94 31 -34 63 -61 71 -61 8 0
27 7 42 16 27 16 28 18 18 63 -14 60 -10 173 9 286 19 116 20 118 39 195 9 36
18 79 21 95 3 17 12 44 20 62 17 38 3 119 -30 170 -41 63 -138 96 -150 51z"/>
<path d="M4855 5290 c-12 -20 6 -51 28 -48 31 4 31 52 0 56 -11 2 -24 -2 -28
-8z"/>
<path d="M4631 5266 c-16 -19 -7 -46 14 -46 22 0 30 29 13 46 -13 13 -16 13
-27 0z"/>
<path d="M4370 5255 c0 -8 7 -15 15 -15 8 0 15 7 15 15 0 8 -7 15 -15 15 -8 0
-15 -7 -15 -15z"/>
<path d="M11457 5253 c-11 -10 -8 -51 4 -59 16 -9 53 31 46 50 -6 16 -38 22
-50 9z"/>
<path d="M11695 5251 c-3 -5 2 -17 11 -26 22 -21 44 -4 24 20 -14 17 -26 19
-35 6z"/>
<path d="M4760 5235 c-10 -13 -10 -19 5 -35 10 -11 24 -20 31 -20 15 0 29 43
19 59 -9 16 -41 13 -55 -4z"/>
<path d="M9126 5233 c-16 -3 -45 -15 -64 -28 l-34 -23 -41 19 c-90 40 -101 29
-242 -246 -70 -136 -99 -254 -92 -365 6 -92 23 -133 89 -216 77 -99 182 -147
268 -124 70 19 198 127 282 240 68 91 138 200 164 257 55 119 31 262 -62 362
-87 94 -181 137 -268 124z m195 -176 c42 -28 46 -52 20 -120 -39 -107 -127
-238 -245 -368 -82 -91 -235 -166 -284 -140 -16 8 -19 19 -17 63 5 110 42 259
92 368 44 96 136 181 166 151 18 -18 43 -13 92 20 79 53 125 60 176 26z"/>
<path d="M11570 5214 c-11 -12 -10 -18 3 -32 15 -15 19 -15 32 -1 17 17 11 49
-10 49 -7 0 -18 -7 -25 -16z"/>
<path d="M11804 5209 c-10 -17 13 -36 27 -22 12 12 4 33 -11 33 -5 0 -12 -5
-16 -11z"/>
<path d="M4532 5193 c4 -21 33 -25 33 -3 0 8 -8 16 -18 18 -14 3 -18 -1 -15
-15z"/>
<path d="M4854 5186 c-11 -28 1 -51 25 -51 32 0 49 28 32 49 -17 20 -50 21
-57 2z"/>
<path d="M4645 5149 c-6 -19 7 -38 26 -39 14 0 31 31 25 45 -8 23 -44 18 -51
-6z"/>
<path d="M11444 5125 c-8 -21 2 -45 19 -45 20 0 40 27 33 45 -7 19 -45 20 -52
0z"/>
<path d="M11650 5116 c0 -7 7 -19 15 -26 19 -16 41 1 32 24 -8 20 -47 21 -47
2z"/>
<path d="M4730 5096 c0 -29 28 -42 48 -22 20 20 8 46 -23 46 -20 0 -25 -5 -25
-24z"/>
<path d="M11575 5111 c-8 -15 3 -31 21 -31 9 0 14 7 12 17 -4 20 -24 28 -33
14z"/>
<path d="M4470 5096 c0 -18 16 -29 30 -21 13 8 1 35 -16 35 -8 0 -14 -6 -14
-14z"/>
<path d="M4859 5068 c-10 -18 -8 -24 7 -35 10 -7 23 -12 28 -10 17 6 29 34 23
51 -9 23 -44 20 -58 -6z"/>
<path d="M4614 5065 c-8 -21 10 -39 30 -32 22 9 20 24 -4 37 -16 9 -22 8 -26
-5z"/>
<path d="M11792 5043 c2 -10 10 -18 18 -18 8 0 16 8 18 18 2 12 -3 17 -18 17
-15 0 -20 -5 -18 -17z"/>
<path d="M11440 5025 c-15 -18 -6 -45 13 -45 8 0 20 7 27 15 10 12 10 18 0 30
-16 19 -24 19 -40 0z"/>
<path d="M4753 5003 c-18 -7 -16 -42 3 -50 8 -3 23 1 31 10 13 13 14 19 3 31
-13 17 -17 18 -37 9z"/>
<path d="M11533 4993 c-17 -6 -16 -50 1 -56 17 -7 36 11 36 34 0 18 -18 29
-37 22z"/>
<path d="M11656 4983 c-3 -3 -6 -15 -6 -25 0 -22 35 -25 44 -3 5 15 -26 39
-38 28z"/>
<path d="M4494 4969 c-3 -6 0 -17 8 -25 13 -13 16 -13 27 0 7 8 10 20 6 26 -8
13 -32 13 -41 -1z"/>
<path d="M4862 4968 c-19 -19 -14 -46 9 -59 30 -15 54 9 45 45 -7 28 -33 35
-54 14z"/>
<path d="M11432 4938 c-26 -26 -2 -64 30 -47 10 5 18 16 18 24 0 21 -34 37
-48 23z"/>
<path d="M11766 4933 c-12 -12 -6 -33 9 -33 8 0 15 6 15 14 0 17 -14 28 -24
19z"/>
<path d="M4435 4920 c3 -5 8 -10 11 -10 2 0 4 5 4 10 0 6 -5 10 -11 10 -5 0
-7 -4 -4 -10z"/>
<path d="M4636 4913 c-12 -12 -6 -33 9 -33 8 0 15 6 15 14 0 17 -14 28 -24 19z"/>
<path d="M4773 4883 c-17 -6 -16 -38 1 -52 31 -26 63 18 34 47 -13 13 -16 13
-35 5z"/>
<path d="M11565 4869 c-10 -15 1 -23 20 -15 9 3 13 10 10 16 -8 13 -22 13 -30
-1z"/>
<path d="M11955 4871 c-3 -5 -1 -12 5 -16 5 -3 10 1 10 9 0 18 -6 21 -15 7z"/>
<path d="M4870 4855 c-17 -20 3 -45 35 -45 27 0 36 17 23 43 -11 21 -41 22
-58 2z"/>
<path d="M4670 4815 c-13 -16 -6 -35 15 -35 15 0 24 19 17 38 -6 16 -17 15
-32 -3z"/>
<path d="M11412 4818 c-28 -28 -3 -75 30 -57 10 5 18 18 18 29 0 25 -33 43
-48 28z"/>
<path d="M11770 4794 c-9 -10 -10 -18 -2 -26 12 -12 32 -2 32 17 0 21 -16 26
-30 9z"/>
<path d="M11623 4774 c-7 -18 17 -38 31 -24 11 11 1 40 -14 40 -6 0 -13 -7
-17 -16z"/>
<path d="M11493 4754 c-3 -8 2 -23 11 -32 14 -15 18 -15 31 -1 9 9 13 23 9 32
-8 21 -43 22 -51 1z"/>
<path d="M4905 4743 c-22 -21 -15 -47 14 -51 30 -5 45 10 37 36 -9 27 -32 34
-51 15z"/>
<path d="M4588 4743 c7 -3 16 -2 19 1 4 3 -2 6 -13 5 -11 0 -14 -3 -6 -6z"/>
<path d="M4786 4737 c-17 -12 -17 -15 -2 -30 21 -21 48 -11 44 16 -4 26 -19
31 -42 14z"/>
<path d="M11390 4699 c-16 -29 -5 -51 22 -47 31 4 36 43 9 57 -17 9 -22 8 -31
-10z"/>
<path d="M11885 4710 c-3 -5 1 -10 10 -10 9 0 13 5 10 10 -3 6 -8 10 -10 10
-2 0 -7 -4 -10 -10z"/>
<path d="M4684 4685 c-9 -24 22 -53 38 -37 9 9 10 17 2 29 -15 24 -33 27 -40
8z"/>
<path d="M11700 4661 c0 -5 6 -14 14 -20 16 -13 32 2 21 19 -8 12 -35 13 -35
1z"/>
<path d="M11480 4645 c-11 -13 -11 -18 2 -31 20 -20 50 -7 46 20 -4 26 -30 32
-48 11z"/>
<path d="M4551 4621 c-10 -17 -9 -22 4 -27 26 -10 42 13 23 32 -15 15 -17 15
-27 -5z"/>
<path d="M4798 4628 c-9 -23 3 -38 29 -38 20 0 24 4 21 23 -3 25 -42 37 -50
15z"/>
<path d="M4921 4627 c-18 -23 -2 -49 28 -45 20 2 26 8 26 28 0 29 -34 40 -54
17z"/>
<path d="M11603 4614 c-8 -21 13 -42 28 -27 13 13 5 43 -11 43 -6 0 -13 -7
-17 -16z"/>
<path d="M11382 4598 c-7 -7 -8 -17 -1 -30 12 -22 23 -23 44 -1 16 16 16 17
-1 30 -22 16 -27 16 -42 1z"/>
<path d="M11776 4573 c-11 -11 -6 -23 9 -23 8 0 15 4 15 9 0 13 -16 22 -24 14z"/>
<path d="M4720 4539 c-10 -17 -9 -24 4 -37 15 -15 17 -15 33 1 13 13 15 21 7
34 -16 26 -31 26 -44 2z"/>
<path d="M4811 4521 c-12 -21 -5 -31 20 -31 24 0 33 18 19 35 -17 20 -27 19
-39 -4z"/>
<path d="M4931 4516 c-19 -23 22 -60 49 -46 23 12 26 30 8 48 -16 16 -43 15
-57 -2z"/>
<path d="M11465 4510 c-10 -17 20 -44 40 -36 9 3 15 14 13 23 -4 21 -43 30
-53 13z"/>
<path d="M11339 4484 c-9 -11 -10 -20 -3 -32 15 -23 29 -25 48 -6 16 15 16 18
0 35 -21 23 -28 24 -45 3z"/>
<path d="M11716 4471 c-4 -5 -2 -12 3 -15 5 -4 12 -2 15 3 4 5 2 12 -3 15 -5
4 -12 2 -15 -3z"/>
<path d="M4720 4445 c0 -16 16 -20 24 -6 3 5 -1 11 -9 15 -9 3 -15 0 -15 -9z"/>
<path d="M11593 4424 c-4 -11 1 -22 12 -30 22 -16 39 -5 33 22 -4 25 -36 30
-45 8z"/>
<path d="M4863 4413 c-19 -7 -16 -53 3 -60 24 -9 46 24 33 48 -10 19 -15 21
-36 12z"/>
<path d="M4972 4411 c-21 -13 -10 -46 16 -49 27 -4 40 22 22 43 -14 17 -20 18
-38 6z"/>
<path d="M11434 4405 c-4 -9 -2 -21 4 -27 15 -15 44 -1 40 19 -4 23 -36 29
-44 8z"/>
<path d="M11300 4335 c0 -31 26 -43 47 -22 13 13 14 19 3 31 -21 26 -50 20
-50 -9z"/>
<path d="M11403 4314 c-6 -16 15 -37 29 -28 4 3 8 14 8 25 0 23 -28 26 -37 3z"/>
<path d="M5010 4305 c-19 -23 -4 -45 29 -45 32 0 43 16 29 43 -11 21 -41 22
-58 2z"/>
<path d="M4747 4303 c-11 -10 -8 -41 4 -49 6 -3 18 1 27 9 13 13 13 19 2 31
-14 17 -23 20 -33 9z"/>
<path d="M4887 4293 c-12 -11 -8 -41 7 -46 21 -8 37 13 25 35 -10 19 -21 23
-32 11z"/>
<path d="M11555 4291 c-3 -5 -1 -12 5 -16 12 -7 30 2 30 16 0 12 -27 12 -35 0z"/>
<path d="M11270 4236 c0 -21 5 -26 26 -26 21 0 25 4 22 23 -2 14 -11 23 -25
25 -19 3 -23 -1 -23 -22z"/>
<path d="M11397 4213 c-11 -10 -8 -41 4 -49 16 -9 43 21 36 40 -7 16 -28 21
-40 9z"/>
<path d="M5072 4193 c-19 -38 21 -61 48 -28 10 12 10 18 0 30 -17 20 -37 19
-48 -2z"/>
<path d="M4803 4184 c-8 -21 13 -42 28 -27 13 13 5 43 -11 43 -6 0 -13 -7 -17
-16z"/>
<path d="M4950 4169 c-10 -17 -9 -24 2 -35 12 -12 17 -12 33 0 16 12 18 19 9
32 -16 27 -31 28 -44 3z"/>
<path d="M11532 4163 c2 -10 10 -18 18 -18 8 0 16 8 18 18 2 12 -3 17 -18 17
-15 0 -20 -5 -18 -17z"/>
<path d="M11237 4144 c-13 -14 -7 -43 12 -53 27 -15 60 11 45 36 -12 19 -45
29 -57 17z"/>
<path d="M5107 4113 c-13 -12 -7 -41 10 -47 9 -4 23 0 31 8 13 12 13 18 2 30
-13 17 -32 21 -43 9z"/>
<path d="M4712 4089 c2 -6 8 -10 13 -10 5 0 11 4 13 10 2 6 -4 11 -13 11 -9 0
-15 -5 -13 -11z"/>
<path d="M4975 4090 c-3 -6 -3 -19 0 -30 7 -23 43 -27 51 -5 12 29 -35 61 -51
35z"/>
<path d="M11372 4077 c-16 -19 7 -40 28 -27 13 8 13 11 -1 25 -13 14 -17 14
-27 2z"/>
<path d="M11594 4079 c-8 -14 11 -33 25 -25 6 4 11 11 11 16 0 13 -29 20 -36
9z"/>
<path d="M4830 4055 c0 -8 7 -15 15 -15 8 0 15 7 15 15 0 8 -7 15 -15 15 -8 0
-15 -7 -15 -15z"/>
<path d="M4766 4031 c-3 -5 0 -14 8 -20 10 -9 15 -8 19 3 9 22 -15 37 -27 17z"/>
<path d="M11202 4028 c-16 -16 -15 -23 3 -42 19 -18 45 -11 45 13 0 17 -18 41
-30 41 -3 0 -11 -5 -18 -12z"/>
<path d="M5127 4008 c-23 -12 -22 -45 2 -57 14 -8 22 -6 35 8 28 31 -1 70 -37
49z"/>
<path d="M11410 3985 c-9 -11 -10 -19 -3 -26 17 -17 48 -6 48 16 0 25 -28 31
-45 10z"/>
<path d="M4860 3975 c-11 -13 -11 -19 3 -33 20 -19 41 -5 35 24 -4 24 -22 28
-38 9z"/>
<path d="M11284 3969 c-8 -14 11 -33 25 -25 6 4 11 14 11 22 0 16 -26 19 -36
3z"/>
<path d="M5006 3954 c-9 -22 17 -49 39 -40 10 3 15 15 13 28 -4 29 -42 37 -52
12z"/>
<path d="M11155 3930 c-8 -25 1 -40 24 -40 25 0 32 10 21 30 -14 27 -38 32
-45 10z"/>
<path d="M5160 3895 c-18 -21 -5 -45 25 -45 14 0 28 7 31 15 7 17 -12 45 -31
45 -7 0 -18 -7 -25 -15z"/>
<path d="M4754 3889 c-3 -6 -1 -16 5 -22 9 -9 14 -8 21 3 9 15 4 30 -10 30 -5
0 -12 -5 -16 -11z"/>
<path d="M4903 3874 c-7 -18 17 -38 31 -24 11 11 1 40 -14 40 -6 0 -13 -7 -17
-16z"/>
<path d="M11274 3865 c-4 -9 -2 -21 4 -27 15 -15 44 -1 40 19 -4 23 -36 29
-44 8z"/>
<path d="M11544 3859 c-10 -17 13 -36 27 -22 12 12 4 33 -11 33 -5 0 -12 -5
-16 -11z"/>
<path d="M5055 3850 c-4 -7 -3 -16 3 -22 14 -14 45 -2 40 15 -6 16 -34 21 -43
7z"/>
<path d="M11387 3853 c-14 -13 -6 -24 15 -21 27 4 36 28 11 28 -11 0 -23 -3
-26 -7z"/>
<path d="M11117 3838 c-7 -21 12 -48 34 -48 25 0 35 25 19 45 -15 18 -47 20
-53 3z"/>
<path d="M5199 3804 c-16 -20 -1 -48 29 -52 27 -4 49 33 31 54 -15 19 -43 18
-60 -2z"/>
<path d="M4728 3803 c7 -3 16 -2 19 1 4 3 -2 6 -13 5 -11 0 -14 -3 -6 -6z"/>
<path d="M4997 3773 c-12 -12 -7 -41 7 -46 19 -7 40 18 32 38 -6 15 -28 20
-39 8z"/>
<path d="M5097 3773 c-4 -3 -7 -17 -7 -30 0 -16 6 -23 20 -23 13 0 20 7 20 19
0 21 -23 45 -33 34z"/>
<path d="M11181 3753 c-12 -24 1 -46 25 -41 13 2 19 12 19 28 0 30 -30 39 -44
13z"/>
<path d="M4875 3751 c-7 -12 12 -24 25 -16 11 7 4 25 -10 25 -5 0 -11 -4 -15
-9z"/>
<path d="M11054 3746 c-11 -29 0 -51 26 -51 21 0 25 5 25 30 0 24 -5 31 -23
33 -13 2 -24 -3 -28 -12z"/>
<path d="M11430 3721 c0 -11 4 -22 9 -25 12 -8 34 21 26 34 -11 17 -35 11 -35
-9z"/>
<path d="M11340 3715 c0 -8 5 -15 10 -15 6 0 10 7 10 15 0 8 -4 15 -10 15 -5
0 -10 -7 -10 -15z"/>
<path d="M5267 3713 c-12 -11 -7 -40 8 -53 23 -19 59 15 44 41 -10 19 -39 25
-52 12z"/>
<path d="M5147 3682 c-16 -18 -16 -20 3 -37 19 -18 22 -18 37 -2 16 16 16 18
-3 37 -20 20 -21 20 -37 2z"/>
<path d="M4797 3653 c-3 -5 -2 -15 2 -22 7 -10 10 -10 16 -1 4 6 3 16 -3 22
-5 5 -12 6 -15 1z"/>
<path d="M11013 3645 c-3 -9 3 -25 12 -35 17 -19 20 -19 36 -4 14 13 16 21 8
35 -12 23 -47 25 -56 4z"/>
<path d="M5046 3635 c-3 -9 1 -18 10 -22 19 -7 28 2 21 22 -8 19 -23 19 -31 0z"/>
<path d="M11147 3643 c-12 -11 -7 -33 8 -39 20 -8 45 13 38 32 -5 14 -34 19
-46 7z"/>
<path d="M11261 3636 c-10 -12 -8 -17 8 -25 22 -12 37 0 27 24 -7 19 -20 19
-35 1z"/>
<path d="M5333 3633 c-17 -6 -17 -40 0 -46 20 -8 39 8 35 28 -3 20 -16 26 -35
18z"/>
<path d="M5203 3589 c-17 -17 -4 -39 22 -39 31 0 39 14 19 34 -18 19 -26 20
-41 5z"/>
<path d="M11074 3566 c-16 -42 25 -76 45 -37 8 15 7 23 -5 35 -19 20 -33 20
-40 2z"/>
<path d="M4995 3551 c-7 -12 12 -24 25 -16 11 7 4 25 -10 25 -5 0 -11 -4 -15
-9z"/>
<path d="M5380 3545 c-16 -19 -6 -45 18 -45 25 0 46 25 38 45 -7 19 -40 19
-56 0z"/>
<path d="M10950 3534 c-11 -12 -10 -18 3 -31 8 -9 23 -13 31 -10 21 8 21 43 0
51 -21 8 -20 8 -34 -10z"/>
<path d="M5095 3530 c-9 -15 14 -40 36 -40 21 0 25 20 7 38 -15 15 -35 15 -43
2z"/>
<path d="M11217 3534 c-10 -10 -9 -42 2 -48 18 -11 42 6 39 28 -3 21 -28 33
-41 20z"/>
<path d="M5244 3486 c-11 -29 1 -51 26 -51 31 0 40 33 14 52 -23 17 -33 16
-40 -1z"/>
<path d="M4957 3476 c-3 -8 -2 -18 3 -21 13 -8 24 15 12 27 -6 6 -11 4 -15 -6z"/>
<path d="M5430 3471 c-7 -15 -5 -25 9 -42 19 -23 19 -24 40 -5 25 23 26 30 5
50 -21 21 -41 20 -54 -3z"/>
<path d="M11004 3465 c-9 -23 3 -45 26 -45 25 0 37 25 20 45 -16 19 -39 19
-46 0z"/>
<path d="M11157 3453 c-10 -9 -9 -41 2 -47 4 -3 16 1 27 8 15 12 16 16 5 30
-15 17 -24 20 -34 9z"/>
<path d="M10890 3425 c0 -18 5 -25 19 -25 26 0 36 17 21 35 -19 23 -40 18 -40
-10z"/>
<path d="M5142 3408 c-16 -16 -15 -35 3 -42 20 -7 45 3 45 18 0 13 -20 36 -30
36 -3 0 -11 -5 -18 -12z"/>
<path d="M5327 3408 c-21 -11 -22 -47 -2 -55 9 -3 24 2 35 12 31 28 3 64 -33
43z"/>
<path d="M11435 3410 c-11 -17 5 -32 21 -19 7 6 11 15 8 20 -7 12 -21 11 -29
-1z"/>
<path d="M5036 3391 c-10 -16 5 -41 25 -41 21 0 25 20 7 38 -14 14 -25 15 -32
3z"/>
<path d="M11280 3390 c0 -5 7 -10 16 -10 8 0 12 5 9 10 -3 6 -10 10 -16 10 -5
0 -9 -4 -9 -10z"/>
<path d="M5502 3368 c-19 -19 -14 -36 14 -55 25 -16 27 -16 44 7 13 18 16 29
9 42 -11 21 -49 24 -67 6z"/>
<path d="M11080 3345 c-14 -17 -5 -35 19 -35 18 0 35 33 23 44 -10 10 -29 6
-42 -9z"/>
<path d="M10957 3343 c-11 -10 -8 -41 4 -49 16 -9 43 21 36 40 -7 16 -28 21
-40 9z"/>
<path d="M10817 3334 c-12 -12 -8 -41 9 -54 22 -19 54 12 38 38 -12 19 -36 27
-47 16z"/>
<path d="M5249 3314 c-10 -12 -10 -18 3 -30 13 -13 16 -12 32 5 17 19 17 20
-2 30 -15 8 -23 7 -33 -5z"/>
<path d="M11350 3305 c0 -8 7 -15 15 -15 8 0 15 7 15 15 0 8 -7 15 -15 15 -8
0 -15 -7 -15 -15z"/>
<path d="M5360 3295 c-16 -19 -6 -45 18 -45 29 0 48 26 32 45 -16 19 -34 19
-50 0z"/>
<path d="M11203 3275 c-7 -20 2 -29 21 -22 9 4 13 13 10 22 -8 19 -23 19 -31
0z"/>
<path d="M5550 3255 c-14 -17 -4 -55 15 -55 14 0 45 26 45 39 0 11 -23 31 -36
31 -6 0 -17 -7 -24 -15z"/>
<path d="M10757 3253 c-17 -16 -6 -43 16 -43 31 0 38 9 26 31 -10 19 -30 25
-42 12z"/>
<path d="M4915 3231 c-3 -5 -1 -12 5 -16 5 -3 10 1 10 9 0 18 -6 21 -15 7z"/>
<path d="M10906 3233 c-13 -14 -5 -33 14 -33 11 0 20 6 20 14 0 15 -24 28 -34
19z"/>
<path d="M5294 3215 c-4 -8 -3 -22 0 -31 8 -21 50 -14 54 10 6 31 -43 50 -54
21z"/>
<path d="M5453 3213 c-18 -7 -16 -42 3 -50 8 -3 22 1 30 9 13 13 12 16 -3 30
-10 8 -24 13 -30 11z"/>
<path d="M5175 3189 c-10 -15 1 -23 20 -15 9 3 13 10 10 16 -8 13 -22 13 -30
-1z"/>
<path d="M5652 3188 c-16 -16 -15 -43 2 -57 12 -10 19 -8 36 9 21 21 21 23 4
41 -20 22 -26 23 -42 7z"/>
<path d="M5022 3173 c4 -21 33 -25 33 -3 0 8 -8 16 -18 18 -14 3 -18 -1 -15
-15z"/>
<path d="M10809 3174 c-10 -12 -9 -18 4 -31 13 -13 19 -14 31 -3 21 17 20 27
-3 39 -14 8 -22 7 -32 -5z"/>
<path d="M10677 3174 c-12 -12 -8 -41 7 -53 19 -16 44 14 30 37 -12 19 -27 25
-37 16z"/>
<path d="M11095 3170 c-4 -6 -3 -16 3 -22 6 -6 12 -6 17 2 4 6 3 16 -3 22 -6
6 -12 6 -17 -2z"/>
<path d="M10990 3135 c0 -8 5 -15 10 -15 6 0 10 7 10 15 0 8 -4 15 -10 15 -5
0 -10 -7 -10 -15z"/>
<path d="M11280 3134 c0 -8 5 -12 10 -9 6 3 10 10 10 16 0 5 -4 9 -10 9 -5 0
-10 -7 -10 -16z"/>
<path d="M5387 3134 c-12 -12 -8 -42 6 -47 21 -8 39 8 35 29 -3 19 -29 30 -41
18z"/>
<path d="M5527 3133 c-14 -14 -6 -42 14 -48 30 -10 57 18 39 39 -13 16 -42 21
-53 9z"/>
<path d="M5243 3104 c-8 -21 13 -42 28 -27 13 13 5 43 -11 43 -6 0 -13 -7 -17
-16z"/>
<path d="M5710 3099 c-10 -17 -9 -24 4 -37 21 -22 51 -4 51 29 0 33 -39 39
-55 8z"/>
<path d="M10610 3095 c-16 -19 -6 -45 19 -45 15 0 39 29 29 34 -2 1 -10 7 -19
14 -13 10 -19 9 -29 -3z"/>
<path d="M10729 3089 c-14 -26 8 -53 34 -43 23 8 21 41 -3 54 -16 8 -21 6 -31
-11z"/>
<path d="M5154 3059 c-9 -16 12 -33 31 -25 14 5 15 9 5 21 -15 18 -26 19 -36
4z"/>
<path d="M10887 3043 c-24 -23 12 -55 38 -33 12 10 13 16 4 26 -12 15 -31 18
-42 7z"/>
<path d="M5326 3022 c-19 -22 -12 -32 21 -32 25 0 31 21 10 39 -11 8 -18 7
-31 -7z"/>
<path d="M5460 3024 c-11 -13 -10 -19 9 -37 22 -22 22 -22 36 -3 13 17 13 22
-2 38 -20 22 -27 22 -43 2z"/>
<path d="M5614 3026 c-3 -9 -3 -23 0 -31 8 -22 48 0 44 23 -4 22 -36 28 -44 8z"/>
<path d="M10529 3019 c-9 -17 -8 -25 4 -37 19 -18 47 -9 47 16 0 18 -18 42
-32 42 -4 0 -12 -10 -19 -21z"/>
<path d="M5794 3003 c-5 -19 -2 -30 11 -39 20 -15 30 -11 45 16 7 14 6 23 -6
34 -23 24 -43 19 -50 -11z"/>
<path d="M10661 2996 c-9 -11 -8 -18 5 -31 15 -15 18 -15 32 -1 13 12 13 18 2
30 -15 20 -24 20 -39 2z"/>
<path d="M10982 2994 c4 -21 22 -23 26 -1 2 10 -3 17 -13 17 -10 0 -15 -6 -13
-16z"/>
<path d="M5673 2973 c-18 -7 -16 -42 3 -50 20 -8 49 21 41 41 -6 16 -21 19
-44 9z"/>
<path d="M10771 2942 c-14 -26 5 -45 31 -31 23 13 23 26 -2 39 -15 8 -21 6
-29 -8z"/>
<path d="M5060 2934 c0 -8 5 -12 10 -9 6 4 8 11 5 16 -9 14 -15 11 -15 -7z"/>
<path d="M5872 2938 c-16 -16 -15 -33 2 -47 10 -9 19 -7 37 8 20 16 21 21 10
35 -16 19 -33 20 -49 4z"/>
<path d="M5399 2904 c-9 -11 -9 -18 -1 -26 14 -14 42 -3 42 16 0 20 -27 27
-41 10z"/>
<path d="M5557 2913 c-21 -21 9 -63 34 -47 15 9 10 41 -7 48 -19 7 -19 7 -27
-1z"/>
<path d="M10444 2905 c-7 -18 12 -45 31 -45 18 0 24 21 13 43 -11 21 -37 22
-44 2z"/>
<path d="M10614 2905 c-9 -23 3 -45 26 -45 25 0 37 25 20 45 -16 19 -39 19
-46 0z"/>
<path d="M10940 2895 c0 -8 7 -15 15 -15 9 0 12 6 9 15 -4 8 -10 15 -15 15 -5
0 -9 -7 -9 -15z"/>
<path d="M5255 2891 c-8 -15 3 -31 21 -31 9 0 14 7 12 17 -4 20 -24 28 -33 14z"/>
<path d="M10714 2886 c-9 -24 4 -48 23 -44 12 2 18 12 18 28 0 29 -32 41 -41
16z"/>
<path d="M5763 2864 c-3 -8 1 -22 9 -30 12 -12 17 -12 33 -1 23 17 14 47 -15
47 -11 0 -23 -7 -27 -16z"/>
<path d="M5932 2848 c-16 -16 -15 -33 2 -47 28 -23 68 17 45 45 -14 17 -31 18
-47 2z"/>
<path d="M10367 2837 c-3 -8 -1 -20 4 -28 10 -17 44 0 44 22 0 19 -41 24 -48
6z"/>
<path d="M5630 2810 c0 -13 7 -20 20 -20 13 0 20 7 20 20 0 13 -7 20 -20 20
-13 0 -20 -7 -20 -20z"/>
<path d="M6028 2809 c-24 -13 -23 -32 3 -55 15 -14 24 -16 37 -8 22 14 27 41
12 59 -14 17 -28 18 -52 4z"/>
<path d="M10511 2803 c-12 -24 1 -46 25 -41 13 2 19 12 19 28 0 30 -30 39 -44
13z"/>
<path d="M5475 2800 c-10 -17 12 -37 25 -24 8 8 6 15 -4 23 -10 9 -16 9 -21 1z"/>
<path d="M10834 2789 c-3 -6 -2 -15 2 -19 12 -12 38 5 30 19 -9 14 -23 14 -32
0z"/>
<path d="M10956 2791 c-4 -5 -2 -12 3 -15 5 -4 12 -2 15 3 4 5 2 12 -3 15 -5
4 -12 2 -15 -3z"/>
<path d="M5816 2774 c-4 -10 -1 -24 7 -31 19 -19 49 -5 45 21 -4 27 -43 34
-52 10z"/>
<path d="M10293 2774 c-3 -8 -1 -20 5 -26 16 -16 42 -2 42 22 0 24 -38 28 -47
4z"/>
<path d="M5713 2763 c-16 -6 -17 -33 -3 -33 11 0 26 28 19 34 -2 2 -10 1 -16
-1z"/>
<path d="M10411 2757 c-25 -25 0 -63 31 -46 23 12 23 31 -1 46 -14 9 -21 9
-30 0z"/>
<path d="M10655 2749 c-4 -6 -3 -15 3 -21 6 -6 11 -4 15 6 7 18 -9 31 -18 15z"/>
<path d="M6114 2736 c-16 -43 15 -68 51 -42 19 14 19 15 1 35 -22 24 -44 27
-52 7z"/>
<path d="M5390 2716 c0 -9 7 -16 16 -16 9 0 14 5 12 12 -6 18 -28 21 -28 4z"/>
<path d="M5587 2724 c-14 -14 -7 -35 11 -32 9 2 17 10 17 17 0 16 -18 25 -28
15z"/>
<path d="M5920 2705 c-28 -33 16 -84 46 -53 19 19 13 42 -14 57 -15 8 -23 7
-32 -4z"/>
<path d="M10736 2711 c-4 -5 -2 -12 3 -15 5 -4 12 -2 15 3 4 5 2 12 -3 15 -5
4 -12 2 -15 -3z"/>
<path d="M10192 2698 c-17 -17 -15 -35 4 -42 33 -13 45 -7 42 21 -3 30 -26 41
-46 21z"/>
<path d="M10550 2680 c-15 -28 5 -57 26 -39 18 15 18 33 0 48 -12 10 -17 8
-26 -9z"/>
<path d="M5780 2665 c-16 -19 -5 -47 17 -43 11 2 18 12 18 27 0 29 -17 37 -35
16z"/>
<path d="M10856 2671 c-4 -5 -2 -12 3 -15 5 -4 12 -2 15 3 4 5 2 12 -3 15 -5
4 -12 2 -15 -3z"/>
<path d="M6220 2650 c-26 -26 -12 -60 25 -60 43 0 53 50 14 70 -14 8 -23 6
-39 -10z"/>
<path d="M10346 2644 c-8 -21 1 -34 24 -34 25 0 35 17 20 35 -16 20 -36 19
-44 -1z"/>
<path d="M10102 2638 c-30 -30 9 -69 44 -44 18 14 18 15 0 35 -22 24 -28 25
-44 9z"/>
<path d="M10471 2640 c-17 -10 -7 -40 14 -40 8 0 15 9 15 19 0 24 -12 32 -29
21z"/>
<path d="M10632 2638 c-8 -8 -8 -15 -1 -24 14 -17 39 -6 39 17 0 21 -20 25
-38 7z"/>
<path d="M6033 2633 c-18 -7 -16 -38 2 -53 32 -26 63 18 33 48 -13 13 -16 13
-35 5z"/>
<path d="M5464 2589 c-10 -17 13 -36 27 -22 12 12 4 33 -11 33 -5 0 -12 -5
-16 -11z"/>
<path d="M6305 2586 c-20 -15 -17 -44 7 -59 12 -8 21 -7 32 2 36 30 -1 85 -39
57z"/>
<path d="M10257 2593 c-13 -12 -7 -44 9 -50 21 -8 35 16 23 39 -10 19 -21 23
-32 11z"/>
<path d="M5664 2579 c-7 -12 15 -31 28 -23 4 3 8 12 8 20 0 17 -26 19 -36 3z"/>
<path d="M5854 2575 c-7 -18 3 -35 22 -35 20 0 30 30 13 41 -20 12 -29 11 -35
-6z"/>
<path d="M6115 2570 c-11 -17 5 -50 24 -50 28 0 46 26 31 45 -14 17 -46 20
-55 5z"/>
<path d="M10012 2558 c-16 -16 -15 -33 2 -47 18 -15 46 -4 46 18 0 17 -18 41
-30 41 -3 0 -11 -5 -18 -12z"/>
<path d="M10360 2545 c-15 -18 -6 -45 13 -45 21 0 38 25 31 44 -8 20 -28 21
-44 1z"/>
<path d="M10606 2552 c-8 -13 11 -35 23 -28 16 10 14 36 -3 36 -8 0 -17 -4
-20 -8z"/>
<path d="M5780 2526 c0 -24 26 -38 40 -22 6 9 9 20 5 26 -9 15 -45 12 -45 -4z"/>
<path d="M6199 2514 c-9 -11 -10 -20 -2 -32 14 -22 43 -22 57 1 9 15 7 21 -8
33 -25 18 -31 18 -47 -2z"/>
<path d="M10169 2510 c-23 -19 -23 -20 -5 -35 35 -27 76 16 42 44 -10 9 -19 7
-37 -9z"/>
<path d="M5980 2505 c-16 -19 -6 -45 19 -45 25 0 34 26 15 45 -19 18 -19 18
-34 0z"/>
<path d="M6390 2499 c-10 -17 -9 -24 4 -37 21 -22 51 -4 51 29 0 33 -39 39
-55 8z"/>
<path d="M9925 2490 c-8 -26 6 -43 31 -38 13 2 19 12 19 28 0 34 -40 41 -50
10z"/>
<path d="M5873 2464 c-8 -21 13 -42 28 -27 13 13 5 43 -11 43 -6 0 -13 -7 -17
-16z"/>
<path d="M10472 2468 c6 -18 28 -21 28 -4 0 9 -7 16 -16 16 -9 0 -14 -5 -12
-12z"/>
<path d="M10050 2450 c-12 -23 -6 -40 14 -40 20 0 37 25 30 44 -8 22 -31 20
-44 -4z"/>
<path d="M6061 2446 c-16 -19 -6 -36 20 -36 15 0 20 6 17 22 -4 27 -21 33 -37
14z"/>
<path d="M6490 2445 c-19 -23 -8 -50 20 -50 16 0 26 6 28 18 4 18 -14 47 -28
47 -4 0 -13 -7 -20 -15z"/>
<path d="M9822 2438 c-15 -15 2 -38 28 -38 22 0 32 24 17 39 -14 14 -30 14
-45 -1z"/>
<path d="M6322 2418 c2 -15 10 -23 23 -23 13 0 21 8 23 23 3 18 -1 22 -23 22
-22 0 -26 -4 -23 -22z"/>
<path d="M10254 2429 c-3 -6 0 -17 8 -25 13 -13 16 -13 27 0 7 8 10 20 6 26
-8 13 -32 13 -41 -1z"/>
<path d="M6588 2399 c-25 -14 -23 -56 2 -64 28 -9 60 12 60 39 0 33 -29 44
-62 25z"/>
<path d="M5755 2390 c-8 -13 4 -32 16 -25 12 8 12 35 0 35 -6 0 -13 -4 -16
-10z"/>
<path d="M9701 2387 c-24 -29 17 -70 46 -46 8 7 13 22 11 33 -4 25 -40 33 -57
13z"/>
<path d="M10135 2391 c-8 -15 3 -31 21 -31 9 0 14 7 12 17 -4 20 -24 28 -33
14z"/>
<path d="M9957 2383 c-11 -10 -8 -41 4 -49 16 -9 43 21 36 40 -7 16 -28 21
-40 9z"/>
<path d="M6196 2371 c-8 -13 3 -38 19 -45 22 -8 40 21 25 39 -14 17 -36 20
-44 6z"/>
<path d="M10380 2365 c0 -8 7 -15 15 -15 8 0 15 7 15 15 0 8 -7 15 -15 15 -8
0 -15 -7 -15 -15z"/>
<path d="M6406 2344 c-6 -17 9 -54 23 -54 4 0 16 9 26 20 15 16 15 22 5 35
-16 20 -46 19 -54 -1z"/>
<path d="M6671 2341 c-13 -24 9 -57 33 -48 26 10 32 38 11 53 -25 18 -32 18
-44 -5z"/>
<path d="M9626 2347 c-12 -9 -17 -20 -13 -31 9 -23 37 -32 48 -15 12 18 11 22
-4 42 -11 15 -15 16 -31 4z"/>
<path d="M10466 2344 c-21 -21 -11 -37 15 -24 10 6 19 15 19 20 0 17 -19 20
-34 4z"/>
<path d="M6512 2328 c-16 -16 -15 -33 4 -48 13 -11 18 -10 35 7 19 19 19 21 4
37 -20 19 -27 20 -43 4z"/>
<path d="M9853 2324 c-3 -8 1 -23 10 -31 23 -23 52 0 36 28 -12 23 -37 25 -46
3z"/>
<path d="M10044 2315 c-4 -9 -2 -21 4 -27 15 -15 44 -1 40 19 -4 23 -36 29
-44 8z"/>
<path d="M6787 2308 c-22 -16 -14 -45 15 -54 29 -9 57 20 42 44 -14 22 -35 26
-57 10z"/>
<path d="M6317 2304 c-14 -14 -7 -35 11 -32 9 2 17 10 17 17 0 16 -18 25 -28
15z"/>
<path d="M9524 2295 c-15 -11 -17 -17 -8 -32 16 -26 58 -24 62 4 4 30 -29 47
-54 28z"/>
<path d="M6062 2278 c2 -12 10 -23 18 -23 22 0 19 39 -3 43 -15 3 -18 -1 -15
-20z"/>
<path d="M6602 2277 c-17 -20 8 -50 39 -45 18 2 24 9 24 28 0 19 -6 26 -26 28
-14 2 -31 -3 -37 -11z"/>
<path d="M10275 2280 c-4 -7 -3 -16 3 -22 14 -14 45 -2 40 15 -6 16 -34 21
-43 7z"/>
<path d="M9734 2265 c-4 -9 -2 -21 4 -27 16 -16 47 -5 47 17 0 26 -42 34 -51
10z"/>
<path d="M5952 2249 c2 -6 8 -10 13 -10 5 0 11 4 13 10 2 6 -4 11 -13 11 -9 0
-15 -5 -13 -11z"/>
<path d="M6420 2245 c-11 -13 -11 -19 3 -33 20 -19 41 -5 35 24 -4 24 -22 28
-38 9z"/>
<path d="M9420 2245 c-29 -35 12 -72 44 -39 16 15 16 18 0 35 -21 23 -28 24
-44 4z"/>
<path d="M6877 2243 c-4 -3 -7 -17 -7 -30 0 -19 5 -23 29 -23 35 0 50 28 25
47 -20 14 -37 17 -47 6z"/>
<path d="M6155 2231 c-3 -5 -1 -12 5 -16 12 -7 30 2 30 16 0 12 -27 12 -35 0z"/>
<path d="M9957 2233 c-14 -13 -6 -33 12 -33 19 0 35 23 24 34 -8 8 -28 8 -36
-1z"/>
<path d="M6700 2211 c0 -41 52 -53 67 -15 7 19 -12 34 -44 34 -16 0 -23 -6
-23 -19z"/>
<path d="M10157 2216 c-3 -8 -3 -16 0 -19 9 -10 33 5 33 19 0 18 -26 18 -33 0z"/>
<path d="M6996 2204 c-20 -19 -20 -25 -2 -50 12 -15 18 -17 33 -8 23 14 28 41
13 59 -16 19 -25 19 -44 -1z"/>
<path d="M9333 2213 c-21 -8 -15 -41 8 -48 25 -8 42 6 37 31 -3 19 -23 27 -45
17z"/>
<path d="M9643 2204 c-3 -8 1 -22 9 -30 12 -12 17 -12 33 0 16 12 17 16 6 30
-17 20 -40 21 -48 0z"/>
<path d="M9835 2200 c-8 -13 4 -32 16 -25 12 8 12 35 0 35 -6 0 -13 -4 -16
-10z"/>
<path d="M6534 2185 c-8 -20 4 -35 26 -35 25 0 35 17 20 35 -16 19 -39 19 -46
0z"/>
<path d="M10086 2192 c-2 -4 -1 -14 4 -22 7 -11 11 -11 24 -1 9 7 13 17 10 22
-7 11 -31 12 -38 1z"/>
<path d="M7105 2176 c-12 -8 -15 -19 -11 -33 8 -26 34 -37 52 -22 35 29 -4 82
-41 55z"/>
<path d="M9216 2167 c-26 -19 -17 -51 17 -55 32 -4 44 16 27 47 -13 24 -20 26
-44 8z"/>
<path d="M9544 2163 c-15 -15 -15 -18 1 -29 21 -16 45 -7 45 16 0 25 -26 32
-46 13z"/>
<path d="M6217 2163 c-14 -13 -7 -33 11 -33 24 0 32 8 25 26 -5 15 -25 19 -36
7z"/>
<path d="M7220 2155 c-25 -30 18 -71 46 -44 12 13 12 18 -2 37 -18 26 -27 27
-44 7z"/>
<path d="M6810 2145 c-15 -18 -6 -45 13 -45 20 0 40 27 33 45 -7 19 -30 19
-46 0z"/>
<path d="M9770 2139 c-8 -15 -7 -21 4 -25 19 -7 36 3 36 21 0 22 -29 26 -40 4z"/>
<path d="M10195 2149 c-10 -15 3 -25 16 -12 7 7 7 13 1 17 -6 3 -14 1 -17 -5z"/>
<path d="M9086 2124 c-9 -25 16 -48 43 -39 16 5 21 13 19 28 -4 28 -52 36 -62
11z"/>
<path d="M6396 2115 c-3 -9 0 -18 9 -21 21 -8 47 3 43 19 -7 18 -45 20 -52 2z"/>
<path d="M6933 2123 c-18 -6 -16 -28 2 -43 12 -10 18 -10 30 0 8 7 15 16 15
21 0 12 -33 27 -47 22z"/>
<path d="M7311 2112 c-12 -23 4 -52 29 -52 25 0 33 15 26 46 -8 29 -41 33 -55
6z"/>
<path d="M9441 2101 c-12 -21 -5 -31 20 -31 22 0 31 13 23 34 -8 22 -31 20
-43 -3z"/>
<path d="M8994 2095 c-9 -22 22 -53 37 -38 15 15 7 47 -14 51 -9 2 -20 -4 -23
-13z"/>
<path d="M6707 2093 c-13 -12 -7 -44 9 -50 20 -7 45 22 37 43 -5 14 -35 19
-46 7z"/>
<path d="M7425 2079 c-10 -30 18 -58 40 -39 22 18 15 54 -12 58 -15 2 -23 -3
-28 -19z"/>
<path d="M9635 2091 c-7 -12 12 -24 25 -16 11 7 4 25 -10 25 -5 0 -11 -4 -15
-9z"/>
<path d="M8910 2075 c-17 -21 -5 -45 24 -45 28 0 37 17 24 43 -11 21 -31 22
-48 2z"/>
<path d="M9325 2076 c-11 -8 -16 -19 -12 -30 9 -22 41 -17 45 8 6 27 -11 38
-33 22z"/>
<path d="M6590 2065 c0 -8 7 -15 15 -15 8 0 15 7 15 15 0 8 -7 15 -15 15 -8 0
-15 -7 -15 -15z"/>
<path d="M9225 2056 c-11 -8 -16 -19 -12 -30 9 -22 41 -17 45 8 6 27 -11 38
-33 22z"/>
<path d="M7036 2051 c-8 -13 3 -38 19 -45 22 -8 40 21 25 39 -14 17 -36 20
-44 6z"/>
<path d="M7124 2045 c-4 -9 -2 -21 4 -27 16 -16 47 -5 47 17 0 26 -42 34 -51
10z"/>
<path d="M7534 2046 c-11 -28 1 -51 25 -51 32 0 49 28 32 49 -17 20 -50 21
-57 2z"/>
<path d="M8791 2041 c-8 -14 -6 -23 10 -37 20 -18 21 -18 35 0 9 13 10 24 3
37 -13 24 -35 24 -48 0z"/>
<path d="M6484 2039 c-10 -17 13 -36 27 -22 12 12 4 33 -11 33 -5 0 -12 -5
-16 -11z"/>
<path d="M9095 2036 c-16 -12 -18 -18 -9 -33 6 -10 20 -18 30 -18 14 0 19 7
19 29 0 35 -13 42 -40 22z"/>
<path d="M7652 2028 c-18 -18 -15 -36 10 -49 18 -10 24 -8 35 7 7 10 12 25 11
34 -4 19 -39 25 -56 8z"/>
<path d="M8677 2034 c-10 -11 -9 -52 3 -59 18 -11 51 15 48 38 -3 22 -36 35
-51 21z"/>
<path d="M6814 2015 c-9 -23 3 -45 25 -45 23 0 35 28 20 46 -15 18 -38 18 -45
-1z"/>
<path d="M7273 2024 c-21 -9 -15 -42 9 -50 22 -7 52 19 45 41 -4 11 -36 17
-54 9z"/>
<path d="M7757 2014 c-15 -16 -7 -53 14 -59 27 -9 42 6 37 36 -3 24 -36 38
-51 23z"/>
<path d="M7866 2007 c-21 -15 -18 -45 6 -60 12 -8 21 -7 32 2 21 17 21 57 0
65 -20 8 -17 8 -38 -7z"/>
<path d="M8554 2005 c-15 -38 29 -72 52 -40 9 13 10 23 3 36 -12 23 -47 25
-55 4z"/>
<path d="M9514 2005 c-3 -8 -3 -19 1 -25 11 -17 35 -11 35 9 0 23 -29 36 -36
16z"/>
<path d="M9690 2006 c0 -21 21 -31 30 -15 5 7 6 17 4 21 -9 14 -34 9 -34 -6z"/>
<path d="M7994 1996 c-11 -28 1 -51 25 -51 32 0 49 28 32 49 -17 20 -50 21
-57 2z"/>
<path d="M8111 1997 c-16 -16 -14 -42 5 -57 21 -18 49 9 40 38 -8 25 -30 34
-45 19z"/>
<path d="M8210 1979 c-13 -23 1 -49 26 -49 20 0 34 32 23 53 -13 23 -36 21
-49 -4z"/>
<path d="M8322 1988 c-16 -16 -15 -33 4 -48 22 -19 54 12 38 37 -14 22 -27 26
-42 11z"/>
<path d="M8433 1984 c-4 -11 1 -22 12 -31 16 -11 21 -11 33 1 8 8 12 22 9 30
-8 21 -46 21 -54 0z"/>
<path d="M9985 1990 c-3 -5 1 -10 10 -10 9 0 13 5 10 10 -3 6 -8 10 -10 10 -2
0 -7 -4 -10 -10z"/>
<path d="M7353 1974 c-9 -23 25 -48 44 -33 18 15 16 36 -3 43 -25 10 -34 7
-41 -10z"/>
<path d="M8983 1974 c-17 -14 -17 -14 1 -29 14 -11 23 -12 33 -4 32 27 0 59
-34 33z"/>
<path d="M7459 1964 c-11 -14 -10 -18 6 -30 10 -8 22 -14 26 -14 14 0 31 30
25 45 -7 20 -40 19 -57 -1z"/>
<path d="M6920 1960 c0 -5 4 -10 9 -10 6 0 13 5 16 10 3 6 -1 10 -9 10 -9 0
-16 -4 -16 -10z"/>
<path d="M8872 1948 c-17 -17 -15 -45 5 -52 23 -9 47 17 38 43 -7 23 -25 27
-43 9z"/>
<path d="M9330 1940 c-9 -16 -8 -21 5 -26 23 -9 47 4 43 23 -5 26 -35 28 -48
3z"/>
<path d="M6415 1940 c-4 -6 -3 -16 3 -22 6 -6 12 -6 17 2 4 6 3 16 -3 22 -6 6
-12 6 -17 -2z"/>
<path d="M6677 1943 c-14 -13 -7 -33 11 -33 26 0 34 11 21 27 -13 14 -22 16
-32 6z"/>
<path d="M7574 1935 c-7 -18 12 -45 32 -45 15 0 28 35 19 50 -9 15 -45 12 -51
-5z"/>
<path d="M9194 1935 c-4 -9 -2 -21 4 -27 15 -15 44 -1 40 19 -4 23 -36 29 -44
8z"/>
<path d="M7054 1925 c-7 -18 3 -35 21 -35 21 0 28 19 15 35 -16 19 -29 19 -36
0z"/>
<path d="M8734 1929 c-3 -6 3 -21 15 -32 19 -20 22 -20 37 -5 9 9 14 24 11 32
-7 18 -52 22 -63 5z"/>
<path d="M9850 1925 c0 -9 5 -15 11 -13 6 2 11 8 11 13 0 5 -5 11 -11 13 -6 2
-11 -4 -11 -13z"/>
<path d="M7710 1915 c-16 -20 -6 -45 19 -45 25 0 34 14 26 40 -8 24 -28 26
-45 5z"/>
<path d="M8623 1914 c-3 -8 2 -23 11 -32 15 -15 17 -15 32 0 21 21 11 48 -16
48 -11 0 -23 -7 -27 -16z"/>
<path d="M7937 1913 c-13 -12 -7 -53 7 -53 20 0 39 27 32 45 -6 15 -28 20 -39
8z"/>
<path d="M7173 1903 c-7 -2 -13 -11 -13 -20 0 -20 34 -12 38 10 3 17 -3 20
-25 10z"/>
<path d="M6800 1886 c0 -7 7 -19 15 -26 12 -10 16 -9 21 3 3 9 3 21 -1 27 -9
15 -35 12 -35 -4z"/>
<path d="M7293 1893 c-16 -6 -17 -39 -2 -49 6 -3 18 1 27 10 14 14 14 18 2 30
-8 7 -21 12 -27 9z"/>
<path d="M8046 1884 c-22 -22 -20 -41 5 -49 28 -9 53 16 44 44 -8 25 -27 27
-49 5z"/>
<path d="M8414 1886 c-7 -19 3 -36 22 -36 10 0 14 8 12 22 -4 26 -26 36 -34
14z"/>
<path d="M9053 1893 c-18 -7 -16 -43 2 -43 18 0 31 28 19 39 -5 5 -15 6 -21 4z"/>
<path d="M9475 1890 c-11 -17 5 -32 21 -19 7 6 11 15 8 20 -7 12 -21 11 -29
-1z"/>
<path d="M7822 1881 c-20 -12 -10 -46 13 -46 14 0 20 7 20 24 0 27 -13 35 -33
22z"/>
<path d="M8201 1876 c-9 -11 -8 -18 5 -30 19 -20 44 -5 44 25 0 23 -32 26 -49
5z"/>
<path d="M8533 1879 c-15 -15 -5 -39 17 -39 22 0 32 24 17 39 -6 6 -14 11 -17
11 -3 0 -11 -5 -17 -11z"/>
<path d="M8286 1864 c-17 -16 -16 -18 3 -38 20 -19 22 -19 38 -3 16 16 16 18
-3 38 -20 19 -22 20 -38 3z"/>
<path d="M8933 1869 c-15 -15 -5 -39 16 -39 25 0 32 10 20 31 -11 22 -20 24
-36 8z"/>
<path d="M7411 1856 c-9 -10 -9 -16 -1 -21 17 -10 37 12 24 25 -8 8 -15 6 -23
-4z"/>
<path d="M6936 1851 c-4 -5 -2 -12 3 -15 5 -4 12 -2 15 3 4 5 2 12 -3 15 -5 4
-12 2 -15 -3z"/>
<path d="M8841 1836 c-16 -19 -6 -36 20 -36 15 0 20 6 17 22 -4 27 -21 33 -37
14z"/>
<path d="M9292 1828 c-7 -7 -12 -16 -12 -20 0 -12 28 -10 36 3 10 17 -10 31
-24 17z"/>
<path d="M9616 1831 c-4 -5 -2 -12 3 -15 5 -4 12 -2 15 3 4 5 2 12 -3 15 -5 4
-12 2 -15 -3z"/>
<path d="M9740 1815 c0 -9 5 -15 11 -13 6 2 11 8 11 13 0 5 -5 11 -11 13 -6 2
-11 -4 -11 -13z"/>
<path d="M7070 1790 c0 -13 7 -20 18 -20 26 0 34 11 21 27 -17 20 -39 16 -39
-7z"/>
<path d="M7514 1785 c-4 -9 -2 -21 4 -27 15 -15 44 -1 40 19 -4 23 -36 29 -44
8z"/>
<path d="M7876 1784 c-13 -12 -14 -19 -5 -30 16 -19 26 -18 38 5 15 28 -11 48
-33 25z"/>
<path d="M8462 1778 c4 -27 33 -36 42 -13 8 22 -1 35 -25 35 -15 0 -20 -6 -17
-22z"/>
<path d="M8731 1786 c-16 -19 -7 -46 14 -46 22 0 30 29 13 46 -13 13 -16 13
-27 0z"/>
<path d="M7644 1779 c-10 -17 13 -36 27 -22 12 12 4 33 -11 33 -5 0 -12 -5
-16 -11z"/>
<path d="M8333 1764 c-8 -21 13 -42 28 -27 13 13 5 43 -11 43 -6 0 -13 -7 -17
-16z"/>
<path d="M7216 1761 c-4 -7 -5 -15 -2 -18 9 -9 19 4 14 18 -4 11 -6 11 -12 0z"/>
<path d="M8025 1760 c-8 -13 4 -32 16 -25 12 8 12 35 0 35 -6 0 -13 -4 -16
-10z"/>
<path d="M8592 1757 c-14 -16 -6 -27 20 -27 13 0 18 6 16 17 -4 22 -22 27 -36
10z"/>
<path d="M8236 1751 c-10 -16 6 -42 23 -39 9 2 17 13 19 26 3 16 -2 22 -17 22
-11 0 -22 -4 -25 -9z"/>
<path d="M8115 1740 c-4 -6 -3 -16 3 -22 6 -6 12 -6 17 2 4 6 3 16 -3 22 -6 6
-12 6 -17 -2z"/>
<path d="M7355 1730 c-9 -15 4 -30 26 -30 12 0 19 7 19 20 0 21 -33 29 -45 10z"/>
<path d="M7070 1699 c0 -5 5 -7 10 -4 6 3 10 8 10 11 0 2 -4 4 -10 4 -5 0 -10
-5 -10 -11z"/>
<path d="M8887 1694 c-13 -13 -7 -24 14 -24 11 0 19 5 17 12 -5 14 -22 21 -31
12z"/>
<path d="M7462 1678 c3 -7 13 -15 22 -16 12 -3 17 1 14 10 -3 7 -13 15 -22 16
-12 3 -17 -1 -14 -10z"/>
<path d="M7256 1671 c-7 -10 22 -37 30 -28 9 8 -3 37 -15 37 -5 0 -12 -4 -15
-9z"/>
<path d="M7762 1668 c5 -15 28 -18 29 -3 0 6 -7 12 -17 13 -10 3 -15 -1 -12
-10z"/>
<path d="M8030 1660 c0 -11 7 -20 15 -20 8 0 15 9 15 20 0 11 -7 20 -15 20 -8
0 -15 -9 -15 -20z"/>
<path d="M8294 1665 c-4 -9 -2 -21 4 -27 15 -15 44 -1 40 19 -4 23 -36 29 -44
8z"/>
<path d="M7896 1655 c-6 -17 16 -31 33 -21 13 9 2 36 -14 36 -7 0 -16 -7 -19
-15z"/>
<path d="M8555 1651 c-3 -5 -1 -12 5 -16 12 -7 30 2 30 16 0 12 -27 12 -35 0z"/>
<path d="M7502 1579 c2 -6 8 -10 13 -10 5 0 11 4 13 10 2 6 -4 11 -13 11 -9 0
-15 -5 -13 -11z"/>
<path d="M7616 1572 c-2 -4 -1 -14 4 -22 7 -11 11 -11 24 -1 9 7 13 17 10 22
-7 11 -31 12 -38 1z"/>
<path d="M8146 1573 c-11 -11 -6 -23 9 -23 8 0 15 4 15 9 0 13 -16 22 -24 14z"/>
<path d="M7874 1546 c-8 -22 3 -33 18 -18 9 9 9 15 0 24 -9 9 -13 7 -18 -6z"/>
<path d="M8796 1531 c-4 -5 -2 -12 3 -15 5 -4 12 -2 15 3 4 5 2 12 -3 15 -5 4
-12 2 -15 -3z"/>
</g>
</svg>
